<mxfile host="app.diagrams.net" modified="2021-12-07T07:03:24.321Z" agent="5.0 (Windows)" etag="ttb0F_8RiUkq5SXkQpn8" version="15.9.1" type="github" pages="3">
  <diagram id="6a731a19-8d31-9384-78a2-239565b7b9f0" name="Page-1">
    <mxGraphModel dx="1422" dy="-47" grid="1" gridSize="10" guides="1" tooltips="1" connect="1" arrows="1" fold="1" page="1" pageScale="1" pageWidth="1169" pageHeight="827" background="none" math="0" shadow="0">
      <root>
        <mxCell id="0" />
        <mxCell id="1" parent="0" />
        <mxCell id="56" value="&lt;p style=&quot;line-height: 1&quot;&gt;亞太天天玩改版工作流程&lt;/p&gt;" style="strokeColor=#BAC8D3;fillColor=#23445D;fontSize=24;strokeWidth=2;fontFamily=Helvetica;html=1;fontColor=#FFFFFF;fontStyle=0;spacingBottom=8;spacingRight=0;spacingLeft=83;" parent="1" vertex="1">
          <mxGeometry x="154" y="850.5" width="2030" height="49.5" as="geometry" />
        </mxCell>
        <mxCell id="57" value="版面設計" style="strokeColor=#BAC8D3;fillColor=#23445D;fontSize=24;strokeWidth=2;horizontal=0;fontFamily=Helvetica;html=1;fontColor=#FFFFFF;fontStyle=0" parent="1" vertex="1">
          <mxGeometry x="154" y="930.5" width="50" height="300" as="geometry" />
        </mxCell>
        <mxCell id="58" value="Lane 1.1" style="strokeColor=#BAC8D3;fillColor=#5d7f99;fontSize=19;strokeWidth=2;horizontal=0;fontFamily=Helvetica;html=1;labelBackgroundColor=none;fontColor=#FFFFFF;" parent="1" vertex="1">
          <mxGeometry x="204" y="930.5" width="40" height="100" as="geometry" />
        </mxCell>
        <mxCell id="59" value="v 1.0" style="strokeColor=#BAC8D3;fillColor=#5d7f99;fontSize=19;strokeWidth=2;fontFamily=Helvetica;html=1;labelBackgroundColor=none;fontColor=#FFFFFF;" parent="1" vertex="1">
          <mxGeometry x="154" y="850.5" width="90" height="80" as="geometry" />
        </mxCell>
        <mxCell id="60" value="Lane 1.2" style="strokeColor=#BAC8D3;fillColor=#5d7f99;fontSize=19;strokeWidth=2;horizontal=0;fontFamily=Helvetica;html=1;labelBackgroundColor=none;fontColor=#FFFFFF;" parent="1" vertex="1">
          <mxGeometry x="204" y="1030.5" width="40" height="100" as="geometry" />
        </mxCell>
        <mxCell id="61" value="Lane 1.3" style="strokeColor=#BAC8D3;fillColor=#5d7f99;fontSize=19;strokeWidth=2;horizontal=0;fontFamily=Helvetica;html=1;labelBackgroundColor=none;fontColor=#FFFFFF;" parent="1" vertex="1">
          <mxGeometry x="204" y="1130.5" width="40" height="100" as="geometry" />
        </mxCell>
        <mxCell id="62" value="Lane 2.2" style="strokeColor=#BAC8D3;fillColor=#5d7f99;fontSize=19;strokeWidth=2;horizontal=0;fontFamily=Helvetica;html=1;labelBackgroundColor=none;fontColor=#FFFFFF;" parent="1" vertex="1">
          <mxGeometry x="204" y="1330.5" width="40" height="100" as="geometry" />
        </mxCell>
        <mxCell id="63" value="Lane 2.1" style="strokeColor=#BAC8D3;fillColor=#5d7f99;fontSize=19;strokeWidth=2;horizontal=0;fontFamily=Helvetica;html=1;labelBackgroundColor=none;fontColor=#FFFFFF;" parent="1" vertex="1">
          <mxGeometry x="204" y="1230.5" width="40" height="100" as="geometry" />
        </mxCell>
        <mxCell id="64" value="頁面切版" style="strokeColor=#BAC8D3;fillColor=#23445D;fontSize=24;strokeWidth=2;horizontal=0;fontFamily=Helvetica;html=1;fontColor=#FFFFFF;fontStyle=0" parent="1" vertex="1">
          <mxGeometry x="154" y="1230.5" width="50" height="200" as="geometry" />
        </mxCell>
        <mxCell id="65" value="Lane 3.2" style="strokeColor=#BAC8D3;fillColor=#5d7f99;fontSize=19;strokeWidth=2;horizontal=0;fontFamily=Helvetica;html=1;labelBackgroundColor=none;fontColor=#FFFFFF;" parent="1" vertex="1">
          <mxGeometry x="204" y="1530.5" width="40" height="100" as="geometry" />
        </mxCell>
        <mxCell id="66" value="Lane 3.1" style="strokeColor=#BAC8D3;fillColor=#5d7f99;fontSize=19;strokeWidth=2;horizontal=0;fontFamily=Helvetica;html=1;labelBackgroundColor=none;fontColor=#FFFFFF;" parent="1" vertex="1">
          <mxGeometry x="204" y="1430.5" width="40" height="100" as="geometry" />
        </mxCell>
        <mxCell id="67" value="資料串接" style="strokeColor=#BAC8D3;fillColor=#23445D;fontSize=24;strokeWidth=2;horizontal=0;fontFamily=Helvetica;html=1;fontColor=#FFFFFF;fontStyle=0" parent="1" vertex="1">
          <mxGeometry x="154" y="1430.5" width="50" height="200" as="geometry" />
        </mxCell>
        <mxCell id="68" value="" style="strokeColor=#FFFFFF;fillColor=#BAC8D3;fontSize=18;strokeWidth=2;fontFamily=Helvetica;html=1;opacity=60;" parent="1" vertex="1">
          <mxGeometry x="244" y="930.5" width="646.6666666666666" height="100" as="geometry" />
        </mxCell>
        <mxCell id="69" value="" style="strokeColor=#FFFFFF;fillColor=#BAC8D3;fontSize=18;strokeWidth=2;fontFamily=Helvetica;html=1;opacity=90;" parent="1" vertex="1">
          <mxGeometry x="244" y="1030.5" width="646.6666666666666" height="100" as="geometry" />
        </mxCell>
        <mxCell id="70" value="" style="strokeColor=#FFFFFF;fillColor=#BAC8D3;fontSize=18;strokeWidth=2;fontFamily=Helvetica;html=1;opacity=60;" parent="1" vertex="1">
          <mxGeometry x="244" y="1130.5" width="646.6666666666666" height="100" as="geometry" />
        </mxCell>
        <mxCell id="71" value="" style="strokeColor=#FFFFFF;fillColor=#BAC8D3;fontSize=18;strokeWidth=2;fontFamily=Helvetica;html=1;opacity=90;" parent="1" vertex="1">
          <mxGeometry x="244" y="1230.5" width="646.6666666666666" height="100" as="geometry" />
        </mxCell>
        <mxCell id="72" value="" style="strokeColor=#FFFFFF;fillColor=#BAC8D3;fontSize=18;strokeWidth=2;fontFamily=Helvetica;html=1;opacity=60;" parent="1" vertex="1">
          <mxGeometry x="244" y="1330.5" width="646.6666666666666" height="100" as="geometry" />
        </mxCell>
        <mxCell id="73" value="" style="strokeColor=#FFFFFF;fillColor=#BAC8D3;fontSize=18;strokeWidth=2;fontFamily=Helvetica;html=1;opacity=90;" parent="1" vertex="1">
          <mxGeometry x="244" y="1430.5" width="646.6666666666666" height="100" as="geometry" />
        </mxCell>
        <mxCell id="74" value="" style="strokeColor=#FFFFFF;fillColor=#BAC8D3;fontSize=18;strokeWidth=2;fontFamily=Helvetica;html=1;opacity=60;" parent="1" vertex="1">
          <mxGeometry x="244" y="1530.5" width="646.6666666666666" height="100" as="geometry" />
        </mxCell>
        <mxCell id="75" value="" style="strokeColor=#FFFFFF;fillColor=#BAC8D3;fontSize=18;strokeWidth=2;fontFamily=Helvetica;html=1;opacity=60;" parent="1" vertex="1">
          <mxGeometry x="890.6666666666666" y="930.5" width="647" height="100" as="geometry" />
        </mxCell>
        <mxCell id="76" value="" style="strokeColor=#FFFFFF;fillColor=#BAC8D3;fontSize=18;strokeWidth=2;fontFamily=Helvetica;html=1;opacity=90;" parent="1" vertex="1">
          <mxGeometry x="890.6666666666666" y="1030.5" width="646.6666666666666" height="100" as="geometry" />
        </mxCell>
        <mxCell id="77" value="" style="strokeColor=#FFFFFF;fillColor=#BAC8D3;fontSize=18;strokeWidth=2;fontFamily=Helvetica;html=1;opacity=60;" parent="1" vertex="1">
          <mxGeometry x="890.6666666666666" y="1130.5" width="646.6666666666666" height="100" as="geometry" />
        </mxCell>
        <mxCell id="78" value="" style="strokeColor=#FFFFFF;fillColor=#BAC8D3;fontSize=18;strokeWidth=2;fontFamily=Helvetica;html=1;opacity=90;" parent="1" vertex="1">
          <mxGeometry x="890.6666666666666" y="1230.5" width="646.6666666666666" height="100" as="geometry" />
        </mxCell>
        <mxCell id="79" value="" style="strokeColor=#FFFFFF;fillColor=#BAC8D3;fontSize=18;strokeWidth=2;fontFamily=Helvetica;html=1;opacity=60;" parent="1" vertex="1">
          <mxGeometry x="890.6666666666666" y="1330.5" width="646.6666666666666" height="100" as="geometry" />
        </mxCell>
        <mxCell id="80" value="" style="strokeColor=#FFFFFF;fillColor=#BAC8D3;fontSize=18;strokeWidth=2;fontFamily=Helvetica;html=1;opacity=90;" parent="1" vertex="1">
          <mxGeometry x="890.6666666666666" y="1430.5" width="646.6666666666666" height="100" as="geometry" />
        </mxCell>
        <mxCell id="81" value="" style="strokeColor=#FFFFFF;fillColor=#BAC8D3;fontSize=18;strokeWidth=2;fontFamily=Helvetica;html=1;opacity=60;fontStyle=4" parent="1" vertex="1">
          <mxGeometry x="890.6666666666666" y="1530.5" width="646.6666666666666" height="100" as="geometry" />
        </mxCell>
        <mxCell id="82" value="" style="strokeColor=#FFFFFF;fillColor=#BAC8D3;fontSize=18;strokeWidth=2;fontFamily=Helvetica;html=1;opacity=60;" parent="1" vertex="1">
          <mxGeometry x="1537.3333333333333" y="930.5" width="647" height="100" as="geometry" />
        </mxCell>
        <mxCell id="83" value="" style="strokeColor=#FFFFFF;fillColor=#BAC8D3;fontSize=18;strokeWidth=2;fontFamily=Helvetica;html=1;opacity=90;" parent="1" vertex="1">
          <mxGeometry x="1537.3333333333333" y="1030.5" width="646.6666666666666" height="100" as="geometry" />
        </mxCell>
        <mxCell id="84" value="" style="strokeColor=#FFFFFF;fillColor=#BAC8D3;fontSize=18;strokeWidth=2;fontFamily=Helvetica;html=1;opacity=60;" parent="1" vertex="1">
          <mxGeometry x="1537.3333333333333" y="1130.5" width="646.6666666666666" height="100" as="geometry" />
        </mxCell>
        <mxCell id="85" value="" style="strokeColor=#FFFFFF;fillColor=#BAC8D3;fontSize=18;strokeWidth=2;fontFamily=Helvetica;html=1;opacity=90;" parent="1" vertex="1">
          <mxGeometry x="1537.3333333333333" y="1230.5" width="646.6666666666666" height="100" as="geometry" />
        </mxCell>
        <mxCell id="86" value="" style="strokeColor=#FFFFFF;fillColor=#BAC8D3;fontSize=18;strokeWidth=2;fontFamily=Helvetica;html=1;opacity=60;" parent="1" vertex="1">
          <mxGeometry x="1537.3333333333333" y="1330.5" width="646.6666666666666" height="100" as="geometry" />
        </mxCell>
        <mxCell id="87" value="" style="strokeColor=#FFFFFF;fillColor=#BAC8D3;fontSize=18;strokeWidth=2;fontFamily=Helvetica;html=1;opacity=90;" parent="1" vertex="1">
          <mxGeometry x="1537.3333333333333" y="1430.5" width="646.6666666666666" height="100" as="geometry" />
        </mxCell>
        <mxCell id="88" value="" style="strokeColor=#FFFFFF;fillColor=#BAC8D3;fontSize=18;strokeWidth=2;fontFamily=Helvetica;html=1;opacity=60;fontStyle=4" parent="1" vertex="1">
          <mxGeometry x="1537.3333333333333" y="1530.5" width="646.6666666666666" height="100" as="geometry" />
        </mxCell>
        <mxCell id="89" style="edgeStyle=orthogonalEdgeStyle;rounded=1;jumpStyle=none;html=1;exitX=1;exitY=0.5;entryX=0;entryY=0.5;labelBackgroundColor=#ffffff;startArrow=none;startFill=0;endArrow=classic;jettySize=auto;orthogonalLoop=1;strokeColor=#0C343D;strokeWidth=3;fontFamily=Helvetica;fontSize=11;fontColor=#000000;" parent="1" source="90" target="92" edge="1">
          <mxGeometry relative="1" as="geometry">
            <Array as="points">
              <mxPoint x="422" y="980.5" />
              <mxPoint x="422" y="1180.5" />
            </Array>
          </mxGeometry>
        </mxCell>
        <mxCell id="90" value="Cadmus" style="rounded=1;fillColor=#23445D;strokeColor=none;strokeWidth=2;fontFamily=Helvetica;html=1;gradientColor=none;fontColor=#FFFFFF;" parent="1" vertex="1">
          <mxGeometry x="270.3945578231293" y="955.5" width="127" height="50" as="geometry" />
        </mxCell>
        <mxCell id="91" value="" style="rounded=1;fillColor=#23445D;strokeColor=none;strokeWidth=2;fontFamily=Helvetica;html=1;gradientColor=none;" parent="1" vertex="1">
          <mxGeometry x="715.9047619047619" y="955.5" width="127" height="50" as="geometry" />
        </mxCell>
        <mxCell id="92" value="Howard" style="rounded=1;fillColor=#23445D;strokeColor=none;strokeWidth=2;fontFamily=Helvetica;html=1;gradientColor=none;fontColor=#FFFFFF;" parent="1" vertex="1">
          <mxGeometry x="478.3537414965986" y="1155.5" width="127" height="50" as="geometry" />
        </mxCell>
        <mxCell id="93" value="" style="rounded=1;fillColor=#23445D;strokeColor=none;strokeWidth=2;fontFamily=Helvetica;html=1;gradientColor=none;" parent="1" vertex="1">
          <mxGeometry x="715.9047619047619" y="1255.5" width="127" height="50" as="geometry" />
        </mxCell>
        <mxCell id="94" value="" style="rounded=1;fillColor=#23445D;strokeColor=none;strokeWidth=2;fontFamily=Helvetica;html=1;gradientColor=none;" parent="1" vertex="1">
          <mxGeometry x="715.9047619047619" y="1355.5" width="127" height="50" as="geometry" />
        </mxCell>
        <mxCell id="95" value="" style="rounded=1;fillColor=#23445D;strokeColor=none;strokeWidth=2;fontFamily=Helvetica;html=1;gradientColor=none;" parent="1" vertex="1">
          <mxGeometry x="478.3537414965986" y="1455.5" width="127" height="50" as="geometry" />
        </mxCell>
        <mxCell id="96" value="" style="rounded=1;fillColor=#23445D;strokeColor=none;strokeWidth=2;fontFamily=Helvetica;html=1;gradientColor=none;" parent="1" vertex="1">
          <mxGeometry x="478.3537414965986" y="1355.5" width="127" height="50" as="geometry" />
        </mxCell>
        <mxCell id="97" value="" style="rounded=1;fillColor=#23445D;strokeColor=none;strokeWidth=2;fontFamily=Helvetica;html=1;gradientColor=none;" parent="1" vertex="1">
          <mxGeometry x="1161.4149659863945" y="1055.5" width="127" height="50" as="geometry" />
        </mxCell>
        <mxCell id="98" value="" style="rounded=1;fillColor=#23445D;strokeColor=none;strokeWidth=2;fontFamily=Helvetica;html=1;gradientColor=none;" parent="1" vertex="1">
          <mxGeometry x="1372.5714285714284" y="955.5" width="127" height="50" as="geometry" />
        </mxCell>
        <mxCell id="99" value="" style="rounded=1;fillColor=#23445D;strokeColor=none;strokeWidth=2;gradientColor=none;fontFamily=Helvetica;html=1;" parent="1" vertex="1">
          <mxGeometry x="2029.2380952380952" y="1455.5" width="127" height="50" as="geometry" />
        </mxCell>
        <mxCell id="100" value="" style="rounded=1;fillColor=#23445D;strokeColor=none;strokeWidth=2;fontFamily=Helvetica;html=1;gradientColor=none;" parent="1" vertex="1">
          <mxGeometry x="1161.4149659863945" y="1255.5" width="127" height="50" as="geometry" />
        </mxCell>
        <mxCell id="101" value="" style="rounded=1;fillColor=#23445D;strokeColor=none;strokeWidth=2;fontFamily=Helvetica;html=1;gradientColor=none;" parent="1" vertex="1">
          <mxGeometry x="1161.4149659863945" y="1555.5" width="127" height="50" as="geometry" />
        </mxCell>
        <mxCell id="102" value="" style="rounded=1;fillColor=#23445D;strokeColor=none;strokeWidth=2;fontFamily=Helvetica;html=1;gradientColor=none;" parent="1" vertex="1">
          <mxGeometry x="940.2585034013605" y="1455.5" width="127" height="50" as="geometry" />
        </mxCell>
        <mxCell id="103" value="" style="rounded=1;fillColor=#23445D;strokeColor=none;strokeWidth=2;fontFamily=Helvetica;html=1;gradientColor=none;" parent="1" vertex="1">
          <mxGeometry x="1161.4149659863945" y="1455.5" width="127" height="50" as="geometry" />
        </mxCell>
        <mxCell id="104" value="" style="rounded=1;fillColor=#23445D;strokeColor=none;strokeWidth=2;fontFamily=Helvetica;html=1;gradientColor=none;" parent="1" vertex="1">
          <mxGeometry x="940.2585034013605" y="1255.5" width="127" height="50" as="geometry" />
        </mxCell>
        <mxCell id="105" value="" style="rounded=1;fillColor=#23445D;strokeColor=none;strokeWidth=2;fontFamily=Helvetica;html=1;gradientColor=none;" parent="1" vertex="1">
          <mxGeometry x="1372.5714285714284" y="1155.5" width="127" height="50" as="geometry" />
        </mxCell>
        <mxCell id="106" value="" style="rounded=1;fillColor=#23445D;strokeColor=none;strokeWidth=2;gradientColor=none;fontFamily=Helvetica;html=1;" parent="1" vertex="1">
          <mxGeometry x="1586.9251700680272" y="1355.5" width="127" height="50" as="geometry" />
        </mxCell>
        <mxCell id="107" value="" style="rounded=1;fillColor=#23445D;strokeColor=none;strokeWidth=2;gradientColor=none;fontFamily=Helvetica;html=1;" parent="1" vertex="1">
          <mxGeometry x="1808.0816326530612" y="1355.5" width="127" height="50" as="geometry" />
        </mxCell>
        <mxCell id="108" value="" style="rounded=1;fillColor=#23445D;strokeColor=none;strokeWidth=2;gradientColor=none;fontFamily=Helvetica;html=1;" parent="1" vertex="1">
          <mxGeometry x="1573.7278911564624" y="1055.5" width="127" height="50" as="geometry" />
        </mxCell>
        <mxCell id="109" value="" style="rounded=1;fillColor=#23445D;strokeColor=none;strokeWidth=2;gradientColor=none;fontFamily=Helvetica;html=1;" parent="1" vertex="1">
          <mxGeometry x="1586.9251700680272" y="1455.5" width="127" height="50" as="geometry" />
        </mxCell>
        <mxCell id="110" value="" style="rounded=1;fillColor=#23445D;strokeColor=none;strokeWidth=2;gradientColor=none;fontFamily=Helvetica;html=1;" parent="1" vertex="1">
          <mxGeometry x="1808.0816326530612" y="1555.5" width="127" height="50" as="geometry" />
        </mxCell>
        <mxCell id="111" value="" style="rounded=1;fillColor=#23445D;strokeColor=none;strokeWidth=2;gradientColor=none;fontFamily=Helvetica;html=1;" parent="1" vertex="1">
          <mxGeometry x="1808.0816326530612" y="955.5" width="127" height="50" as="geometry" />
        </mxCell>
        <mxCell id="112" value="" style="edgeStyle=elbowEdgeStyle;elbow=horizontal;strokeWidth=3;strokeColor=#0C343D;fontFamily=Helvetica;html=1;" parent="1" source="90" target="96" edge="1">
          <mxGeometry x="6.448979591836746" y="830.5" width="131.97278911564624" height="100" as="geometry">
            <mxPoint x="6.448979591836746" y="930.5" as="sourcePoint" />
            <mxPoint x="138.421768707483" y="830.5" as="targetPoint" />
            <Array as="points">
              <mxPoint x="422" y="1193.5" />
            </Array>
          </mxGeometry>
        </mxCell>
        <mxCell id="113" value="" style="edgeStyle=elbowEdgeStyle;elbow=horizontal;strokeWidth=3;strokeColor=#0C343D;fontFamily=Helvetica;html=1;" parent="1" source="90" target="95" edge="1">
          <mxGeometry x="6.448979591836746" y="830.5" width="131.97278911564624" height="100" as="geometry">
            <mxPoint x="6.448979591836746" y="930.5" as="sourcePoint" />
            <mxPoint x="138.421768707483" y="830.5" as="targetPoint" />
            <Array as="points">
              <mxPoint x="422" y="1102.5" />
            </Array>
          </mxGeometry>
        </mxCell>
        <mxCell id="114" value="" style="edgeStyle=elbowEdgeStyle;elbow=horizontal;strokeWidth=3;strokeColor=#0C343D;fontFamily=Helvetica;html=1;" parent="1" source="92" target="91" edge="1">
          <mxGeometry x="6.448979591836746" y="830.5" width="131.97278911564624" height="100" as="geometry">
            <mxPoint x="6.448979591836746" y="930.5" as="sourcePoint" />
            <mxPoint x="138.421768707483" y="830.5" as="targetPoint" />
          </mxGeometry>
        </mxCell>
        <mxCell id="115" value="" style="edgeStyle=elbowEdgeStyle;elbow=horizontal;strokeWidth=3;strokeColor=#0C343D;fontFamily=Helvetica;html=1;" parent="1" source="92" target="93" edge="1">
          <mxGeometry x="6.448979591836746" y="830.5" width="131.97278911564624" height="100" as="geometry">
            <mxPoint x="6.448979591836746" y="930.5" as="sourcePoint" />
            <mxPoint x="138.421768707483" y="830.5" as="targetPoint" />
          </mxGeometry>
        </mxCell>
        <mxCell id="116" value="" style="edgeStyle=elbowEdgeStyle;elbow=horizontal;strokeWidth=3;strokeColor=#0C343D;fontFamily=Helvetica;html=1;" parent="1" source="96" target="93" edge="1">
          <mxGeometry x="6.448979591836746" y="830.5" width="131.97278911564624" height="100" as="geometry">
            <mxPoint x="6.448979591836746" y="930.5" as="sourcePoint" />
            <mxPoint x="138.421768707483" y="830.5" as="targetPoint" />
          </mxGeometry>
        </mxCell>
        <mxCell id="117" value="" style="edgeStyle=elbowEdgeStyle;elbow=horizontal;strokeWidth=3;strokeColor=#0C343D;fontFamily=Helvetica;html=1;" parent="1" source="96" target="94" edge="1">
          <mxGeometry x="6.448979591836746" y="830.5" width="131.97278911564624" height="100" as="geometry">
            <mxPoint x="6.448979591836746" y="930.5" as="sourcePoint" />
            <mxPoint x="138.421768707483" y="830.5" as="targetPoint" />
          </mxGeometry>
        </mxCell>
        <mxCell id="118" value="" style="edgeStyle=elbowEdgeStyle;elbow=horizontal;strokeWidth=3;strokeColor=#0C343D;fontFamily=Helvetica;html=1;" parent="1" source="95" target="94" edge="1">
          <mxGeometry x="6.448979591836746" y="830.5" width="131.97278911564624" height="100" as="geometry">
            <mxPoint x="6.448979591836746" y="930.5" as="sourcePoint" />
            <mxPoint x="138.421768707483" y="830.5" as="targetPoint" />
            <Array as="points">
              <mxPoint x="668.952380952381" y="1434.5" />
            </Array>
          </mxGeometry>
        </mxCell>
        <mxCell id="119" value="" style="edgeStyle=elbowEdgeStyle;elbow=horizontal;strokeWidth=3;strokeColor=#0C343D;fontFamily=Helvetica;html=1;" parent="1" source="91" target="97" edge="1">
          <mxGeometry x="6.448979591836746" y="830.5" width="131.97278911564624" height="100" as="geometry">
            <mxPoint x="6.448979591836746" y="930.5" as="sourcePoint" />
            <mxPoint x="138.421768707483" y="830.5" as="targetPoint" />
          </mxGeometry>
        </mxCell>
        <mxCell id="120" value="" style="edgeStyle=elbowEdgeStyle;elbow=horizontal;strokeWidth=3;strokeColor=#0C343D;fontFamily=Helvetica;html=1;" parent="1" source="93" target="104" edge="1">
          <mxGeometry x="6.448979591836746" y="830.5" width="131.97278911564624" height="100" as="geometry">
            <mxPoint x="6.448979591836746" y="930.5" as="sourcePoint" />
            <mxPoint x="138.421768707483" y="830.5" as="targetPoint" />
          </mxGeometry>
        </mxCell>
        <mxCell id="121" value="" style="edgeStyle=elbowEdgeStyle;elbow=horizontal;strokeWidth=3;strokeColor=#0C343D;fontFamily=Helvetica;html=1;" parent="1" source="104" target="100" edge="1">
          <mxGeometry x="6.448979591836746" y="830.5" width="131.97278911564624" height="100" as="geometry">
            <mxPoint x="6.448979591836746" y="930.5" as="sourcePoint" />
            <mxPoint x="138.421768707483" y="830.5" as="targetPoint" />
          </mxGeometry>
        </mxCell>
        <mxCell id="122" value="" style="edgeStyle=elbowEdgeStyle;elbow=horizontal;strokeWidth=3;strokeColor=#0C343D;fontFamily=Helvetica;html=1;" parent="1" source="91" target="98" edge="1">
          <mxGeometry x="6.448979591836746" y="830.5" width="131.97278911564624" height="100" as="geometry">
            <mxPoint x="6.448979591836746" y="930.5" as="sourcePoint" />
            <mxPoint x="138.421768707483" y="830.5" as="targetPoint" />
          </mxGeometry>
        </mxCell>
        <mxCell id="123" value="" style="edgeStyle=elbowEdgeStyle;elbow=horizontal;strokeWidth=3;strokeColor=#0C343D;fontFamily=Helvetica;html=1;" parent="1" source="94" target="102" edge="1">
          <mxGeometry x="6.448979591836746" y="830.5" width="131.97278911564624" height="100" as="geometry">
            <mxPoint x="6.448979591836746" y="930.5" as="sourcePoint" />
            <mxPoint x="138.421768707483" y="830.5" as="targetPoint" />
            <Array as="points">
              <mxPoint x="877.4693877551019" y="1430.5" />
            </Array>
          </mxGeometry>
        </mxCell>
        <mxCell id="124" value="" style="edgeStyle=elbowEdgeStyle;elbow=horizontal;strokeWidth=3;strokeColor=#0C343D;fontFamily=Helvetica;html=1;" parent="1" source="102" target="103" edge="1">
          <mxGeometry x="6.448979591836746" y="830.5" width="131.97278911564624" height="100" as="geometry">
            <mxPoint x="6.448979591836746" y="930.5" as="sourcePoint" />
            <mxPoint x="138.421768707483" y="830.5" as="targetPoint" />
          </mxGeometry>
        </mxCell>
        <mxCell id="125" value="" style="edgeStyle=elbowEdgeStyle;elbow=horizontal;strokeWidth=3;strokeColor=#0C343D;fontFamily=Helvetica;html=1;" parent="1" source="102" target="101" edge="1">
          <mxGeometry x="6.448979591836746" y="830.5" width="131.97278911564624" height="100" as="geometry">
            <mxPoint x="6.448979591836746" y="930.5" as="sourcePoint" />
            <mxPoint x="138.421768707483" y="830.5" as="targetPoint" />
          </mxGeometry>
        </mxCell>
        <mxCell id="126" value="" style="edgeStyle=elbowEdgeStyle;elbow=horizontal;strokeWidth=3;strokeColor=#0C343D;fontFamily=Helvetica;html=1;" parent="1" source="101" target="110" edge="1">
          <mxGeometry x="6.448979591836746" y="830.5" width="131.97278911564624" height="100" as="geometry">
            <mxPoint x="6.448979591836746" y="930.5" as="sourcePoint" />
            <mxPoint x="138.421768707483" y="830.5" as="targetPoint" />
          </mxGeometry>
        </mxCell>
        <mxCell id="127" value="" style="edgeStyle=elbowEdgeStyle;elbow=horizontal;strokeWidth=3;strokeColor=#0C343D;fontFamily=Helvetica;html=1;" parent="1" source="110" target="99" edge="1">
          <mxGeometry x="6.448979591836746" y="830.5" width="131.97278911564624" height="100" as="geometry">
            <mxPoint x="6.448979591836746" y="930.5" as="sourcePoint" />
            <mxPoint x="138.421768707483" y="830.5" as="targetPoint" />
          </mxGeometry>
        </mxCell>
        <mxCell id="128" value="" style="edgeStyle=elbowEdgeStyle;elbow=horizontal;strokeWidth=3;strokeColor=#0C343D;fontFamily=Helvetica;html=1;" parent="1" source="108" target="99" edge="1">
          <mxGeometry x="6.448979591836746" y="830.5" width="131.97278911564624" height="100" as="geometry">
            <mxPoint x="6.448979591836746" y="930.5" as="sourcePoint" />
            <mxPoint x="138.421768707483" y="830.5" as="targetPoint" />
            <Array as="points">
              <mxPoint x="1776" y="1280.5" />
            </Array>
          </mxGeometry>
        </mxCell>
        <mxCell id="129" value="" style="edgeStyle=elbowEdgeStyle;elbow=horizontal;strokeWidth=3;strokeColor=#0C343D;fontFamily=Helvetica;html=1;" parent="1" source="109" target="110" edge="1">
          <mxGeometry x="6.448979591836746" y="830.5" width="131.97278911564624" height="100" as="geometry">
            <mxPoint x="6.448979591836746" y="930.5" as="sourcePoint" />
            <mxPoint x="138.421768707483" y="830.5" as="targetPoint" />
          </mxGeometry>
        </mxCell>
        <mxCell id="130" value="" style="edgeStyle=elbowEdgeStyle;elbow=horizontal;strokeWidth=3;strokeColor=#0C343D;fontFamily=Helvetica;html=1;" parent="1" source="103" target="106" edge="1">
          <mxGeometry x="6.448979591836746" y="830.5" width="131.97278911564624" height="100" as="geometry">
            <mxPoint x="6.448979591836746" y="930.5" as="sourcePoint" />
            <mxPoint x="138.421768707483" y="830.5" as="targetPoint" />
          </mxGeometry>
        </mxCell>
        <mxCell id="131" value="" style="edgeStyle=elbowEdgeStyle;elbow=horizontal;strokeWidth=3;strokeColor=#0C343D;fontFamily=Helvetica;html=1;" parent="1" source="103" target="109" edge="1">
          <mxGeometry x="6.448979591836746" y="830.5" width="131.97278911564624" height="100" as="geometry">
            <mxPoint x="6.448979591836746" y="930.5" as="sourcePoint" />
            <mxPoint x="138.421768707483" y="830.5" as="targetPoint" />
          </mxGeometry>
        </mxCell>
        <mxCell id="132" value="" style="edgeStyle=elbowEdgeStyle;elbow=horizontal;strokeWidth=3;strokeColor=#0C343D;fontFamily=Helvetica;html=1;" parent="1" source="100" target="105" edge="1">
          <mxGeometry x="6.448979591836746" y="830.5" width="131.97278911564624" height="100" as="geometry">
            <mxPoint x="6.448979591836746" y="930.5" as="sourcePoint" />
            <mxPoint x="138.421768707483" y="830.5" as="targetPoint" />
          </mxGeometry>
        </mxCell>
        <mxCell id="133" value="" style="edgeStyle=elbowEdgeStyle;elbow=horizontal;strokeWidth=3;strokeColor=#0C343D;fontFamily=Helvetica;html=1;" parent="1" source="97" target="108" edge="1">
          <mxGeometry x="6.448979591836746" y="830.5" width="131.97278911564624" height="100" as="geometry">
            <mxPoint x="6.448979591836746" y="930.5" as="sourcePoint" />
            <mxPoint x="138.421768707483" y="830.5" as="targetPoint" />
          </mxGeometry>
        </mxCell>
        <mxCell id="134" value="" style="edgeStyle=elbowEdgeStyle;elbow=horizontal;strokeWidth=3;strokeColor=#0C343D;fontFamily=Helvetica;html=1;" parent="1" source="98" target="108" edge="1">
          <mxGeometry x="6.448979591836746" y="830.5" width="131.97278911564624" height="100" as="geometry">
            <mxPoint x="6.448979591836746" y="930.5" as="sourcePoint" />
            <mxPoint x="138.421768707483" y="830.5" as="targetPoint" />
            <Array as="points">
              <mxPoint x="1524.1360544217687" y="1030.5" />
            </Array>
          </mxGeometry>
        </mxCell>
        <mxCell id="135" value="" style="edgeStyle=elbowEdgeStyle;elbow=horizontal;strokeWidth=3;strokeColor=#0C343D;fontFamily=Helvetica;html=1;" parent="1" source="98" target="111" edge="1">
          <mxGeometry x="6.448979591836746" y="830.5" width="131.97278911564624" height="100" as="geometry">
            <mxPoint x="6.448979591836746" y="930.5" as="sourcePoint" />
            <mxPoint x="138.421768707483" y="830.5" as="targetPoint" />
          </mxGeometry>
        </mxCell>
        <mxCell id="136" value="" style="edgeStyle=elbowEdgeStyle;elbow=horizontal;strokeWidth=3;strokeColor=#0C343D;fontFamily=Helvetica;html=1;" parent="1" source="111" target="99" edge="1">
          <mxGeometry x="6.448979591836746" y="830.5" width="131.97278911564624" height="100" as="geometry">
            <mxPoint x="6.448979591836746" y="930.5" as="sourcePoint" />
            <mxPoint x="138.421768707483" y="830.5" as="targetPoint" />
          </mxGeometry>
        </mxCell>
        <mxCell id="137" value="" style="edgeStyle=elbowEdgeStyle;elbow=horizontal;strokeWidth=3;strokeColor=#0C343D;fontFamily=Helvetica;html=1;" parent="1" source="107" target="99" edge="1">
          <mxGeometry x="6.448979591836746" y="830.5" width="131.97278911564624" height="100" as="geometry">
            <mxPoint x="6.448979591836746" y="930.5" as="sourcePoint" />
            <mxPoint x="138.421768707483" y="830.5" as="targetPoint" />
          </mxGeometry>
        </mxCell>
        <mxCell id="138" value="" style="edgeStyle=elbowEdgeStyle;elbow=horizontal;strokeWidth=3;strokeColor=#0C343D;fontFamily=Helvetica;html=1;" parent="1" source="106" target="107" edge="1">
          <mxGeometry x="6.448979591836746" y="830.5" width="131.97278911564624" height="100" as="geometry">
            <mxPoint x="6.448979591836746" y="930.5" as="sourcePoint" />
            <mxPoint x="138.421768707483" y="830.5" as="targetPoint" />
          </mxGeometry>
        </mxCell>
        <mxCell id="139" value="" style="edgeStyle=elbowEdgeStyle;elbow=horizontal;strokeWidth=3;strokeColor=#0C343D;fontFamily=Helvetica;html=1;" parent="1" source="105" target="106" edge="1">
          <mxGeometry x="6.448979591836746" y="830.5" width="131.97278911564624" height="100" as="geometry">
            <mxPoint x="6.448979591836746" y="930.5" as="sourcePoint" />
            <mxPoint x="138.421768707483" y="830.5" as="targetPoint" />
            <Array as="points">
              <mxPoint x="1524.1360544217687" y="1280.5" />
            </Array>
          </mxGeometry>
        </mxCell>
        <mxCell id="140" value="" style="group" parent="1" vertex="1" connectable="0">
          <mxGeometry x="244" y="890.5" width="646.6666666666666" height="40" as="geometry" />
        </mxCell>
        <mxCell id="141" value="頁面設計" style="strokeColor=#BAC8D3;fillColor=#5d7f99;fontSize=19;strokeWidth=2;fontFamily=Helvetica;html=1;labelBackgroundColor=none;fontColor=#FFFFFF;" parent="140" vertex="1">
          <mxGeometry width="646.6656362699642" height="40" as="geometry" />
        </mxCell>
        <mxCell id="142" value="Milestone 2" style="strokeColor=#BAC8D3;fillColor=#5d7f99;fontSize=19;strokeWidth=2;fontFamily=Helvetica;html=1;labelBackgroundColor=none;fontColor=#FFFFFF;" parent="140" vertex="1">
          <mxGeometry x="646.6656362699642" width="646.6656362699642" height="40" as="geometry" />
        </mxCell>
        <mxCell id="143" value="Milestone 3" style="strokeColor=#BAC8D3;fillColor=#5d7f99;fontSize=19;strokeWidth=2;fontFamily=Helvetica;html=1;labelBackgroundColor=none;fontColor=#FFFFFF;" parent="140" vertex="1">
          <mxGeometry x="1293.3312725399282" width="646.6666666666666" height="40" as="geometry" />
        </mxCell>
        <mxCell id="UtvhyVLNDK4xBIFaIUeJ-143" value="Lane 3.2" style="strokeColor=#BAC8D3;fillColor=#5d7f99;fontSize=19;strokeWidth=2;horizontal=0;fontFamily=Helvetica;html=1;labelBackgroundColor=none;fontColor=#FFFFFF;" parent="1" vertex="1">
          <mxGeometry x="204" y="1730.5" width="40" height="100" as="geometry" />
        </mxCell>
        <mxCell id="UtvhyVLNDK4xBIFaIUeJ-144" value="Lane 3.1" style="strokeColor=#BAC8D3;fillColor=#5d7f99;fontSize=19;strokeWidth=2;horizontal=0;fontFamily=Helvetica;html=1;labelBackgroundColor=none;fontColor=#FFFFFF;" parent="1" vertex="1">
          <mxGeometry x="204" y="1630.5" width="40" height="100" as="geometry" />
        </mxCell>
        <mxCell id="UtvhyVLNDK4xBIFaIUeJ-145" value="儲值功能" style="strokeColor=#BAC8D3;fillColor=#23445D;fontSize=24;strokeWidth=2;horizontal=0;fontFamily=Helvetica;html=1;fontColor=#FFFFFF;fontStyle=0" parent="1" vertex="1">
          <mxGeometry x="154" y="1630.5" width="50" height="200" as="geometry" />
        </mxCell>
        <mxCell id="UtvhyVLNDK4xBIFaIUeJ-146" value="" style="strokeColor=#FFFFFF;fillColor=#BAC8D3;fontSize=18;strokeWidth=2;fontFamily=Helvetica;html=1;opacity=90;" parent="1" vertex="1">
          <mxGeometry x="244" y="1630.5" width="646.6666666666666" height="100" as="geometry" />
        </mxCell>
        <mxCell id="UtvhyVLNDK4xBIFaIUeJ-147" value="" style="strokeColor=#FFFFFF;fillColor=#BAC8D3;fontSize=18;strokeWidth=2;fontFamily=Helvetica;html=1;opacity=60;" parent="1" vertex="1">
          <mxGeometry x="244" y="1730.5" width="646.6666666666666" height="100" as="geometry" />
        </mxCell>
        <mxCell id="UtvhyVLNDK4xBIFaIUeJ-148" value="" style="strokeColor=#FFFFFF;fillColor=#BAC8D3;fontSize=18;strokeWidth=2;fontFamily=Helvetica;html=1;opacity=90;" parent="1" vertex="1">
          <mxGeometry x="890.6666666666666" y="1630.5" width="646.6666666666666" height="100" as="geometry" />
        </mxCell>
        <mxCell id="UtvhyVLNDK4xBIFaIUeJ-149" value="" style="strokeColor=#FFFFFF;fillColor=#BAC8D3;fontSize=18;strokeWidth=2;fontFamily=Helvetica;html=1;opacity=60;fontStyle=4" parent="1" vertex="1">
          <mxGeometry x="890.6666666666666" y="1730.5" width="646.6666666666666" height="100" as="geometry" />
        </mxCell>
        <mxCell id="UtvhyVLNDK4xBIFaIUeJ-150" value="" style="strokeColor=#FFFFFF;fillColor=#BAC8D3;fontSize=18;strokeWidth=2;fontFamily=Helvetica;html=1;opacity=90;" parent="1" vertex="1">
          <mxGeometry x="1537.3333333333333" y="1630.5" width="646.6666666666666" height="100" as="geometry" />
        </mxCell>
        <mxCell id="UtvhyVLNDK4xBIFaIUeJ-151" value="" style="strokeColor=#FFFFFF;fillColor=#BAC8D3;fontSize=18;strokeWidth=2;fontFamily=Helvetica;html=1;opacity=60;fontStyle=4" parent="1" vertex="1">
          <mxGeometry x="1537.3333333333333" y="1730.5" width="646.6666666666666" height="100" as="geometry" />
        </mxCell>
        <mxCell id="UtvhyVLNDK4xBIFaIUeJ-152" value="Lane 3.2" style="strokeColor=#BAC8D3;fillColor=#5d7f99;fontSize=19;strokeWidth=2;horizontal=0;fontFamily=Helvetica;html=1;labelBackgroundColor=none;fontColor=#FFFFFF;" parent="1" vertex="1">
          <mxGeometry x="204" y="1930.5" width="40" height="100" as="geometry" />
        </mxCell>
        <mxCell id="UtvhyVLNDK4xBIFaIUeJ-153" value="Lane 3.1" style="strokeColor=#BAC8D3;fillColor=#5d7f99;fontSize=19;strokeWidth=2;horizontal=0;fontFamily=Helvetica;html=1;labelBackgroundColor=none;fontColor=#FFFFFF;" parent="1" vertex="1">
          <mxGeometry x="204" y="1830.5" width="40" height="100" as="geometry" />
        </mxCell>
        <mxCell id="UtvhyVLNDK4xBIFaIUeJ-154" value="會員功能" style="strokeColor=#BAC8D3;fillColor=#23445D;fontSize=24;strokeWidth=2;horizontal=0;fontFamily=Helvetica;html=1;fontColor=#FFFFFF;fontStyle=0" parent="1" vertex="1">
          <mxGeometry x="154" y="1830.5" width="50" height="200" as="geometry" />
        </mxCell>
        <mxCell id="UtvhyVLNDK4xBIFaIUeJ-155" value="" style="strokeColor=#FFFFFF;fillColor=#BAC8D3;fontSize=18;strokeWidth=2;fontFamily=Helvetica;html=1;opacity=90;" parent="1" vertex="1">
          <mxGeometry x="244" y="1830.5" width="646.6666666666666" height="100" as="geometry" />
        </mxCell>
        <mxCell id="UtvhyVLNDK4xBIFaIUeJ-156" value="" style="strokeColor=#FFFFFF;fillColor=#BAC8D3;fontSize=18;strokeWidth=2;fontFamily=Helvetica;html=1;opacity=60;" parent="1" vertex="1">
          <mxGeometry x="244" y="1930.5" width="646.6666666666666" height="100" as="geometry" />
        </mxCell>
        <mxCell id="UtvhyVLNDK4xBIFaIUeJ-157" value="" style="strokeColor=#FFFFFF;fillColor=#BAC8D3;fontSize=18;strokeWidth=2;fontFamily=Helvetica;html=1;opacity=90;" parent="1" vertex="1">
          <mxGeometry x="890.6666666666666" y="1830" width="646.6666666666666" height="100" as="geometry" />
        </mxCell>
        <mxCell id="UtvhyVLNDK4xBIFaIUeJ-158" value="" style="strokeColor=#FFFFFF;fillColor=#BAC8D3;fontSize=18;strokeWidth=2;fontFamily=Helvetica;html=1;opacity=60;fontStyle=4" parent="1" vertex="1">
          <mxGeometry x="890.6666666666666" y="1930" width="646.6666666666666" height="100" as="geometry" />
        </mxCell>
        <mxCell id="UtvhyVLNDK4xBIFaIUeJ-159" value="" style="strokeColor=#FFFFFF;fillColor=#BAC8D3;fontSize=18;strokeWidth=2;fontFamily=Helvetica;html=1;opacity=90;" parent="1" vertex="1">
          <mxGeometry x="1537.3333333333333" y="1830" width="646.6666666666666" height="100" as="geometry" />
        </mxCell>
        <mxCell id="UtvhyVLNDK4xBIFaIUeJ-160" value="" style="strokeColor=#FFFFFF;fillColor=#BAC8D3;fontSize=18;strokeWidth=2;fontFamily=Helvetica;html=1;opacity=60;fontStyle=4" parent="1" vertex="1">
          <mxGeometry x="1537.3333333333333" y="1930" width="646.6666666666666" height="100" as="geometry" />
        </mxCell>
        <mxCell id="UtvhyVLNDK4xBIFaIUeJ-161" value="Lane 3.2" style="strokeColor=#BAC8D3;fillColor=#5d7f99;fontSize=19;strokeWidth=2;horizontal=0;fontFamily=Helvetica;html=1;labelBackgroundColor=none;fontColor=#FFFFFF;" parent="1" vertex="1">
          <mxGeometry x="204.33" y="2130.5" width="40" height="100" as="geometry" />
        </mxCell>
        <mxCell id="UtvhyVLNDK4xBIFaIUeJ-162" value="Lane 3.1" style="strokeColor=#BAC8D3;fillColor=#5d7f99;fontSize=19;strokeWidth=2;horizontal=0;fontFamily=Helvetica;html=1;labelBackgroundColor=none;fontColor=#FFFFFF;" parent="1" vertex="1">
          <mxGeometry x="204.33" y="2030.5" width="40" height="100" as="geometry" />
        </mxCell>
        <mxCell id="UtvhyVLNDK4xBIFaIUeJ-163" value="後台功能" style="strokeColor=#BAC8D3;fillColor=#23445D;fontSize=24;strokeWidth=2;horizontal=0;fontFamily=Helvetica;html=1;fontColor=#FFFFFF;fontStyle=0" parent="1" vertex="1">
          <mxGeometry x="154.33" y="2030.5" width="50" height="200" as="geometry" />
        </mxCell>
        <mxCell id="UtvhyVLNDK4xBIFaIUeJ-164" value="" style="strokeColor=#FFFFFF;fillColor=#BAC8D3;fontSize=18;strokeWidth=2;fontFamily=Helvetica;html=1;opacity=60;" parent="1" vertex="1">
          <mxGeometry x="244.33" y="2130.5" width="646.6666666666666" height="100" as="geometry" />
        </mxCell>
        <mxCell id="UtvhyVLNDK4xBIFaIUeJ-165" value="" style="strokeColor=#FFFFFF;fillColor=#BAC8D3;fontSize=18;strokeWidth=2;fontFamily=Helvetica;html=1;opacity=90;" parent="1" vertex="1">
          <mxGeometry x="890.6666666666666" y="2030.5" width="646.6666666666666" height="100" as="geometry" />
        </mxCell>
        <mxCell id="UtvhyVLNDK4xBIFaIUeJ-166" value="" style="strokeColor=#FFFFFF;fillColor=#BAC8D3;fontSize=18;strokeWidth=2;fontFamily=Helvetica;html=1;opacity=60;fontStyle=4" parent="1" vertex="1">
          <mxGeometry x="890.6666666666666" y="2130.5" width="646.6666666666666" height="100" as="geometry" />
        </mxCell>
        <mxCell id="UtvhyVLNDK4xBIFaIUeJ-167" value="" style="strokeColor=#FFFFFF;fillColor=#BAC8D3;fontSize=18;strokeWidth=2;fontFamily=Helvetica;html=1;opacity=90;" parent="1" vertex="1">
          <mxGeometry x="1537.3333333333333" y="2030.5" width="646.6666666666666" height="100" as="geometry" />
        </mxCell>
        <mxCell id="UtvhyVLNDK4xBIFaIUeJ-168" value="" style="strokeColor=#FFFFFF;fillColor=#BAC8D3;fontSize=18;strokeWidth=2;fontFamily=Helvetica;html=1;opacity=60;fontStyle=4" parent="1" vertex="1">
          <mxGeometry x="1537.3333333333333" y="2130.5" width="646.6666666666666" height="100" as="geometry" />
        </mxCell>
        <mxCell id="UtvhyVLNDK4xBIFaIUeJ-169" value="" style="strokeColor=#FFFFFF;fillColor=#BAC8D3;fontSize=18;strokeWidth=2;fontFamily=Helvetica;html=1;opacity=90;" parent="1" vertex="1">
          <mxGeometry x="244" y="2030.5" width="646.6666666666666" height="100" as="geometry" />
        </mxCell>
        <mxCell id="UtvhyVLNDK4xBIFaIUeJ-170" value="" style="rounded=1;fillColor=#23445D;strokeColor=none;strokeWidth=2;fontFamily=Helvetica;html=1;gradientColor=none;" parent="1" vertex="1">
          <mxGeometry x="478.3537414965986" y="1655.5" width="127" height="50" as="geometry" />
        </mxCell>
        <mxCell id="UtvhyVLNDK4xBIFaIUeJ-171" value="" style="rounded=1;fillColor=#23445D;strokeColor=none;strokeWidth=2;fontFamily=Helvetica;html=1;gradientColor=none;" parent="1" vertex="1">
          <mxGeometry x="478.3537414965986" y="1855.5" width="127" height="50" as="geometry" />
        </mxCell>
        <mxCell id="UtvhyVLNDK4xBIFaIUeJ-172" value="" style="rounded=1;fillColor=#23445D;strokeColor=none;strokeWidth=2;fontFamily=Helvetica;html=1;gradientColor=none;" parent="1" vertex="1">
          <mxGeometry x="478.3537414965986" y="2055.5" width="127" height="50" as="geometry" />
        </mxCell>
      </root>
    </mxGraphModel>
  </diagram>
  <diagram id="WwNLCEWZyA4B30mPfyfa" name="sitemap">
    <mxGraphModel dx="1422" dy="780" grid="1" gridSize="10" guides="1" tooltips="1" connect="1" arrows="1" fold="1" page="1" pageScale="1" pageWidth="827" pageHeight="1169" math="0" shadow="0">
      <root>
        <mxCell id="KaW1TfqJIeAFHNLuegCc-0" />
        <mxCell id="KaW1TfqJIeAFHNLuegCc-1" parent="KaW1TfqJIeAFHNLuegCc-0" />
        <mxCell id="2GPcoaCJw0jkzkUdtnLj-102" value="圖例說明" style="rounded=0;whiteSpace=wrap;html=1;strokeColor=#000000;verticalAlign=top;fontSize=32;" parent="KaW1TfqJIeAFHNLuegCc-1" vertex="1">
          <mxGeometry x="10" y="30" width="150" height="740" as="geometry" />
        </mxCell>
        <mxCell id="jJl6HKamd_gqL-oOaHwr-129" value="" style="rounded=1;whiteSpace=wrap;html=1;fillColor=#f8cecc;strokeColor=#b85450;fontSize=18;" parent="KaW1TfqJIeAFHNLuegCc-1" vertex="1">
          <mxGeometry x="1070" y="470" width="370" height="340" as="geometry" />
        </mxCell>
        <mxCell id="jJl6HKamd_gqL-oOaHwr-131" style="edgeStyle=orthogonalEdgeStyle;rounded=0;orthogonalLoop=1;jettySize=auto;html=1;exitX=0.5;exitY=1;exitDx=0;exitDy=0;entryX=0.5;entryY=0;entryDx=0;entryDy=0;fontSize=18;" parent="KaW1TfqJIeAFHNLuegCc-1" source="jJl6HKamd_gqL-oOaHwr-128" target="jJl6HKamd_gqL-oOaHwr-129" edge="1">
          <mxGeometry relative="1" as="geometry" />
        </mxCell>
        <mxCell id="jJl6HKamd_gqL-oOaHwr-128" value="" style="rounded=1;whiteSpace=wrap;html=1;fillColor=#fff2cc;strokeColor=#d6b656;fontSize=18;" parent="KaW1TfqJIeAFHNLuegCc-1" vertex="1">
          <mxGeometry x="1070" y="270" width="170" height="130" as="geometry" />
        </mxCell>
        <mxCell id="KaW1TfqJIeAFHNLuegCc-2" value="頁面" style="rounded=1;whiteSpace=wrap;html=1;fillColor=#f5f5f5;fontColor=#333333;strokeColor=#666666;fontSize=18;" parent="KaW1TfqJIeAFHNLuegCc-1" vertex="1">
          <mxGeometry x="25" y="130" width="120" height="60" as="geometry" />
        </mxCell>
        <mxCell id="KaW1TfqJIeAFHNLuegCc-3" value="選單" style="rounded=1;whiteSpace=wrap;html=1;fillColor=#dae8fc;strokeColor=#6c8ebf;fontSize=18;" parent="KaW1TfqJIeAFHNLuegCc-1" vertex="1">
          <mxGeometry x="840" y="30" width="120" height="60" as="geometry" />
        </mxCell>
        <mxCell id="KaW1TfqJIeAFHNLuegCc-4" value="燈箱視窗" style="rounded=1;whiteSpace=wrap;html=1;fillColor=#d5e8d4;strokeColor=#82b366;fontSize=18;" parent="KaW1TfqJIeAFHNLuegCc-1" vertex="1">
          <mxGeometry x="25" y="310" width="120" height="60" as="geometry" />
        </mxCell>
        <mxCell id="KaW1TfqJIeAFHNLuegCc-5" value="頁籤" style="rounded=1;whiteSpace=wrap;html=1;fillColor=#ffe6cc;strokeColor=#d79b00;fontSize=18;" parent="KaW1TfqJIeAFHNLuegCc-1" vertex="1">
          <mxGeometry x="25" y="400" width="120" height="60" as="geometry" />
        </mxCell>
        <mxCell id="KaW1TfqJIeAFHNLuegCc-6" value="功能" style="rounded=1;whiteSpace=wrap;html=1;fillColor=#fff2cc;strokeColor=#d6b656;fontSize=18;" parent="KaW1TfqJIeAFHNLuegCc-1" vertex="1">
          <mxGeometry x="25" y="500" width="120" height="60" as="geometry" />
        </mxCell>
        <mxCell id="KaW1TfqJIeAFHNLuegCc-8" value="遊戲(首頁)" style="rounded=1;whiteSpace=wrap;html=1;fillColor=#f5f5f5;strokeColor=#666666;fontSize=18;fontColor=#333333;" parent="KaW1TfqJIeAFHNLuegCc-1" vertex="1">
          <mxGeometry x="180" y="180" width="120" height="60" as="geometry" />
        </mxCell>
        <mxCell id="jJl6HKamd_gqL-oOaHwr-28" style="edgeStyle=orthogonalEdgeStyle;rounded=0;orthogonalLoop=1;jettySize=auto;html=1;exitX=0.5;exitY=1;exitDx=0;exitDy=0;entryX=0;entryY=0.5;entryDx=0;entryDy=0;fontSize=18;" parent="KaW1TfqJIeAFHNLuegCc-1" source="KaW1TfqJIeAFHNLuegCc-9" target="jJl6HKamd_gqL-oOaHwr-16" edge="1">
          <mxGeometry relative="1" as="geometry" />
        </mxCell>
        <mxCell id="jJl6HKamd_gqL-oOaHwr-29" style="edgeStyle=orthogonalEdgeStyle;rounded=0;orthogonalLoop=1;jettySize=auto;html=1;exitX=0.5;exitY=1;exitDx=0;exitDy=0;entryX=0;entryY=0.5;entryDx=0;entryDy=0;fontSize=18;" parent="KaW1TfqJIeAFHNLuegCc-1" source="KaW1TfqJIeAFHNLuegCc-9" target="jJl6HKamd_gqL-oOaHwr-18" edge="1">
          <mxGeometry relative="1" as="geometry">
            <Array as="points">
              <mxPoint x="424" y="260" />
              <mxPoint x="344" y="260" />
              <mxPoint x="344" y="480" />
            </Array>
          </mxGeometry>
        </mxCell>
        <mxCell id="KaW1TfqJIeAFHNLuegCc-9" value="&lt;div&gt;知識&lt;/div&gt;" style="rounded=1;whiteSpace=wrap;html=1;fillColor=#f5f5f5;strokeColor=#666666;fontSize=18;fontColor=#333333;" parent="KaW1TfqJIeAFHNLuegCc-1" vertex="1">
          <mxGeometry x="364" y="180" width="120" height="60" as="geometry" />
        </mxCell>
        <mxCell id="jJl6HKamd_gqL-oOaHwr-79" style="edgeStyle=orthogonalEdgeStyle;rounded=0;orthogonalLoop=1;jettySize=auto;html=1;exitX=0.5;exitY=1;exitDx=0;exitDy=0;entryX=0;entryY=0.5;entryDx=0;entryDy=0;fontSize=18;" parent="KaW1TfqJIeAFHNLuegCc-1" source="KaW1TfqJIeAFHNLuegCc-10" target="jJl6HKamd_gqL-oOaHwr-64" edge="1">
          <mxGeometry relative="1" as="geometry" />
        </mxCell>
        <mxCell id="jJl6HKamd_gqL-oOaHwr-80" style="edgeStyle=orthogonalEdgeStyle;rounded=0;orthogonalLoop=1;jettySize=auto;html=1;exitX=0.5;exitY=1;exitDx=0;exitDy=0;entryX=0;entryY=0.5;entryDx=0;entryDy=0;fontSize=18;" parent="KaW1TfqJIeAFHNLuegCc-1" source="KaW1TfqJIeAFHNLuegCc-10" target="jJl6HKamd_gqL-oOaHwr-65" edge="1">
          <mxGeometry relative="1" as="geometry">
            <Array as="points">
              <mxPoint x="770" y="260" />
              <mxPoint x="690" y="260" />
              <mxPoint x="690" y="480" />
            </Array>
          </mxGeometry>
        </mxCell>
        <mxCell id="jJl6HKamd_gqL-oOaHwr-83" style="edgeStyle=orthogonalEdgeStyle;rounded=0;orthogonalLoop=1;jettySize=auto;html=1;exitX=0.5;exitY=1;exitDx=0;exitDy=0;entryX=-0.008;entryY=0.61;entryDx=0;entryDy=0;fontSize=18;entryPerimeter=0;" parent="KaW1TfqJIeAFHNLuegCc-1" source="KaW1TfqJIeAFHNLuegCc-10" target="jJl6HKamd_gqL-oOaHwr-68" edge="1">
          <mxGeometry relative="1" as="geometry">
            <Array as="points">
              <mxPoint x="770" y="260" />
              <mxPoint x="690" y="260" />
              <mxPoint x="690" y="750" />
              <mxPoint x="709" y="750" />
            </Array>
          </mxGeometry>
        </mxCell>
        <mxCell id="KaW1TfqJIeAFHNLuegCc-10" value="&lt;div&gt;閱讀&lt;/div&gt;" style="rounded=1;whiteSpace=wrap;html=1;fillColor=#f5f5f5;strokeColor=#666666;fontSize=18;fontColor=#333333;" parent="KaW1TfqJIeAFHNLuegCc-1" vertex="1">
          <mxGeometry x="710" y="180" width="120" height="60" as="geometry" />
        </mxCell>
        <mxCell id="jJl6HKamd_gqL-oOaHwr-130" style="edgeStyle=orthogonalEdgeStyle;rounded=0;orthogonalLoop=1;jettySize=auto;html=1;exitX=0.5;exitY=1;exitDx=0;exitDy=0;entryX=0;entryY=0;entryDx=0;entryDy=0;fontSize=18;" parent="KaW1TfqJIeAFHNLuegCc-1" source="KaW1TfqJIeAFHNLuegCc-11" target="jJl6HKamd_gqL-oOaHwr-104" edge="1">
          <mxGeometry relative="1" as="geometry" />
        </mxCell>
        <mxCell id="KaW1TfqJIeAFHNLuegCc-11" value="小說" style="rounded=1;whiteSpace=wrap;html=1;fillColor=#f5f5f5;strokeColor=#666666;fontSize=18;fontColor=#333333;" parent="KaW1TfqJIeAFHNLuegCc-1" vertex="1">
          <mxGeometry x="1070" y="180" width="120" height="60" as="geometry" />
        </mxCell>
        <mxCell id="KaW1TfqJIeAFHNLuegCc-12" value="電子券" style="rounded=1;whiteSpace=wrap;html=1;fillColor=#f5f5f5;strokeColor=#666666;fontSize=18;fontColor=#333333;" parent="KaW1TfqJIeAFHNLuegCc-1" vertex="1">
          <mxGeometry x="1630" y="180" width="120" height="60" as="geometry" />
        </mxCell>
        <mxCell id="2GPcoaCJw0jkzkUdtnLj-35" style="edgeStyle=orthogonalEdgeStyle;rounded=0;orthogonalLoop=1;jettySize=auto;html=1;exitX=1;exitY=0.5;exitDx=0;exitDy=0;entryX=0;entryY=0.5;entryDx=0;entryDy=0;" parent="KaW1TfqJIeAFHNLuegCc-1" source="KaW1TfqJIeAFHNLuegCc-13" target="2GPcoaCJw0jkzkUdtnLj-26" edge="1">
          <mxGeometry relative="1" as="geometry" />
        </mxCell>
        <mxCell id="2GPcoaCJw0jkzkUdtnLj-36" style="edgeStyle=orthogonalEdgeStyle;rounded=0;orthogonalLoop=1;jettySize=auto;html=1;exitX=1;exitY=0.5;exitDx=0;exitDy=0;entryX=0;entryY=0.5;entryDx=0;entryDy=0;" parent="KaW1TfqJIeAFHNLuegCc-1" source="KaW1TfqJIeAFHNLuegCc-13" target="2GPcoaCJw0jkzkUdtnLj-27" edge="1">
          <mxGeometry relative="1" as="geometry">
            <Array as="points">
              <mxPoint x="1950" y="210" />
              <mxPoint x="1950" y="260" />
              <mxPoint x="1790" y="260" />
              <mxPoint x="1790" y="390" />
            </Array>
          </mxGeometry>
        </mxCell>
        <mxCell id="2GPcoaCJw0jkzkUdtnLj-37" style="edgeStyle=orthogonalEdgeStyle;rounded=0;orthogonalLoop=1;jettySize=auto;html=1;exitX=1;exitY=0.5;exitDx=0;exitDy=0;entryX=0;entryY=0.5;entryDx=0;entryDy=0;" parent="KaW1TfqJIeAFHNLuegCc-1" source="KaW1TfqJIeAFHNLuegCc-13" target="2GPcoaCJw0jkzkUdtnLj-28" edge="1">
          <mxGeometry relative="1" as="geometry">
            <Array as="points">
              <mxPoint x="1950" y="210" />
              <mxPoint x="1950" y="260" />
              <mxPoint x="1790" y="260" />
              <mxPoint x="1790" y="480" />
            </Array>
          </mxGeometry>
        </mxCell>
        <mxCell id="2GPcoaCJw0jkzkUdtnLj-38" style="edgeStyle=orthogonalEdgeStyle;rounded=0;orthogonalLoop=1;jettySize=auto;html=1;exitX=1;exitY=0.5;exitDx=0;exitDy=0;entryX=0;entryY=0.5;entryDx=0;entryDy=0;" parent="KaW1TfqJIeAFHNLuegCc-1" source="KaW1TfqJIeAFHNLuegCc-13" target="2GPcoaCJw0jkzkUdtnLj-29" edge="1">
          <mxGeometry relative="1" as="geometry">
            <Array as="points">
              <mxPoint x="1950" y="210" />
              <mxPoint x="1950" y="260" />
              <mxPoint x="1790" y="260" />
              <mxPoint x="1790" y="820" />
            </Array>
          </mxGeometry>
        </mxCell>
        <mxCell id="2GPcoaCJw0jkzkUdtnLj-39" style="edgeStyle=orthogonalEdgeStyle;rounded=0;orthogonalLoop=1;jettySize=auto;html=1;exitX=1;exitY=0.5;exitDx=0;exitDy=0;entryX=0;entryY=0.5;entryDx=0;entryDy=0;" parent="KaW1TfqJIeAFHNLuegCc-1" source="KaW1TfqJIeAFHNLuegCc-13" target="2GPcoaCJw0jkzkUdtnLj-30" edge="1">
          <mxGeometry relative="1" as="geometry">
            <Array as="points">
              <mxPoint x="1950" y="210" />
              <mxPoint x="1950" y="260" />
              <mxPoint x="1790" y="260" />
              <mxPoint x="1790" y="908" />
            </Array>
          </mxGeometry>
        </mxCell>
        <mxCell id="2GPcoaCJw0jkzkUdtnLj-40" style="edgeStyle=orthogonalEdgeStyle;rounded=0;orthogonalLoop=1;jettySize=auto;html=1;exitX=1;exitY=0.5;exitDx=0;exitDy=0;entryX=0;entryY=0.5;entryDx=0;entryDy=0;" parent="KaW1TfqJIeAFHNLuegCc-1" source="KaW1TfqJIeAFHNLuegCc-13" target="2GPcoaCJw0jkzkUdtnLj-32" edge="1">
          <mxGeometry relative="1" as="geometry">
            <Array as="points">
              <mxPoint x="1950" y="210" />
              <mxPoint x="1950" y="260" />
              <mxPoint x="1790" y="260" />
              <mxPoint x="1790" y="990" />
            </Array>
          </mxGeometry>
        </mxCell>
        <mxCell id="KaW1TfqJIeAFHNLuegCc-13" value="會員" style="rounded=1;whiteSpace=wrap;html=1;fillColor=#f5f5f5;strokeColor=#666666;fontSize=18;fontColor=#333333;" parent="KaW1TfqJIeAFHNLuegCc-1" vertex="1">
          <mxGeometry x="1810" y="180" width="120" height="60" as="geometry" />
        </mxCell>
        <mxCell id="jJl6HKamd_gqL-oOaHwr-1" style="edgeStyle=orthogonalEdgeStyle;rounded=0;orthogonalLoop=1;jettySize=auto;html=1;exitX=0.5;exitY=1;exitDx=0;exitDy=0;fontSize=18;" parent="KaW1TfqJIeAFHNLuegCc-1" source="jJl6HKamd_gqL-oOaHwr-0" target="KaW1TfqJIeAFHNLuegCc-8" edge="1">
          <mxGeometry relative="1" as="geometry" />
        </mxCell>
        <mxCell id="jJl6HKamd_gqL-oOaHwr-2" style="edgeStyle=orthogonalEdgeStyle;rounded=0;orthogonalLoop=1;jettySize=auto;html=1;exitX=0.5;exitY=1;exitDx=0;exitDy=0;fontSize=18;" parent="KaW1TfqJIeAFHNLuegCc-1" source="jJl6HKamd_gqL-oOaHwr-0" target="KaW1TfqJIeAFHNLuegCc-9" edge="1">
          <mxGeometry relative="1" as="geometry" />
        </mxCell>
        <mxCell id="jJl6HKamd_gqL-oOaHwr-3" style="edgeStyle=orthogonalEdgeStyle;rounded=0;orthogonalLoop=1;jettySize=auto;html=1;exitX=0.5;exitY=1;exitDx=0;exitDy=0;fontSize=18;" parent="KaW1TfqJIeAFHNLuegCc-1" source="jJl6HKamd_gqL-oOaHwr-0" target="KaW1TfqJIeAFHNLuegCc-10" edge="1">
          <mxGeometry relative="1" as="geometry" />
        </mxCell>
        <mxCell id="jJl6HKamd_gqL-oOaHwr-4" style="edgeStyle=orthogonalEdgeStyle;rounded=0;orthogonalLoop=1;jettySize=auto;html=1;exitX=0.5;exitY=1;exitDx=0;exitDy=0;fontSize=18;" parent="KaW1TfqJIeAFHNLuegCc-1" source="jJl6HKamd_gqL-oOaHwr-0" target="KaW1TfqJIeAFHNLuegCc-11" edge="1">
          <mxGeometry relative="1" as="geometry" />
        </mxCell>
        <mxCell id="jJl6HKamd_gqL-oOaHwr-5" style="edgeStyle=orthogonalEdgeStyle;rounded=0;orthogonalLoop=1;jettySize=auto;html=1;exitX=0.5;exitY=1;exitDx=0;exitDy=0;entryX=0.5;entryY=0;entryDx=0;entryDy=0;fontSize=18;" parent="KaW1TfqJIeAFHNLuegCc-1" source="jJl6HKamd_gqL-oOaHwr-0" target="KaW1TfqJIeAFHNLuegCc-12" edge="1">
          <mxGeometry relative="1" as="geometry" />
        </mxCell>
        <mxCell id="jJl6HKamd_gqL-oOaHwr-6" style="edgeStyle=orthogonalEdgeStyle;rounded=0;orthogonalLoop=1;jettySize=auto;html=1;exitX=0.5;exitY=1;exitDx=0;exitDy=0;fontSize=18;" parent="KaW1TfqJIeAFHNLuegCc-1" source="jJl6HKamd_gqL-oOaHwr-0" target="KaW1TfqJIeAFHNLuegCc-13" edge="1">
          <mxGeometry relative="1" as="geometry" />
        </mxCell>
        <mxCell id="2GPcoaCJw0jkzkUdtnLj-24" style="edgeStyle=orthogonalEdgeStyle;rounded=0;orthogonalLoop=1;jettySize=auto;html=1;entryX=0;entryY=0.5;entryDx=0;entryDy=0;" parent="KaW1TfqJIeAFHNLuegCc-1" source="jJl6HKamd_gqL-oOaHwr-0" target="KaW1TfqJIeAFHNLuegCc-3" edge="1">
          <mxGeometry relative="1" as="geometry" />
        </mxCell>
        <mxCell id="jJl6HKamd_gqL-oOaHwr-0" value="Wakool" style="rounded=1;whiteSpace=wrap;html=1;fillColor=#d80073;fontColor=#ffffff;strokeColor=#A50040;fontSize=18;" parent="KaW1TfqJIeAFHNLuegCc-1" vertex="1">
          <mxGeometry x="640" y="30" width="120" height="60" as="geometry" />
        </mxCell>
        <mxCell id="jJl6HKamd_gqL-oOaHwr-10" value="內容" style="rounded=1;whiteSpace=wrap;html=1;fillColor=#f8cecc;strokeColor=#b85450;fontSize=18;" parent="KaW1TfqJIeAFHNLuegCc-1" vertex="1">
          <mxGeometry x="25" y="590" width="120" height="60" as="geometry" />
        </mxCell>
        <mxCell id="jJl6HKamd_gqL-oOaHwr-11" value="選項" style="rounded=1;whiteSpace=wrap;html=1;fillColor=#e1d5e7;strokeColor=#9673a6;fontSize=18;" parent="KaW1TfqJIeAFHNLuegCc-1" vertex="1">
          <mxGeometry x="25" y="680" width="120" height="60" as="geometry" />
        </mxCell>
        <mxCell id="jJl6HKamd_gqL-oOaHwr-26" value="" style="edgeStyle=orthogonalEdgeStyle;rounded=0;orthogonalLoop=1;jettySize=auto;html=1;fontSize=18;" parent="KaW1TfqJIeAFHNLuegCc-1" source="jJl6HKamd_gqL-oOaHwr-16" target="jJl6HKamd_gqL-oOaHwr-24" edge="1">
          <mxGeometry relative="1" as="geometry" />
        </mxCell>
        <mxCell id="jJl6HKamd_gqL-oOaHwr-16" value="玩英文" style="rounded=1;whiteSpace=wrap;html=1;fillColor=#ffe6cc;strokeColor=#d79b00;fontSize=18;" parent="KaW1TfqJIeAFHNLuegCc-1" vertex="1">
          <mxGeometry x="364" y="270" width="120" height="60" as="geometry" />
        </mxCell>
        <mxCell id="jJl6HKamd_gqL-oOaHwr-27" value="" style="edgeStyle=orthogonalEdgeStyle;rounded=0;orthogonalLoop=1;jettySize=auto;html=1;fontSize=18;" parent="KaW1TfqJIeAFHNLuegCc-1" source="jJl6HKamd_gqL-oOaHwr-18" target="jJl6HKamd_gqL-oOaHwr-25" edge="1">
          <mxGeometry relative="1" as="geometry" />
        </mxCell>
        <mxCell id="jJl6HKamd_gqL-oOaHwr-18" value="玩理財" style="rounded=1;whiteSpace=wrap;html=1;fillColor=#ffe6cc;strokeColor=#d79b00;fontSize=18;" parent="KaW1TfqJIeAFHNLuegCc-1" vertex="1">
          <mxGeometry x="364" y="450" width="120" height="60" as="geometry" />
        </mxCell>
        <mxCell id="jJl6HKamd_gqL-oOaHwr-58" value="" style="edgeStyle=orthogonalEdgeStyle;rounded=0;orthogonalLoop=1;jettySize=auto;html=1;fontSize=18;" parent="KaW1TfqJIeAFHNLuegCc-1" source="jJl6HKamd_gqL-oOaHwr-20" target="jJl6HKamd_gqL-oOaHwr-52" edge="1">
          <mxGeometry relative="1" as="geometry" />
        </mxCell>
        <mxCell id="jJl6HKamd_gqL-oOaHwr-59" style="edgeStyle=orthogonalEdgeStyle;rounded=0;orthogonalLoop=1;jettySize=auto;html=1;exitX=1;exitY=0.5;exitDx=0;exitDy=0;entryX=1;entryY=0.592;entryDx=0;entryDy=0;entryPerimeter=0;fontSize=18;" parent="KaW1TfqJIeAFHNLuegCc-1" source="jJl6HKamd_gqL-oOaHwr-20" target="jJl6HKamd_gqL-oOaHwr-49" edge="1">
          <mxGeometry relative="1" as="geometry" />
        </mxCell>
        <mxCell id="jJl6HKamd_gqL-oOaHwr-61" style="edgeStyle=orthogonalEdgeStyle;rounded=0;orthogonalLoop=1;jettySize=auto;html=1;exitX=1;exitY=0.5;exitDx=0;exitDy=0;entryX=1;entryY=0.5;entryDx=0;entryDy=0;fontSize=18;" parent="KaW1TfqJIeAFHNLuegCc-1" source="jJl6HKamd_gqL-oOaHwr-20" target="jJl6HKamd_gqL-oOaHwr-50" edge="1">
          <mxGeometry relative="1" as="geometry" />
        </mxCell>
        <mxCell id="jJl6HKamd_gqL-oOaHwr-20" value="&lt;div&gt;玩理財&lt;/div&gt;&lt;div&gt;單文頁&lt;/div&gt;" style="rounded=1;whiteSpace=wrap;html=1;fillColor=#f5f5f5;strokeColor=#666666;fontSize=18;fontColor=#333333;" parent="KaW1TfqJIeAFHNLuegCc-1" vertex="1">
          <mxGeometry x="364" y="630" width="120" height="60" as="geometry" />
        </mxCell>
        <mxCell id="jJl6HKamd_gqL-oOaHwr-44" value="" style="edgeStyle=orthogonalEdgeStyle;rounded=0;orthogonalLoop=1;jettySize=auto;html=1;fontSize=18;" parent="KaW1TfqJIeAFHNLuegCc-1" source="jJl6HKamd_gqL-oOaHwr-24" target="jJl6HKamd_gqL-oOaHwr-30" edge="1">
          <mxGeometry relative="1" as="geometry" />
        </mxCell>
        <mxCell id="jJl6HKamd_gqL-oOaHwr-24" value="&lt;div&gt;玩英文&lt;/div&gt;&lt;div&gt;課程清單&lt;br&gt;&lt;/div&gt;" style="rounded=1;whiteSpace=wrap;html=1;fillColor=#f8cecc;strokeColor=#b85450;fontSize=18;" parent="KaW1TfqJIeAFHNLuegCc-1" vertex="1">
          <mxGeometry x="364" y="360" width="120" height="60" as="geometry" />
        </mxCell>
        <mxCell id="jJl6HKamd_gqL-oOaHwr-62" value="" style="edgeStyle=orthogonalEdgeStyle;rounded=0;orthogonalLoop=1;jettySize=auto;html=1;fontSize=18;" parent="KaW1TfqJIeAFHNLuegCc-1" source="jJl6HKamd_gqL-oOaHwr-25" target="jJl6HKamd_gqL-oOaHwr-20" edge="1">
          <mxGeometry relative="1" as="geometry" />
        </mxCell>
        <mxCell id="jJl6HKamd_gqL-oOaHwr-25" value="&lt;div&gt;玩理財&lt;/div&gt;&lt;div&gt;課程清單&lt;br&gt;&lt;/div&gt;" style="rounded=1;whiteSpace=wrap;html=1;fillColor=#f8cecc;strokeColor=#b85450;fontSize=18;" parent="KaW1TfqJIeAFHNLuegCc-1" vertex="1">
          <mxGeometry x="364" y="540" width="120" height="60" as="geometry" />
        </mxCell>
        <mxCell id="jJl6HKamd_gqL-oOaHwr-45" value="" style="edgeStyle=orthogonalEdgeStyle;rounded=0;orthogonalLoop=1;jettySize=auto;html=1;fontSize=18;" parent="KaW1TfqJIeAFHNLuegCc-1" source="jJl6HKamd_gqL-oOaHwr-30" target="jJl6HKamd_gqL-oOaHwr-43" edge="1">
          <mxGeometry relative="1" as="geometry" />
        </mxCell>
        <mxCell id="jJl6HKamd_gqL-oOaHwr-46" style="edgeStyle=orthogonalEdgeStyle;rounded=0;orthogonalLoop=1;jettySize=auto;html=1;exitX=1;exitY=0.5;exitDx=0;exitDy=0;entryX=1;entryY=0.5;entryDx=0;entryDy=0;fontSize=18;" parent="KaW1TfqJIeAFHNLuegCc-1" source="jJl6HKamd_gqL-oOaHwr-30" target="jJl6HKamd_gqL-oOaHwr-36" edge="1">
          <mxGeometry relative="1" as="geometry" />
        </mxCell>
        <mxCell id="jJl6HKamd_gqL-oOaHwr-47" style="edgeStyle=orthogonalEdgeStyle;rounded=0;orthogonalLoop=1;jettySize=auto;html=1;exitX=1;exitY=0.5;exitDx=0;exitDy=0;entryX=1;entryY=0.5;entryDx=0;entryDy=0;fontSize=18;" parent="KaW1TfqJIeAFHNLuegCc-1" source="jJl6HKamd_gqL-oOaHwr-30" target="jJl6HKamd_gqL-oOaHwr-37" edge="1">
          <mxGeometry relative="1" as="geometry" />
        </mxCell>
        <mxCell id="jJl6HKamd_gqL-oOaHwr-30" value="&lt;div&gt;玩英文&lt;/div&gt;&lt;div&gt;單文頁&lt;br&gt;&lt;/div&gt;" style="rounded=1;whiteSpace=wrap;html=1;fillColor=#f5f5f5;strokeColor=#666666;fontSize=18;fontColor=#333333;" parent="KaW1TfqJIeAFHNLuegCc-1" vertex="1">
          <mxGeometry x="530" y="360" width="120" height="60" as="geometry" />
        </mxCell>
        <mxCell id="jJl6HKamd_gqL-oOaHwr-36" value="影片目錄" style="rounded=1;whiteSpace=wrap;html=1;fillColor=#ffe6cc;strokeColor=#d79b00;fontSize=18;verticalAlign=top;" parent="KaW1TfqJIeAFHNLuegCc-1" vertex="1">
          <mxGeometry x="530" y="540" width="120" height="370" as="geometry" />
        </mxCell>
        <mxCell id="jJl6HKamd_gqL-oOaHwr-37" value="品牌介紹" style="rounded=1;whiteSpace=wrap;html=1;fillColor=#ffe6cc;strokeColor=#d79b00;fontSize=18;verticalAlign=top;" parent="KaW1TfqJIeAFHNLuegCc-1" vertex="1">
          <mxGeometry x="530" y="960" width="120" height="160" as="geometry" />
        </mxCell>
        <mxCell id="jJl6HKamd_gqL-oOaHwr-38" value="品牌介紹內容" style="rounded=1;whiteSpace=wrap;html=1;fillColor=#f8cecc;strokeColor=#b85450;fontSize=18;" parent="KaW1TfqJIeAFHNLuegCc-1" vertex="1">
          <mxGeometry x="540" y="1040" width="100" height="60" as="geometry" />
        </mxCell>
        <mxCell id="jJl6HKamd_gqL-oOaHwr-43" value="名師簡介" style="rounded=1;whiteSpace=wrap;html=1;fillColor=#d5e8d4;strokeColor=#82b366;fontSize=18;" parent="KaW1TfqJIeAFHNLuegCc-1" vertex="1">
          <mxGeometry x="530" y="450" width="120" height="60" as="geometry" />
        </mxCell>
        <mxCell id="jJl6HKamd_gqL-oOaHwr-48" value="" style="group" parent="KaW1TfqJIeAFHNLuegCc-1" vertex="1" connectable="0">
          <mxGeometry x="540" y="590" width="100" height="300" as="geometry" />
        </mxCell>
        <mxCell id="jJl6HKamd_gqL-oOaHwr-39" value="課程目錄" style="rounded=1;whiteSpace=wrap;html=1;fillColor=#f8cecc;strokeColor=#b85450;fontSize=18;" parent="jJl6HKamd_gqL-oOaHwr-48" vertex="1">
          <mxGeometry width="100" height="60" as="geometry" />
        </mxCell>
        <mxCell id="jJl6HKamd_gqL-oOaHwr-40" value="整套購買" style="rounded=1;whiteSpace=wrap;html=1;fillColor=#e1d5e7;strokeColor=#9673a6;fontSize=18;" parent="jJl6HKamd_gqL-oOaHwr-48" vertex="1">
          <mxGeometry y="80" width="100" height="60" as="geometry" />
        </mxCell>
        <mxCell id="jJl6HKamd_gqL-oOaHwr-41" value="試看" style="rounded=1;whiteSpace=wrap;html=1;fillColor=#e1d5e7;strokeColor=#9673a6;fontSize=18;" parent="jJl6HKamd_gqL-oOaHwr-48" vertex="1">
          <mxGeometry y="160" width="100" height="60" as="geometry" />
        </mxCell>
        <mxCell id="jJl6HKamd_gqL-oOaHwr-42" value="單課程購買" style="rounded=1;whiteSpace=wrap;html=1;fillColor=#e1d5e7;strokeColor=#9673a6;fontSize=18;" parent="jJl6HKamd_gqL-oOaHwr-48" vertex="1">
          <mxGeometry y="240" width="100" height="60" as="geometry" />
        </mxCell>
        <mxCell id="jJl6HKamd_gqL-oOaHwr-49" value="影片目錄" style="rounded=1;whiteSpace=wrap;html=1;fillColor=#ffe6cc;strokeColor=#d79b00;fontSize=18;verticalAlign=top;" parent="KaW1TfqJIeAFHNLuegCc-1" vertex="1">
          <mxGeometry x="364" y="810" width="120" height="370" as="geometry" />
        </mxCell>
        <mxCell id="jJl6HKamd_gqL-oOaHwr-50" value="品牌介紹" style="rounded=1;whiteSpace=wrap;html=1;fillColor=#ffe6cc;strokeColor=#d79b00;fontSize=18;verticalAlign=top;" parent="KaW1TfqJIeAFHNLuegCc-1" vertex="1">
          <mxGeometry x="364" y="1230" width="120" height="160" as="geometry" />
        </mxCell>
        <mxCell id="jJl6HKamd_gqL-oOaHwr-51" value="品牌介紹內容" style="rounded=1;whiteSpace=wrap;html=1;fillColor=#f8cecc;strokeColor=#b85450;fontSize=18;" parent="KaW1TfqJIeAFHNLuegCc-1" vertex="1">
          <mxGeometry x="374" y="1310" width="100" height="60" as="geometry" />
        </mxCell>
        <mxCell id="jJl6HKamd_gqL-oOaHwr-52" value="名師簡介" style="rounded=1;whiteSpace=wrap;html=1;fillColor=#d5e8d4;strokeColor=#82b366;fontSize=18;" parent="KaW1TfqJIeAFHNLuegCc-1" vertex="1">
          <mxGeometry x="364" y="720" width="120" height="60" as="geometry" />
        </mxCell>
        <mxCell id="jJl6HKamd_gqL-oOaHwr-53" value="" style="group" parent="KaW1TfqJIeAFHNLuegCc-1" vertex="1" connectable="0">
          <mxGeometry x="374" y="860" width="100" height="300" as="geometry" />
        </mxCell>
        <mxCell id="jJl6HKamd_gqL-oOaHwr-54" value="課程目錄" style="rounded=1;whiteSpace=wrap;html=1;fillColor=#f8cecc;strokeColor=#b85450;fontSize=18;" parent="jJl6HKamd_gqL-oOaHwr-53" vertex="1">
          <mxGeometry width="100" height="60" as="geometry" />
        </mxCell>
        <mxCell id="jJl6HKamd_gqL-oOaHwr-55" value="整套購買" style="rounded=1;whiteSpace=wrap;html=1;fillColor=#e1d5e7;strokeColor=#9673a6;fontSize=18;" parent="jJl6HKamd_gqL-oOaHwr-53" vertex="1">
          <mxGeometry y="80" width="100" height="60" as="geometry" />
        </mxCell>
        <mxCell id="jJl6HKamd_gqL-oOaHwr-56" value="試看" style="rounded=1;whiteSpace=wrap;html=1;fillColor=#e1d5e7;strokeColor=#9673a6;fontSize=18;" parent="jJl6HKamd_gqL-oOaHwr-53" vertex="1">
          <mxGeometry y="160" width="100" height="60" as="geometry" />
        </mxCell>
        <mxCell id="jJl6HKamd_gqL-oOaHwr-57" value="單課程購買" style="rounded=1;whiteSpace=wrap;html=1;fillColor=#e1d5e7;strokeColor=#9673a6;fontSize=18;" parent="jJl6HKamd_gqL-oOaHwr-53" vertex="1">
          <mxGeometry y="240" width="100" height="60" as="geometry" />
        </mxCell>
        <mxCell id="jJl6HKamd_gqL-oOaHwr-63" value="" style="group" parent="KaW1TfqJIeAFHNLuegCc-1" vertex="1" connectable="0">
          <mxGeometry x="180" y="270" width="120" height="330" as="geometry" />
        </mxCell>
        <mxCell id="KaW1TfqJIeAFHNLuegCc-14" value="Banner" style="rounded=1;whiteSpace=wrap;html=1;fillColor=#f8cecc;strokeColor=#b85450;fontSize=18;" parent="jJl6HKamd_gqL-oOaHwr-63" vertex="1">
          <mxGeometry width="120" height="60" as="geometry" />
        </mxCell>
        <mxCell id="jJl6HKamd_gqL-oOaHwr-8" value="人氣排行" style="rounded=1;whiteSpace=wrap;html=1;fillColor=#f8cecc;strokeColor=#b85450;fontSize=18;" parent="jJl6HKamd_gqL-oOaHwr-63" vertex="1">
          <mxGeometry y="90" width="120" height="60" as="geometry" />
        </mxCell>
        <mxCell id="jJl6HKamd_gqL-oOaHwr-9" value="遊戲內容" style="rounded=1;whiteSpace=wrap;html=1;fillColor=#f8cecc;strokeColor=#b85450;fontSize=18;" parent="jJl6HKamd_gqL-oOaHwr-63" vertex="1">
          <mxGeometry y="180" width="120" height="60" as="geometry" />
        </mxCell>
        <mxCell id="jJl6HKamd_gqL-oOaHwr-13" value="分類遊戲內容" style="rounded=1;whiteSpace=wrap;html=1;fillColor=#f8cecc;strokeColor=#b85450;fontSize=18;" parent="jJl6HKamd_gqL-oOaHwr-63" vertex="1">
          <mxGeometry y="270" width="120" height="60" as="geometry" />
        </mxCell>
        <mxCell id="jJl6HKamd_gqL-oOaHwr-81" value="" style="edgeStyle=orthogonalEdgeStyle;rounded=0;orthogonalLoop=1;jettySize=auto;html=1;fontSize=18;" parent="KaW1TfqJIeAFHNLuegCc-1" source="jJl6HKamd_gqL-oOaHwr-64" target="jJl6HKamd_gqL-oOaHwr-66" edge="1">
          <mxGeometry relative="1" as="geometry" />
        </mxCell>
        <mxCell id="jJl6HKamd_gqL-oOaHwr-98" style="edgeStyle=orthogonalEdgeStyle;rounded=0;orthogonalLoop=1;jettySize=auto;html=1;exitX=1;exitY=0.5;exitDx=0;exitDy=0;entryX=0;entryY=0.5;entryDx=0;entryDy=0;fontSize=18;" parent="KaW1TfqJIeAFHNLuegCc-1" source="jJl6HKamd_gqL-oOaHwr-64" target="jJl6HKamd_gqL-oOaHwr-97" edge="1">
          <mxGeometry relative="1" as="geometry" />
        </mxCell>
        <mxCell id="jJl6HKamd_gqL-oOaHwr-64" value="期刊雜誌" style="rounded=1;whiteSpace=wrap;html=1;fillColor=#ffe6cc;strokeColor=#d79b00;fontSize=18;" parent="KaW1TfqJIeAFHNLuegCc-1" vertex="1">
          <mxGeometry x="710" y="270" width="120" height="60" as="geometry" />
        </mxCell>
        <mxCell id="jJl6HKamd_gqL-oOaHwr-82" value="" style="edgeStyle=orthogonalEdgeStyle;rounded=0;orthogonalLoop=1;jettySize=auto;html=1;fontSize=18;" parent="KaW1TfqJIeAFHNLuegCc-1" source="jJl6HKamd_gqL-oOaHwr-65" target="jJl6HKamd_gqL-oOaHwr-67" edge="1">
          <mxGeometry relative="1" as="geometry" />
        </mxCell>
        <mxCell id="jJl6HKamd_gqL-oOaHwr-101" style="edgeStyle=orthogonalEdgeStyle;rounded=0;orthogonalLoop=1;jettySize=auto;html=1;entryX=0;entryY=0.5;entryDx=0;entryDy=0;fontSize=18;" parent="KaW1TfqJIeAFHNLuegCc-1" source="jJl6HKamd_gqL-oOaHwr-65" target="jJl6HKamd_gqL-oOaHwr-100" edge="1">
          <mxGeometry relative="1" as="geometry" />
        </mxCell>
        <mxCell id="jJl6HKamd_gqL-oOaHwr-65" value="eBook" style="rounded=1;whiteSpace=wrap;html=1;fillColor=#ffe6cc;strokeColor=#d79b00;fontSize=18;" parent="KaW1TfqJIeAFHNLuegCc-1" vertex="1">
          <mxGeometry x="710" y="450" width="120" height="60" as="geometry" />
        </mxCell>
        <mxCell id="jJl6HKamd_gqL-oOaHwr-99" style="edgeStyle=orthogonalEdgeStyle;rounded=0;orthogonalLoop=1;jettySize=auto;html=1;exitX=1;exitY=0.5;exitDx=0;exitDy=0;fontSize=18;" parent="KaW1TfqJIeAFHNLuegCc-1" source="jJl6HKamd_gqL-oOaHwr-66" edge="1">
          <mxGeometry relative="1" as="geometry">
            <mxPoint x="890" y="300" as="targetPoint" />
            <Array as="points">
              <mxPoint x="850" y="390" />
              <mxPoint x="850" y="300" />
            </Array>
          </mxGeometry>
        </mxCell>
        <mxCell id="jJl6HKamd_gqL-oOaHwr-66" value="分類" style="rounded=1;whiteSpace=wrap;html=1;fillColor=#f8cecc;strokeColor=#b85450;fontSize=18;" parent="KaW1TfqJIeAFHNLuegCc-1" vertex="1">
          <mxGeometry x="710" y="360" width="120" height="60" as="geometry" />
        </mxCell>
        <mxCell id="jJl6HKamd_gqL-oOaHwr-102" style="edgeStyle=orthogonalEdgeStyle;rounded=0;orthogonalLoop=1;jettySize=auto;html=1;exitX=1;exitY=0.5;exitDx=0;exitDy=0;fontSize=18;" parent="KaW1TfqJIeAFHNLuegCc-1" source="jJl6HKamd_gqL-oOaHwr-67" edge="1">
          <mxGeometry relative="1" as="geometry">
            <mxPoint x="890" y="480" as="targetPoint" />
            <Array as="points">
              <mxPoint x="850" y="570" />
              <mxPoint x="850" y="480" />
            </Array>
          </mxGeometry>
        </mxCell>
        <mxCell id="jJl6HKamd_gqL-oOaHwr-67" value="分類" style="rounded=1;whiteSpace=wrap;html=1;fillColor=#f8cecc;strokeColor=#b85450;fontSize=18;" parent="KaW1TfqJIeAFHNLuegCc-1" vertex="1">
          <mxGeometry x="710" y="540" width="120" height="60" as="geometry" />
        </mxCell>
        <mxCell id="jJl6HKamd_gqL-oOaHwr-68" value="訂閱" style="rounded=1;whiteSpace=wrap;html=1;fillColor=#f5f5f5;strokeColor=#666666;fontSize=18;fontColor=#333333;verticalAlign=top;" parent="KaW1TfqJIeAFHNLuegCc-1" vertex="1">
          <mxGeometry x="710" y="628" width="120" height="200" as="geometry" />
        </mxCell>
        <mxCell id="jJl6HKamd_gqL-oOaHwr-69" value="票券資訊" style="rounded=1;whiteSpace=wrap;html=1;fillColor=#f8cecc;strokeColor=#b85450;fontSize=18;" parent="KaW1TfqJIeAFHNLuegCc-1" vertex="1">
          <mxGeometry x="730" y="670" width="80" height="60" as="geometry" />
        </mxCell>
        <mxCell id="jJl6HKamd_gqL-oOaHwr-75" style="edgeStyle=orthogonalEdgeStyle;rounded=0;orthogonalLoop=1;jettySize=auto;html=1;exitX=0.5;exitY=1;exitDx=0;exitDy=0;entryX=0.5;entryY=0;entryDx=0;entryDy=0;fontSize=18;" parent="KaW1TfqJIeAFHNLuegCc-1" source="jJl6HKamd_gqL-oOaHwr-70" target="jJl6HKamd_gqL-oOaHwr-71" edge="1">
          <mxGeometry relative="1" as="geometry" />
        </mxCell>
        <mxCell id="jJl6HKamd_gqL-oOaHwr-70" value="購買月票" style="rounded=1;whiteSpace=wrap;html=1;fillColor=#e1d5e7;strokeColor=#9673a6;fontSize=18;" parent="KaW1TfqJIeAFHNLuegCc-1" vertex="1">
          <mxGeometry x="730" y="750" width="80" height="60" as="geometry" />
        </mxCell>
        <mxCell id="jJl6HKamd_gqL-oOaHwr-71" value="訂閱視窗" style="rounded=1;whiteSpace=wrap;html=1;fillColor=#d5e8d4;strokeColor=#82b366;fontSize=18;verticalAlign=top;" parent="KaW1TfqJIeAFHNLuegCc-1" vertex="1">
          <mxGeometry x="710" y="860" width="120" height="210" as="geometry" />
        </mxCell>
        <mxCell id="jJl6HKamd_gqL-oOaHwr-89" style="edgeStyle=orthogonalEdgeStyle;rounded=0;orthogonalLoop=1;jettySize=auto;html=1;exitX=0.5;exitY=1;exitDx=0;exitDy=0;fontSize=18;" parent="KaW1TfqJIeAFHNLuegCc-1" source="jJl6HKamd_gqL-oOaHwr-72" target="jJl6HKamd_gqL-oOaHwr-88" edge="1">
          <mxGeometry relative="1" as="geometry" />
        </mxCell>
        <mxCell id="jJl6HKamd_gqL-oOaHwr-72" value="確定購買" style="rounded=1;whiteSpace=wrap;html=1;fillColor=#e1d5e7;strokeColor=#9673a6;fontSize=18;" parent="KaW1TfqJIeAFHNLuegCc-1" vertex="1">
          <mxGeometry x="725" y="990" width="90" height="60" as="geometry" />
        </mxCell>
        <mxCell id="jJl6HKamd_gqL-oOaHwr-73" value="票券資訊" style="rounded=1;whiteSpace=wrap;html=1;fillColor=#f8cecc;strokeColor=#b85450;fontSize=18;" parent="KaW1TfqJIeAFHNLuegCc-1" vertex="1">
          <mxGeometry x="725" y="910" width="90" height="60" as="geometry" />
        </mxCell>
        <mxCell id="jJl6HKamd_gqL-oOaHwr-85" value="訂閱狀態" style="rounded=1;whiteSpace=wrap;html=1;fillColor=#d5e8d4;strokeColor=#82b366;fontSize=18;verticalAlign=top;" parent="KaW1TfqJIeAFHNLuegCc-1" vertex="1">
          <mxGeometry x="630" y="1200" width="120" height="210" as="geometry" />
        </mxCell>
        <mxCell id="jJl6HKamd_gqL-oOaHwr-86" value="前往儲值" style="rounded=1;whiteSpace=wrap;html=1;fillColor=#e1d5e7;strokeColor=#9673a6;fontSize=18;" parent="KaW1TfqJIeAFHNLuegCc-1" vertex="1">
          <mxGeometry x="645" y="1330" width="90" height="60" as="geometry" />
        </mxCell>
        <mxCell id="jJl6HKamd_gqL-oOaHwr-87" value="點數資訊" style="rounded=1;whiteSpace=wrap;html=1;fillColor=#f8cecc;strokeColor=#b85450;fontSize=18;" parent="KaW1TfqJIeAFHNLuegCc-1" vertex="1">
          <mxGeometry x="645" y="1250" width="90" height="60" as="geometry" />
        </mxCell>
        <mxCell id="jJl6HKamd_gqL-oOaHwr-92" value="N" style="edgeStyle=orthogonalEdgeStyle;rounded=0;orthogonalLoop=1;jettySize=auto;html=1;exitX=0;exitY=0.5;exitDx=0;exitDy=0;entryX=0.5;entryY=0;entryDx=0;entryDy=0;fontSize=18;" parent="KaW1TfqJIeAFHNLuegCc-1" source="jJl6HKamd_gqL-oOaHwr-88" target="jJl6HKamd_gqL-oOaHwr-85" edge="1">
          <mxGeometry relative="1" as="geometry">
            <Array as="points">
              <mxPoint x="690" y="1140" />
            </Array>
          </mxGeometry>
        </mxCell>
        <mxCell id="jJl6HKamd_gqL-oOaHwr-96" value="Y" style="edgeStyle=orthogonalEdgeStyle;rounded=0;orthogonalLoop=1;jettySize=auto;html=1;exitX=1;exitY=0.5;exitDx=0;exitDy=0;entryX=0.5;entryY=0;entryDx=0;entryDy=0;fontSize=18;" parent="KaW1TfqJIeAFHNLuegCc-1" source="jJl6HKamd_gqL-oOaHwr-88" target="jJl6HKamd_gqL-oOaHwr-93" edge="1">
          <mxGeometry relative="1" as="geometry" />
        </mxCell>
        <mxCell id="jJl6HKamd_gqL-oOaHwr-88" value="點數餘額" style="rhombus;whiteSpace=wrap;html=1;fontSize=18;verticalAlign=middle;" parent="KaW1TfqJIeAFHNLuegCc-1" vertex="1">
          <mxGeometry x="730" y="1100" width="80" height="80" as="geometry" />
        </mxCell>
        <mxCell id="jJl6HKamd_gqL-oOaHwr-93" value="訂閱狀態" style="rounded=1;whiteSpace=wrap;html=1;fillColor=#d5e8d4;strokeColor=#82b366;fontSize=18;verticalAlign=top;" parent="KaW1TfqJIeAFHNLuegCc-1" vertex="1">
          <mxGeometry x="790" y="1200" width="120" height="210" as="geometry" />
        </mxCell>
        <mxCell id="jJl6HKamd_gqL-oOaHwr-94" value="關閉視窗" style="rounded=1;whiteSpace=wrap;html=1;fillColor=#e1d5e7;strokeColor=#9673a6;fontSize=18;" parent="KaW1TfqJIeAFHNLuegCc-1" vertex="1">
          <mxGeometry x="805" y="1330" width="90" height="60" as="geometry" />
        </mxCell>
        <mxCell id="jJl6HKamd_gqL-oOaHwr-95" value="票券資訊" style="rounded=1;whiteSpace=wrap;html=1;fillColor=#f8cecc;strokeColor=#b85450;fontSize=18;" parent="KaW1TfqJIeAFHNLuegCc-1" vertex="1">
          <mxGeometry x="805" y="1250" width="90" height="60" as="geometry" />
        </mxCell>
        <mxCell id="jJl6HKamd_gqL-oOaHwr-97" value="雜誌單文頁" style="rounded=1;whiteSpace=wrap;html=1;fillColor=#f5f5f5;strokeColor=#666666;fontSize=18;fontColor=#333333;" parent="KaW1TfqJIeAFHNLuegCc-1" vertex="1">
          <mxGeometry x="895" y="270" width="120" height="60" as="geometry" />
        </mxCell>
        <mxCell id="jJl6HKamd_gqL-oOaHwr-100" value="eBook單文頁" style="rounded=1;whiteSpace=wrap;html=1;fillColor=#f5f5f5;strokeColor=#666666;fontSize=18;fontColor=#333333;" parent="KaW1TfqJIeAFHNLuegCc-1" vertex="1">
          <mxGeometry x="895" y="450" width="120" height="60" as="geometry" />
        </mxCell>
        <mxCell id="jJl6HKamd_gqL-oOaHwr-103" value="女生言情" style="rounded=1;whiteSpace=wrap;html=1;fillColor=#fff2cc;strokeColor=#d6b656;fontSize=18;" parent="KaW1TfqJIeAFHNLuegCc-1" vertex="1">
          <mxGeometry x="1070" y="270" width="80" height="60" as="geometry" />
        </mxCell>
        <mxCell id="jJl6HKamd_gqL-oOaHwr-104" value="懸疑靈異" style="rounded=1;whiteSpace=wrap;html=1;fillColor=#fff2cc;strokeColor=#d6b656;fontSize=18;" parent="KaW1TfqJIeAFHNLuegCc-1" vertex="1">
          <mxGeometry x="1160" y="270" width="80" height="60" as="geometry" />
        </mxCell>
        <mxCell id="jJl6HKamd_gqL-oOaHwr-106" value="仙俠歷史" style="rounded=1;whiteSpace=wrap;html=1;fillColor=#fff2cc;strokeColor=#d6b656;fontSize=18;" parent="KaW1TfqJIeAFHNLuegCc-1" vertex="1">
          <mxGeometry x="1070" y="340" width="80" height="60" as="geometry" />
        </mxCell>
        <mxCell id="jJl6HKamd_gqL-oOaHwr-107" value="科幻競技" style="rounded=1;whiteSpace=wrap;html=1;fillColor=#fff2cc;strokeColor=#d6b656;fontSize=18;" parent="KaW1TfqJIeAFHNLuegCc-1" vertex="1">
          <mxGeometry x="1160" y="340" width="80" height="60" as="geometry" />
        </mxCell>
        <mxCell id="jJl6HKamd_gqL-oOaHwr-105" value="熱門小說" style="rounded=1;whiteSpace=wrap;html=1;fillColor=#f8cecc;strokeColor=#b85450;fontSize=18;" parent="KaW1TfqJIeAFHNLuegCc-1" vertex="1">
          <mxGeometry x="1070" y="470" width="80" height="60" as="geometry" />
        </mxCell>
        <mxCell id="jJl6HKamd_gqL-oOaHwr-108" value="站長推薦" style="rounded=1;whiteSpace=wrap;html=1;fillColor=#f8cecc;strokeColor=#b85450;fontSize=18;" parent="KaW1TfqJIeAFHNLuegCc-1" vertex="1">
          <mxGeometry x="1167" y="470" width="80" height="60" as="geometry" />
        </mxCell>
        <mxCell id="jJl6HKamd_gqL-oOaHwr-109" value="新書登場" style="rounded=1;whiteSpace=wrap;html=1;fillColor=#f8cecc;strokeColor=#b85450;fontSize=18;" parent="KaW1TfqJIeAFHNLuegCc-1" vertex="1">
          <mxGeometry x="1263" y="470" width="80" height="60" as="geometry" />
        </mxCell>
        <mxCell id="jJl6HKamd_gqL-oOaHwr-110" value="創作文學" style="rounded=1;whiteSpace=wrap;html=1;fillColor=#f8cecc;strokeColor=#b85450;fontSize=18;" parent="KaW1TfqJIeAFHNLuegCc-1" vertex="1">
          <mxGeometry x="1360" y="470" width="80" height="60" as="geometry" />
        </mxCell>
        <mxCell id="jJl6HKamd_gqL-oOaHwr-111" value="宮廷穿越" style="rounded=1;whiteSpace=wrap;html=1;fillColor=#f8cecc;strokeColor=#b85450;fontSize=18;" parent="KaW1TfqJIeAFHNLuegCc-1" vertex="1">
          <mxGeometry x="1070" y="540" width="80" height="60" as="geometry" />
        </mxCell>
        <mxCell id="jJl6HKamd_gqL-oOaHwr-113" value="懸疑驚悚" style="rounded=1;whiteSpace=wrap;html=1;fillColor=#f8cecc;strokeColor=#b85450;fontSize=18;" parent="KaW1TfqJIeAFHNLuegCc-1" vertex="1">
          <mxGeometry x="1167" y="540" width="80" height="60" as="geometry" />
        </mxCell>
        <mxCell id="jJl6HKamd_gqL-oOaHwr-114" value="末日懸疑" style="rounded=1;whiteSpace=wrap;html=1;fillColor=#f8cecc;strokeColor=#b85450;fontSize=18;" parent="KaW1TfqJIeAFHNLuegCc-1" vertex="1">
          <mxGeometry x="1263" y="540" width="80" height="60" as="geometry" />
        </mxCell>
        <mxCell id="jJl6HKamd_gqL-oOaHwr-115" value="正宗武俠" style="rounded=1;whiteSpace=wrap;html=1;fillColor=#f8cecc;strokeColor=#b85450;fontSize=18;" parent="KaW1TfqJIeAFHNLuegCc-1" vertex="1">
          <mxGeometry x="1360" y="540" width="80" height="60" as="geometry" />
        </mxCell>
        <mxCell id="jJl6HKamd_gqL-oOaHwr-116" value="武俠歷史" style="rounded=1;whiteSpace=wrap;html=1;fillColor=#f8cecc;strokeColor=#b85450;fontSize=18;" parent="KaW1TfqJIeAFHNLuegCc-1" vertex="1">
          <mxGeometry x="1070" y="610" width="80" height="60" as="geometry" />
        </mxCell>
        <mxCell id="jJl6HKamd_gqL-oOaHwr-117" value="歷史軍事" style="rounded=1;whiteSpace=wrap;html=1;fillColor=#f8cecc;strokeColor=#b85450;fontSize=18;" parent="KaW1TfqJIeAFHNLuegCc-1" vertex="1">
          <mxGeometry x="1167" y="610" width="80" height="60" as="geometry" />
        </mxCell>
        <mxCell id="jJl6HKamd_gqL-oOaHwr-118" value="&lt;div&gt;玄幻修真&lt;br&gt;&lt;/div&gt;" style="rounded=1;whiteSpace=wrap;html=1;fillColor=#f8cecc;strokeColor=#b85450;fontSize=18;" parent="KaW1TfqJIeAFHNLuegCc-1" vertex="1">
          <mxGeometry x="1263" y="610" width="80" height="60" as="geometry" />
        </mxCell>
        <mxCell id="jJl6HKamd_gqL-oOaHwr-119" value="現代冒險" style="rounded=1;whiteSpace=wrap;html=1;fillColor=#f8cecc;strokeColor=#b85450;fontSize=18;" parent="KaW1TfqJIeAFHNLuegCc-1" vertex="1">
          <mxGeometry x="1360" y="610" width="80" height="60" as="geometry" />
        </mxCell>
        <mxCell id="jJl6HKamd_gqL-oOaHwr-120" value="科幻奇想" style="rounded=1;whiteSpace=wrap;html=1;fillColor=#f8cecc;strokeColor=#b85450;fontSize=18;" parent="KaW1TfqJIeAFHNLuegCc-1" vertex="1">
          <mxGeometry x="1070" y="680" width="80" height="60" as="geometry" />
        </mxCell>
        <mxCell id="jJl6HKamd_gqL-oOaHwr-122" value="網遊競技" style="rounded=1;whiteSpace=wrap;html=1;fillColor=#f8cecc;strokeColor=#b85450;fontSize=18;" parent="KaW1TfqJIeAFHNLuegCc-1" vertex="1">
          <mxGeometry x="1167" y="680" width="80" height="60" as="geometry" />
        </mxCell>
        <mxCell id="jJl6HKamd_gqL-oOaHwr-123" value="西方魔法" style="rounded=1;whiteSpace=wrap;html=1;fillColor=#f8cecc;strokeColor=#b85450;fontSize=18;" parent="KaW1TfqJIeAFHNLuegCc-1" vertex="1">
          <mxGeometry x="1263" y="680" width="80" height="60" as="geometry" />
        </mxCell>
        <mxCell id="jJl6HKamd_gqL-oOaHwr-124" value="輕小說" style="rounded=1;whiteSpace=wrap;html=1;fillColor=#f8cecc;strokeColor=#b85450;fontSize=18;" parent="KaW1TfqJIeAFHNLuegCc-1" vertex="1">
          <mxGeometry x="1360" y="680" width="80" height="60" as="geometry" />
        </mxCell>
        <mxCell id="jJl6HKamd_gqL-oOaHwr-125" value="都會愛情" style="rounded=1;whiteSpace=wrap;html=1;fillColor=#f8cecc;strokeColor=#b85450;fontSize=18;" parent="KaW1TfqJIeAFHNLuegCc-1" vertex="1">
          <mxGeometry x="1070" y="750" width="80" height="60" as="geometry" />
        </mxCell>
        <mxCell id="jJl6HKamd_gqL-oOaHwr-145" style="edgeStyle=orthogonalEdgeStyle;rounded=0;orthogonalLoop=1;jettySize=auto;html=1;exitX=0.5;exitY=1;exitDx=0;exitDy=0;entryX=0.5;entryY=0;entryDx=0;entryDy=0;fontSize=18;" parent="KaW1TfqJIeAFHNLuegCc-1" source="jJl6HKamd_gqL-oOaHwr-127" target="jJl6HKamd_gqL-oOaHwr-144" edge="1">
          <mxGeometry relative="1" as="geometry" />
        </mxCell>
        <mxCell id="jJl6HKamd_gqL-oOaHwr-127" value="小說介紹頁" style="rounded=1;whiteSpace=wrap;html=1;fillColor=#f5f5f5;strokeColor=#666666;fontSize=18;fontColor=#333333;verticalAlign=top;" parent="KaW1TfqJIeAFHNLuegCc-1" vertex="1">
          <mxGeometry x="1070" y="860" width="360" height="240" as="geometry" />
        </mxCell>
        <mxCell id="jJl6HKamd_gqL-oOaHwr-133" value="小說內容資訊" style="rounded=1;whiteSpace=wrap;html=1;fillColor=#f8cecc;strokeColor=#b85450;fontSize=18;" parent="KaW1TfqJIeAFHNLuegCc-1" vertex="1">
          <mxGeometry x="1070" y="900" width="80" height="60" as="geometry" />
        </mxCell>
        <mxCell id="jJl6HKamd_gqL-oOaHwr-137" value="免費試閱" style="rounded=1;whiteSpace=wrap;html=1;fillColor=#e1d5e7;strokeColor=#9673a6;fontSize=18;" parent="KaW1TfqJIeAFHNLuegCc-1" vertex="1">
          <mxGeometry x="1167" y="900" width="80" height="60" as="geometry" />
        </mxCell>
        <mxCell id="jJl6HKamd_gqL-oOaHwr-138" value="購買單章節" style="rounded=1;whiteSpace=wrap;html=1;fillColor=#e1d5e7;strokeColor=#9673a6;fontSize=18;" parent="KaW1TfqJIeAFHNLuegCc-1" vertex="1">
          <mxGeometry x="1263" y="900" width="80" height="60" as="geometry" />
        </mxCell>
        <mxCell id="jJl6HKamd_gqL-oOaHwr-141" style="edgeStyle=orthogonalEdgeStyle;rounded=0;orthogonalLoop=1;jettySize=auto;html=1;exitX=1;exitY=0.5;exitDx=0;exitDy=0;entryX=0.5;entryY=0;entryDx=0;entryDy=0;fontSize=18;" parent="KaW1TfqJIeAFHNLuegCc-1" source="jJl6HKamd_gqL-oOaHwr-140" target="jJl6HKamd_gqL-oOaHwr-127" edge="1">
          <mxGeometry relative="1" as="geometry" />
        </mxCell>
        <mxCell id="jJl6HKamd_gqL-oOaHwr-140" value="小說item" style="rounded=1;whiteSpace=wrap;html=1;fillColor=#e1d5e7;strokeColor=#9673a6;fontSize=18;" parent="KaW1TfqJIeAFHNLuegCc-1" vertex="1">
          <mxGeometry x="1167" y="750" width="80" height="60" as="geometry" />
        </mxCell>
        <mxCell id="jJl6HKamd_gqL-oOaHwr-143" value="變更排序" style="rounded=1;whiteSpace=wrap;html=1;fillColor=#fff2cc;strokeColor=#d6b656;fontSize=18;" parent="KaW1TfqJIeAFHNLuegCc-1" vertex="1">
          <mxGeometry x="1070" y="980" width="80" height="60" as="geometry" />
        </mxCell>
        <mxCell id="jJl6HKamd_gqL-oOaHwr-144" value="小說內容頁" style="rounded=1;whiteSpace=wrap;html=1;fillColor=#f5f5f5;strokeColor=#666666;fontSize=18;fontColor=#333333;verticalAlign=top;" parent="KaW1TfqJIeAFHNLuegCc-1" vertex="1">
          <mxGeometry x="1070" y="1169" width="360" height="240" as="geometry" />
        </mxCell>
        <mxCell id="jJl6HKamd_gqL-oOaHwr-146" value="小說內容資訊" style="rounded=1;whiteSpace=wrap;html=1;fillColor=#f8cecc;strokeColor=#b85450;fontSize=18;" parent="KaW1TfqJIeAFHNLuegCc-1" vertex="1">
          <mxGeometry x="1070" y="1210" width="80" height="60" as="geometry" />
        </mxCell>
        <mxCell id="jJl6HKamd_gqL-oOaHwr-147" value="上一章" style="rounded=1;whiteSpace=wrap;html=1;fillColor=#fff2cc;strokeColor=#d6b656;fontSize=18;" parent="KaW1TfqJIeAFHNLuegCc-1" vertex="1">
          <mxGeometry x="1070" y="1310" width="80" height="60" as="geometry" />
        </mxCell>
        <mxCell id="jJl6HKamd_gqL-oOaHwr-148" value="下一章" style="rounded=1;whiteSpace=wrap;html=1;fillColor=#fff2cc;strokeColor=#d6b656;fontSize=18;" parent="KaW1TfqJIeAFHNLuegCc-1" vertex="1">
          <mxGeometry x="1167" y="1310" width="80" height="60" as="geometry" />
        </mxCell>
        <mxCell id="jJl6HKamd_gqL-oOaHwr-149" value="購買此章" style="rounded=1;whiteSpace=wrap;html=1;fillColor=#e1d5e7;strokeColor=#9673a6;fontSize=18;" parent="KaW1TfqJIeAFHNLuegCc-1" vertex="1">
          <mxGeometry x="1167" y="1210" width="80" height="60" as="geometry" />
        </mxCell>
        <mxCell id="jJl6HKamd_gqL-oOaHwr-150" value="文字放大" style="rounded=1;whiteSpace=wrap;html=1;fillColor=#fff2cc;strokeColor=#d6b656;fontSize=18;" parent="KaW1TfqJIeAFHNLuegCc-1" vertex="1">
          <mxGeometry x="1260" y="1210" width="80" height="60" as="geometry" />
        </mxCell>
        <mxCell id="jJl6HKamd_gqL-oOaHwr-151" value="文字縮小" style="rounded=1;whiteSpace=wrap;html=1;fillColor=#fff2cc;strokeColor=#d6b656;fontSize=18;" parent="KaW1TfqJIeAFHNLuegCc-1" vertex="1">
          <mxGeometry x="1350" y="1210" width="80" height="60" as="geometry" />
        </mxCell>
        <mxCell id="jJl6HKamd_gqL-oOaHwr-152" value="回章節介紹" style="rounded=1;whiteSpace=wrap;html=1;fillColor=#e1d5e7;strokeColor=#9673a6;fontSize=18;" parent="KaW1TfqJIeAFHNLuegCc-1" vertex="1">
          <mxGeometry x="1263" y="1310" width="80" height="60" as="geometry" />
        </mxCell>
        <mxCell id="2GPcoaCJw0jkzkUdtnLj-1" value="Banner" style="rounded=1;whiteSpace=wrap;html=1;fillColor=#f8cecc;strokeColor=#b85450;fontSize=18;" parent="KaW1TfqJIeAFHNLuegCc-1" vertex="1">
          <mxGeometry x="1630" y="270" width="120" height="60" as="geometry" />
        </mxCell>
        <mxCell id="2GPcoaCJw0jkzkUdtnLj-2" value="超商熱賣" style="rounded=1;whiteSpace=wrap;html=1;fillColor=#f8cecc;strokeColor=#b85450;fontSize=18;" parent="KaW1TfqJIeAFHNLuegCc-1" vertex="1">
          <mxGeometry x="1630" y="360" width="120" height="60" as="geometry" />
        </mxCell>
        <mxCell id="2GPcoaCJw0jkzkUdtnLj-3" value="暢銷月卡" style="rounded=1;whiteSpace=wrap;html=1;fillColor=#f8cecc;strokeColor=#b85450;fontSize=18;" parent="KaW1TfqJIeAFHNLuegCc-1" vertex="1">
          <mxGeometry x="1630" y="450" width="120" height="60" as="geometry" />
        </mxCell>
        <mxCell id="2GPcoaCJw0jkzkUdtnLj-7" value="" style="edgeStyle=orthogonalEdgeStyle;rounded=0;orthogonalLoop=1;jettySize=auto;html=1;" parent="KaW1TfqJIeAFHNLuegCc-1" source="2GPcoaCJw0jkzkUdtnLj-5" target="2GPcoaCJw0jkzkUdtnLj-6" edge="1">
          <mxGeometry relative="1" as="geometry" />
        </mxCell>
        <mxCell id="2GPcoaCJw0jkzkUdtnLj-5" value="品項內容" style="rounded=1;whiteSpace=wrap;html=1;fillColor=#f8cecc;strokeColor=#b85450;fontSize=18;" parent="KaW1TfqJIeAFHNLuegCc-1" vertex="1">
          <mxGeometry x="1630" y="540" width="120" height="60" as="geometry" />
        </mxCell>
        <mxCell id="2GPcoaCJw0jkzkUdtnLj-9" value="" style="edgeStyle=orthogonalEdgeStyle;rounded=0;orthogonalLoop=1;jettySize=auto;html=1;" parent="KaW1TfqJIeAFHNLuegCc-1" source="2GPcoaCJw0jkzkUdtnLj-6" target="2GPcoaCJw0jkzkUdtnLj-8" edge="1">
          <mxGeometry relative="1" as="geometry" />
        </mxCell>
        <mxCell id="2GPcoaCJw0jkzkUdtnLj-6" value="查看" style="rounded=1;whiteSpace=wrap;html=1;fillColor=#e1d5e7;strokeColor=#9673a6;fontSize=18;" parent="KaW1TfqJIeAFHNLuegCc-1" vertex="1">
          <mxGeometry x="1650" y="628" width="80" height="60" as="geometry" />
        </mxCell>
        <mxCell id="2GPcoaCJw0jkzkUdtnLj-8" value="品項頁面" style="rounded=1;whiteSpace=wrap;html=1;fillColor=#f5f5f5;fontColor=#333333;strokeColor=#666666;fontSize=18;verticalAlign=top;" parent="KaW1TfqJIeAFHNLuegCc-1" vertex="1">
          <mxGeometry x="1630" y="720" width="120" height="200" as="geometry" />
        </mxCell>
        <mxCell id="2GPcoaCJw0jkzkUdtnLj-15" style="edgeStyle=orthogonalEdgeStyle;rounded=0;orthogonalLoop=1;jettySize=auto;html=1;exitX=1;exitY=0.5;exitDx=0;exitDy=0;entryX=0.5;entryY=0;entryDx=0;entryDy=0;" parent="KaW1TfqJIeAFHNLuegCc-1" source="2GPcoaCJw0jkzkUdtnLj-10" target="2GPcoaCJw0jkzkUdtnLj-13" edge="1">
          <mxGeometry relative="1" as="geometry">
            <Array as="points">
              <mxPoint x="1770" y="790" />
              <mxPoint x="1770" y="930" />
              <mxPoint x="1690" y="930" />
            </Array>
          </mxGeometry>
        </mxCell>
        <mxCell id="2GPcoaCJw0jkzkUdtnLj-10" value="購買" style="rounded=1;whiteSpace=wrap;html=1;fillColor=#e1d5e7;strokeColor=#9673a6;fontSize=18;" parent="KaW1TfqJIeAFHNLuegCc-1" vertex="1">
          <mxGeometry x="1650" y="760" width="80" height="60" as="geometry" />
        </mxCell>
        <mxCell id="2GPcoaCJw0jkzkUdtnLj-11" value="回列表" style="rounded=1;whiteSpace=wrap;html=1;fillColor=#e1d5e7;strokeColor=#9673a6;fontSize=18;" parent="KaW1TfqJIeAFHNLuegCc-1" vertex="1">
          <mxGeometry x="1650" y="840" width="80" height="60" as="geometry" />
        </mxCell>
        <mxCell id="2GPcoaCJw0jkzkUdtnLj-13" value="確定視窗" style="rounded=1;whiteSpace=wrap;html=1;fillColor=#d5e8d4;strokeColor=#82b366;fontSize=18;verticalAlign=top;" parent="KaW1TfqJIeAFHNLuegCc-1" vertex="1">
          <mxGeometry x="1630" y="960" width="120" height="150" as="geometry" />
        </mxCell>
        <mxCell id="2GPcoaCJw0jkzkUdtnLj-14" value="查看" style="rounded=1;whiteSpace=wrap;html=1;fillColor=#e1d5e7;strokeColor=#9673a6;fontSize=18;" parent="KaW1TfqJIeAFHNLuegCc-1" vertex="1">
          <mxGeometry x="1654" y="1010" width="80" height="60" as="geometry" />
        </mxCell>
        <mxCell id="2GPcoaCJw0jkzkUdtnLj-16" value="卡號綁定教學" style="rounded=1;whiteSpace=wrap;html=1;fillColor=#d5e8d4;strokeColor=#82b366;fontSize=18;verticalAlign=top;" parent="KaW1TfqJIeAFHNLuegCc-1" vertex="1">
          <mxGeometry x="2630" y="170" width="120" height="160" as="geometry" />
        </mxCell>
        <mxCell id="2GPcoaCJw0jkzkUdtnLj-17" value="下次不再顯示" style="rounded=1;whiteSpace=wrap;html=1;fillColor=#e1d5e7;strokeColor=#9673a6;fontSize=18;" parent="KaW1TfqJIeAFHNLuegCc-1" vertex="1">
          <mxGeometry x="2650" y="240" width="80" height="60" as="geometry" />
        </mxCell>
        <mxCell id="2GPcoaCJw0jkzkUdtnLj-20" value="帳號資訊" style="rounded=1;whiteSpace=wrap;html=1;fillColor=#f8cecc;strokeColor=#b85450;fontSize=18;" parent="KaW1TfqJIeAFHNLuegCc-1" vertex="1">
          <mxGeometry x="1990" y="270" width="120" height="60" as="geometry" />
        </mxCell>
        <mxCell id="2GPcoaCJw0jkzkUdtnLj-21" value="平台點數" style="rounded=1;whiteSpace=wrap;html=1;fillColor=#f8cecc;strokeColor=#b85450;fontSize=18;" parent="KaW1TfqJIeAFHNLuegCc-1" vertex="1">
          <mxGeometry x="2130" y="270" width="120" height="60" as="geometry" />
        </mxCell>
        <mxCell id="2GPcoaCJw0jkzkUdtnLj-22" value="中國信託紅利點數" style="rounded=1;whiteSpace=wrap;html=1;fillColor=#f8cecc;strokeColor=#b85450;fontSize=18;" parent="KaW1TfqJIeAFHNLuegCc-1" vertex="1">
          <mxGeometry x="2270" y="270" width="120" height="60" as="geometry" />
        </mxCell>
        <mxCell id="2GPcoaCJw0jkzkUdtnLj-76" style="edgeStyle=orthogonalEdgeStyle;rounded=0;orthogonalLoop=1;jettySize=auto;html=1;exitX=1;exitY=0.5;exitDx=0;exitDy=0;entryX=0.5;entryY=1;entryDx=0;entryDy=0;strokeColor=#000000;" parent="KaW1TfqJIeAFHNLuegCc-1" source="2GPcoaCJw0jkzkUdtnLj-23" target="2GPcoaCJw0jkzkUdtnLj-69" edge="1">
          <mxGeometry relative="1" as="geometry">
            <Array as="points">
              <mxPoint x="2610" y="300" />
              <mxPoint x="2610" y="350" />
              <mxPoint x="2790" y="350" />
              <mxPoint x="2790" y="440" />
              <mxPoint x="3070" y="440" />
            </Array>
          </mxGeometry>
        </mxCell>
        <mxCell id="2GPcoaCJw0jkzkUdtnLj-23" value="綁定" style="rounded=1;whiteSpace=wrap;html=1;fillColor=#e1d5e7;strokeColor=#9673a6;fontSize=18;" parent="KaW1TfqJIeAFHNLuegCc-1" vertex="1">
          <mxGeometry x="2520" y="270" width="80" height="60" as="geometry" />
        </mxCell>
        <mxCell id="2GPcoaCJw0jkzkUdtnLj-25" value="選單" style="rounded=1;whiteSpace=wrap;html=1;fillColor=#dae8fc;strokeColor=#6c8ebf;fontSize=18;" parent="KaW1TfqJIeAFHNLuegCc-1" vertex="1">
          <mxGeometry x="25" y="220" width="120" height="60" as="geometry" />
        </mxCell>
        <mxCell id="2GPcoaCJw0jkzkUdtnLj-33" style="edgeStyle=orthogonalEdgeStyle;rounded=0;orthogonalLoop=1;jettySize=auto;html=1;exitX=1;exitY=0.5;exitDx=0;exitDy=0;entryX=0;entryY=0.5;entryDx=0;entryDy=0;" parent="KaW1TfqJIeAFHNLuegCc-1" source="2GPcoaCJw0jkzkUdtnLj-26" target="2GPcoaCJw0jkzkUdtnLj-20" edge="1">
          <mxGeometry relative="1" as="geometry" />
        </mxCell>
        <mxCell id="2GPcoaCJw0jkzkUdtnLj-26" value="帳號資訊" style="rounded=1;whiteSpace=wrap;html=1;fillColor=#ffe6cc;strokeColor=#d79b00;fontSize=18;" parent="KaW1TfqJIeAFHNLuegCc-1" vertex="1">
          <mxGeometry x="1810" y="270" width="120" height="60" as="geometry" />
        </mxCell>
        <mxCell id="2GPcoaCJw0jkzkUdtnLj-65" value="" style="edgeStyle=orthogonalEdgeStyle;rounded=0;orthogonalLoop=1;jettySize=auto;html=1;strokeColor=#000000;" parent="KaW1TfqJIeAFHNLuegCc-1" source="2GPcoaCJw0jkzkUdtnLj-27" target="2GPcoaCJw0jkzkUdtnLj-60" edge="1">
          <mxGeometry relative="1" as="geometry" />
        </mxCell>
        <mxCell id="2GPcoaCJw0jkzkUdtnLj-27" value="修改資料" style="rounded=1;whiteSpace=wrap;html=1;fillColor=#ffe6cc;strokeColor=#d79b00;fontSize=18;" parent="KaW1TfqJIeAFHNLuegCc-1" vertex="1">
          <mxGeometry x="1810" y="360" width="120" height="60" as="geometry" />
        </mxCell>
        <mxCell id="2GPcoaCJw0jkzkUdtnLj-97" style="edgeStyle=orthogonalEdgeStyle;rounded=0;orthogonalLoop=1;jettySize=auto;html=1;exitX=1;exitY=0.5;exitDx=0;exitDy=0;entryX=0;entryY=0.25;entryDx=0;entryDy=0;strokeColor=#000000;" parent="KaW1TfqJIeAFHNLuegCc-1" source="2GPcoaCJw0jkzkUdtnLj-28" target="2GPcoaCJw0jkzkUdtnLj-42" edge="1">
          <mxGeometry relative="1" as="geometry" />
        </mxCell>
        <mxCell id="2GPcoaCJw0jkzkUdtnLj-28" value="點數儲值" style="rounded=1;whiteSpace=wrap;html=1;fillColor=#ffe6cc;strokeColor=#d79b00;fontSize=18;" parent="KaW1TfqJIeAFHNLuegCc-1" vertex="1">
          <mxGeometry x="1810" y="450" width="120" height="60" as="geometry" />
        </mxCell>
        <mxCell id="2GPcoaCJw0jkzkUdtnLj-95" style="edgeStyle=orthogonalEdgeStyle;rounded=0;orthogonalLoop=1;jettySize=auto;html=1;exitX=1;exitY=0.5;exitDx=0;exitDy=0;entryX=0;entryY=0.5;entryDx=0;entryDy=0;strokeColor=#000000;" parent="KaW1TfqJIeAFHNLuegCc-1" source="2GPcoaCJw0jkzkUdtnLj-29" target="2GPcoaCJw0jkzkUdtnLj-82" edge="1">
          <mxGeometry relative="1" as="geometry" />
        </mxCell>
        <mxCell id="2GPcoaCJw0jkzkUdtnLj-29" value="點數紀錄" style="rounded=1;whiteSpace=wrap;html=1;fillColor=#ffe6cc;strokeColor=#d79b00;fontSize=18;" parent="KaW1TfqJIeAFHNLuegCc-1" vertex="1">
          <mxGeometry x="1810" y="790" width="120" height="60" as="geometry" />
        </mxCell>
        <mxCell id="2GPcoaCJw0jkzkUdtnLj-94" style="edgeStyle=orthogonalEdgeStyle;rounded=0;orthogonalLoop=1;jettySize=auto;html=1;exitX=1;exitY=0.5;exitDx=0;exitDy=0;strokeColor=#000000;" parent="KaW1TfqJIeAFHNLuegCc-1" source="2GPcoaCJw0jkzkUdtnLj-30" target="2GPcoaCJw0jkzkUdtnLj-93" edge="1">
          <mxGeometry relative="1" as="geometry" />
        </mxCell>
        <mxCell id="2GPcoaCJw0jkzkUdtnLj-30" value="聯絡客服" style="rounded=1;whiteSpace=wrap;html=1;fillColor=#ffe6cc;strokeColor=#d79b00;fontSize=18;" parent="KaW1TfqJIeAFHNLuegCc-1" vertex="1">
          <mxGeometry x="1810" y="878" width="120" height="60" as="geometry" />
        </mxCell>
        <mxCell id="2GPcoaCJw0jkzkUdtnLj-99" value="" style="edgeStyle=orthogonalEdgeStyle;rounded=0;orthogonalLoop=1;jettySize=auto;html=1;strokeColor=#000000;" parent="KaW1TfqJIeAFHNLuegCc-1" source="2GPcoaCJw0jkzkUdtnLj-32" target="2GPcoaCJw0jkzkUdtnLj-98" edge="1">
          <mxGeometry relative="1" as="geometry" />
        </mxCell>
        <mxCell id="2GPcoaCJw0jkzkUdtnLj-32" value="會員登出" style="rounded=1;whiteSpace=wrap;html=1;fillColor=#e1d5e7;strokeColor=#9673a6;fontSize=18;" parent="KaW1TfqJIeAFHNLuegCc-1" vertex="1">
          <mxGeometry x="1810" y="960" width="120" height="60" as="geometry" />
        </mxCell>
        <mxCell id="2GPcoaCJw0jkzkUdtnLj-43" style="edgeStyle=orthogonalEdgeStyle;rounded=0;orthogonalLoop=1;jettySize=auto;html=1;exitX=0.5;exitY=1;exitDx=0;exitDy=0;entryX=1;entryY=0.5;entryDx=0;entryDy=0;" parent="KaW1TfqJIeAFHNLuegCc-1" source="2GPcoaCJw0jkzkUdtnLj-41" target="2GPcoaCJw0jkzkUdtnLj-42" edge="1">
          <mxGeometry relative="1" as="geometry">
            <Array as="points">
              <mxPoint x="2460" y="340" />
              <mxPoint x="2400" y="340" />
              <mxPoint x="2400" y="600" />
            </Array>
          </mxGeometry>
        </mxCell>
        <mxCell id="2GPcoaCJw0jkzkUdtnLj-41" value="儲值" style="rounded=1;whiteSpace=wrap;html=1;fillColor=#e1d5e7;strokeColor=#9673a6;fontSize=18;" parent="KaW1TfqJIeAFHNLuegCc-1" vertex="1">
          <mxGeometry x="2420" y="270" width="80" height="60" as="geometry" />
        </mxCell>
        <mxCell id="2GPcoaCJw0jkzkUdtnLj-42" value="儲值頁面" style="rounded=1;whiteSpace=wrap;html=1;fillColor=#f5f5f5;fontColor=#333333;strokeColor=#666666;fontSize=18;verticalAlign=top;" parent="KaW1TfqJIeAFHNLuegCc-1" vertex="1">
          <mxGeometry x="1990" y="450" width="250" height="300" as="geometry" />
        </mxCell>
        <mxCell id="2GPcoaCJw0jkzkUdtnLj-58" value="" style="edgeStyle=orthogonalEdgeStyle;rounded=0;orthogonalLoop=1;jettySize=auto;html=1;strokeColor=#CC0000;" parent="KaW1TfqJIeAFHNLuegCc-1" source="2GPcoaCJw0jkzkUdtnLj-44" target="2GPcoaCJw0jkzkUdtnLj-48" edge="1">
          <mxGeometry relative="1" as="geometry" />
        </mxCell>
        <mxCell id="2GPcoaCJw0jkzkUdtnLj-44" value="紅利點兌換" style="rounded=1;whiteSpace=wrap;html=1;fillColor=#e1d5e7;strokeColor=#9673a6;fontSize=18;" parent="KaW1TfqJIeAFHNLuegCc-1" vertex="1">
          <mxGeometry x="2010" y="500" width="80" height="60" as="geometry" />
        </mxCell>
        <mxCell id="2GPcoaCJw0jkzkUdtnLj-59" value="" style="edgeStyle=orthogonalEdgeStyle;rounded=0;orthogonalLoop=1;jettySize=auto;html=1;strokeColor=#000000;" parent="KaW1TfqJIeAFHNLuegCc-1" source="2GPcoaCJw0jkzkUdtnLj-45" target="2GPcoaCJw0jkzkUdtnLj-47" edge="1">
          <mxGeometry relative="1" as="geometry" />
        </mxCell>
        <mxCell id="2GPcoaCJw0jkzkUdtnLj-45" value="信用卡" style="rounded=1;whiteSpace=wrap;html=1;fillColor=#e1d5e7;strokeColor=#9673a6;fontSize=18;" parent="KaW1TfqJIeAFHNLuegCc-1" vertex="1">
          <mxGeometry x="2010" y="580" width="80" height="60" as="geometry" />
        </mxCell>
        <mxCell id="2GPcoaCJw0jkzkUdtnLj-79" style="edgeStyle=orthogonalEdgeStyle;rounded=0;orthogonalLoop=1;jettySize=auto;html=1;exitX=1;exitY=0.5;exitDx=0;exitDy=0;entryX=0;entryY=0.5;entryDx=0;entryDy=0;strokeColor=#CC0000;" parent="KaW1TfqJIeAFHNLuegCc-1" source="2GPcoaCJw0jkzkUdtnLj-46" target="2GPcoaCJw0jkzkUdtnLj-56" edge="1">
          <mxGeometry relative="1" as="geometry" />
        </mxCell>
        <mxCell id="2GPcoaCJw0jkzkUdtnLj-80" style="edgeStyle=orthogonalEdgeStyle;rounded=0;orthogonalLoop=1;jettySize=auto;html=1;exitX=0.5;exitY=1;exitDx=0;exitDy=0;entryX=0;entryY=0.5;entryDx=0;entryDy=0;strokeColor=#000000;" parent="KaW1TfqJIeAFHNLuegCc-1" source="2GPcoaCJw0jkzkUdtnLj-46" target="2GPcoaCJw0jkzkUdtnLj-49" edge="1">
          <mxGeometry relative="1" as="geometry">
            <Array as="points">
              <mxPoint x="2160" y="750" />
              <mxPoint x="2510" y="750" />
              <mxPoint x="2510" y="680" />
            </Array>
          </mxGeometry>
        </mxCell>
        <mxCell id="2GPcoaCJw0jkzkUdtnLj-46" value="前往儲值" style="rounded=1;whiteSpace=wrap;html=1;fillColor=#e1d5e7;strokeColor=#9673a6;fontSize=18;" parent="KaW1TfqJIeAFHNLuegCc-1" vertex="1">
          <mxGeometry x="2120" y="670" width="80" height="60" as="geometry" />
        </mxCell>
        <mxCell id="2GPcoaCJw0jkzkUdtnLj-78" style="edgeStyle=orthogonalEdgeStyle;rounded=0;orthogonalLoop=1;jettySize=auto;html=1;entryX=0.5;entryY=0;entryDx=0;entryDy=0;strokeColor=#000000;" parent="KaW1TfqJIeAFHNLuegCc-1" source="2GPcoaCJw0jkzkUdtnLj-47" target="2GPcoaCJw0jkzkUdtnLj-46" edge="1">
          <mxGeometry relative="1" as="geometry" />
        </mxCell>
        <mxCell id="2GPcoaCJw0jkzkUdtnLj-47" value="儲值點數選擇" style="rounded=1;whiteSpace=wrap;html=1;fillColor=#fff2cc;strokeColor=#000000;fontSize=18;" parent="KaW1TfqJIeAFHNLuegCc-1" vertex="1">
          <mxGeometry x="2120" y="580" width="80" height="60" as="geometry" />
        </mxCell>
        <mxCell id="2GPcoaCJw0jkzkUdtnLj-77" style="edgeStyle=orthogonalEdgeStyle;rounded=0;orthogonalLoop=1;jettySize=auto;html=1;exitX=0;exitY=0.75;exitDx=0;exitDy=0;entryX=0;entryY=0.5;entryDx=0;entryDy=0;strokeColor=#CC0000;" parent="KaW1TfqJIeAFHNLuegCc-1" source="2GPcoaCJw0jkzkUdtnLj-48" target="2GPcoaCJw0jkzkUdtnLj-46" edge="1">
          <mxGeometry relative="1" as="geometry" />
        </mxCell>
        <mxCell id="2GPcoaCJw0jkzkUdtnLj-48" value="點數面額選擇" style="rounded=1;whiteSpace=wrap;html=1;fillColor=#fff2cc;strokeColor=#d6b656;fontSize=18;" parent="KaW1TfqJIeAFHNLuegCc-1" vertex="1">
          <mxGeometry x="2120" y="500" width="80" height="60" as="geometry" />
        </mxCell>
        <mxCell id="2GPcoaCJw0jkzkUdtnLj-49" value="中國信託儲值頁面" style="rounded=1;whiteSpace=wrap;html=1;fillColor=#f5f5f5;fontColor=#333333;strokeColor=#666666;fontSize=18;verticalAlign=middle;" parent="KaW1TfqJIeAFHNLuegCc-1" vertex="1">
          <mxGeometry x="2530" y="640" width="200" height="80" as="geometry" />
        </mxCell>
        <mxCell id="2GPcoaCJw0jkzkUdtnLj-56" value="點數交換頁面" style="rounded=1;whiteSpace=wrap;html=1;fillColor=#f5f5f5;fontColor=#333333;strokeColor=#666666;fontSize=18;verticalAlign=middle;" parent="KaW1TfqJIeAFHNLuegCc-1" vertex="1">
          <mxGeometry x="2300" y="640" width="200" height="80" as="geometry" />
        </mxCell>
        <mxCell id="2GPcoaCJw0jkzkUdtnLj-60" value="&lt;div&gt;平台帳號&lt;/div&gt;&lt;div&gt;(平台名稱)&lt;br&gt;&lt;/div&gt;" style="rounded=1;whiteSpace=wrap;html=1;fillColor=#f8cecc;strokeColor=#b85450;fontSize=18;" parent="KaW1TfqJIeAFHNLuegCc-1" vertex="1">
          <mxGeometry x="1990" y="360" width="120" height="60" as="geometry" />
        </mxCell>
        <mxCell id="2GPcoaCJw0jkzkUdtnLj-61" value="平台點數" style="rounded=1;whiteSpace=wrap;html=1;fillColor=#f8cecc;strokeColor=#b85450;fontSize=18;" parent="KaW1TfqJIeAFHNLuegCc-1" vertex="1">
          <mxGeometry x="2130" y="360" width="120" height="60" as="geometry" />
        </mxCell>
        <mxCell id="2GPcoaCJw0jkzkUdtnLj-62" value="中國信託紅利點數" style="rounded=1;whiteSpace=wrap;html=1;fillColor=#f8cecc;strokeColor=#b85450;fontSize=18;" parent="KaW1TfqJIeAFHNLuegCc-1" vertex="1">
          <mxGeometry x="2270" y="360" width="120" height="60" as="geometry" />
        </mxCell>
        <mxCell id="2GPcoaCJw0jkzkUdtnLj-63" value="會員名稱" style="rounded=1;whiteSpace=wrap;html=1;fillColor=#f8cecc;strokeColor=#b85450;fontSize=18;" parent="KaW1TfqJIeAFHNLuegCc-1" vertex="1">
          <mxGeometry x="2410" y="360" width="120" height="60" as="geometry" />
        </mxCell>
        <mxCell id="2GPcoaCJw0jkzkUdtnLj-64" value="紅利綁定" style="rounded=1;whiteSpace=wrap;html=1;fillColor=#f8cecc;strokeColor=#b85450;fontSize=18;" parent="KaW1TfqJIeAFHNLuegCc-1" vertex="1">
          <mxGeometry x="2550" y="360" width="120" height="60" as="geometry" />
        </mxCell>
        <mxCell id="2GPcoaCJw0jkzkUdtnLj-75" style="edgeStyle=orthogonalEdgeStyle;rounded=0;orthogonalLoop=1;jettySize=auto;html=1;exitX=0.5;exitY=1;exitDx=0;exitDy=0;entryX=0.5;entryY=1;entryDx=0;entryDy=0;strokeColor=#000000;" parent="KaW1TfqJIeAFHNLuegCc-1" source="2GPcoaCJw0jkzkUdtnLj-66" target="2GPcoaCJw0jkzkUdtnLj-69" edge="1">
          <mxGeometry relative="1" as="geometry" />
        </mxCell>
        <mxCell id="2GPcoaCJw0jkzkUdtnLj-66" value="綁定" style="rounded=1;whiteSpace=wrap;html=1;fillColor=#e1d5e7;strokeColor=#9673a6;fontSize=18;" parent="KaW1TfqJIeAFHNLuegCc-1" vertex="1">
          <mxGeometry x="2810" y="360" width="80" height="60" as="geometry" />
        </mxCell>
        <mxCell id="2GPcoaCJw0jkzkUdtnLj-74" style="edgeStyle=orthogonalEdgeStyle;rounded=0;orthogonalLoop=1;jettySize=auto;html=1;exitX=0.5;exitY=1;exitDx=0;exitDy=0;entryX=1;entryY=0.5;entryDx=0;entryDy=0;strokeColor=#000000;" parent="KaW1TfqJIeAFHNLuegCc-1" source="2GPcoaCJw0jkzkUdtnLj-67" target="2GPcoaCJw0jkzkUdtnLj-42" edge="1">
          <mxGeometry relative="1" as="geometry" />
        </mxCell>
        <mxCell id="2GPcoaCJw0jkzkUdtnLj-67" value="儲值" style="rounded=1;whiteSpace=wrap;html=1;fillColor=#e1d5e7;strokeColor=#9673a6;fontSize=18;" parent="KaW1TfqJIeAFHNLuegCc-1" vertex="1">
          <mxGeometry x="2700" y="360" width="80" height="60" as="geometry" />
        </mxCell>
        <mxCell id="2GPcoaCJw0jkzkUdtnLj-68" value="修改送出" style="rounded=1;whiteSpace=wrap;html=1;fillColor=#e1d5e7;strokeColor=#9673a6;fontSize=18;" parent="KaW1TfqJIeAFHNLuegCc-1" vertex="1">
          <mxGeometry x="2920" y="360" width="80" height="60" as="geometry" />
        </mxCell>
        <mxCell id="2GPcoaCJw0jkzkUdtnLj-69" value="紅利綁定表單" style="rounded=1;whiteSpace=wrap;html=1;fillColor=#e1d5e7;strokeColor=#9673a6;fontSize=18;" parent="KaW1TfqJIeAFHNLuegCc-1" vertex="1">
          <mxGeometry x="3030" y="360" width="80" height="60" as="geometry" />
        </mxCell>
        <mxCell id="2GPcoaCJw0jkzkUdtnLj-70" value="最近玩過的遊戲" style="rounded=1;whiteSpace=wrap;html=1;fillColor=#f8cecc;strokeColor=#b85450;fontSize=18;" parent="KaW1TfqJIeAFHNLuegCc-1" vertex="1">
          <mxGeometry x="2780" y="270" width="120" height="60" as="geometry" />
        </mxCell>
        <mxCell id="2GPcoaCJw0jkzkUdtnLj-71" value="最近閱讀的小說" style="rounded=1;whiteSpace=wrap;html=1;fillColor=#f8cecc;strokeColor=#b85450;fontSize=18;" parent="KaW1TfqJIeAFHNLuegCc-1" vertex="1">
          <mxGeometry x="2920" y="270" width="120" height="60" as="geometry" />
        </mxCell>
        <mxCell id="2GPcoaCJw0jkzkUdtnLj-72" value="最近閱讀的雜誌" style="rounded=1;whiteSpace=wrap;html=1;fillColor=#f8cecc;strokeColor=#b85450;fontSize=18;" parent="KaW1TfqJIeAFHNLuegCc-1" vertex="1">
          <mxGeometry x="3060" y="270" width="120" height="60" as="geometry" />
        </mxCell>
        <mxCell id="2GPcoaCJw0jkzkUdtnLj-73" value="最近閱讀的電子書" style="rounded=1;whiteSpace=wrap;html=1;fillColor=#f8cecc;strokeColor=#b85450;fontSize=18;" parent="KaW1TfqJIeAFHNLuegCc-1" vertex="1">
          <mxGeometry x="3200" y="270" width="120" height="60" as="geometry" />
        </mxCell>
        <mxCell id="2GPcoaCJw0jkzkUdtnLj-82" value="點數紀錄" style="rounded=1;whiteSpace=wrap;html=1;fillColor=#f8cecc;strokeColor=#b85450;fontSize=18;" parent="KaW1TfqJIeAFHNLuegCc-1" vertex="1">
          <mxGeometry x="1990" y="790" width="120" height="60" as="geometry" />
        </mxCell>
        <mxCell id="2GPcoaCJw0jkzkUdtnLj-83" value="查詢紀錄類型" style="rounded=1;whiteSpace=wrap;html=1;fillColor=#f8cecc;strokeColor=#b85450;fontSize=18;" parent="KaW1TfqJIeAFHNLuegCc-1" vertex="1">
          <mxGeometry x="2140" y="790" width="120" height="60" as="geometry" />
        </mxCell>
        <mxCell id="2GPcoaCJw0jkzkUdtnLj-84" value="查詢日期區間" style="rounded=1;whiteSpace=wrap;html=1;fillColor=#f8cecc;strokeColor=#b85450;fontSize=18;" parent="KaW1TfqJIeAFHNLuegCc-1" vertex="1">
          <mxGeometry x="2290" y="790" width="120" height="60" as="geometry" />
        </mxCell>
        <mxCell id="2GPcoaCJw0jkzkUdtnLj-85" value="累計儲值/消費資料" style="rounded=1;whiteSpace=wrap;html=1;fillColor=#f8cecc;strokeColor=#b85450;fontSize=18;" parent="KaW1TfqJIeAFHNLuegCc-1" vertex="1">
          <mxGeometry x="2650" y="790" width="120" height="60" as="geometry" />
        </mxCell>
        <mxCell id="2GPcoaCJw0jkzkUdtnLj-86" value="詳細資料" style="rounded=1;whiteSpace=wrap;html=1;fillColor=#d5e8d4;strokeColor=#82b366;fontSize=18;verticalAlign=middle;" parent="KaW1TfqJIeAFHNLuegCc-1" vertex="1">
          <mxGeometry x="2930" y="787" width="120" height="66" as="geometry" />
        </mxCell>
        <mxCell id="2GPcoaCJw0jkzkUdtnLj-88" style="edgeStyle=orthogonalEdgeStyle;rounded=0;orthogonalLoop=1;jettySize=auto;html=1;exitX=1;exitY=0.5;exitDx=0;exitDy=0;entryX=0;entryY=0.5;entryDx=0;entryDy=0;strokeColor=#000000;" parent="KaW1TfqJIeAFHNLuegCc-1" source="2GPcoaCJw0jkzkUdtnLj-87" target="2GPcoaCJw0jkzkUdtnLj-86" edge="1">
          <mxGeometry relative="1" as="geometry" />
        </mxCell>
        <mxCell id="2GPcoaCJw0jkzkUdtnLj-87" value="查看" style="rounded=1;whiteSpace=wrap;html=1;fillColor=#e1d5e7;strokeColor=#9673a6;fontSize=18;" parent="KaW1TfqJIeAFHNLuegCc-1" vertex="1">
          <mxGeometry x="2790" y="790" width="80" height="60" as="geometry" />
        </mxCell>
        <mxCell id="2GPcoaCJw0jkzkUdtnLj-92" style="edgeStyle=orthogonalEdgeStyle;rounded=0;orthogonalLoop=1;jettySize=auto;html=1;exitX=0.5;exitY=0;exitDx=0;exitDy=0;entryX=0.5;entryY=0;entryDx=0;entryDy=0;strokeColor=#000000;" parent="KaW1TfqJIeAFHNLuegCc-1" source="2GPcoaCJw0jkzkUdtnLj-89" target="2GPcoaCJw0jkzkUdtnLj-85" edge="1">
          <mxGeometry relative="1" as="geometry" />
        </mxCell>
        <mxCell id="2GPcoaCJw0jkzkUdtnLj-89" value="最近90天" style="rounded=1;whiteSpace=wrap;html=1;fillColor=#e1d5e7;strokeColor=#9673a6;fontSize=18;" parent="KaW1TfqJIeAFHNLuegCc-1" vertex="1">
          <mxGeometry x="2440" y="790" width="80" height="60" as="geometry" />
        </mxCell>
        <mxCell id="2GPcoaCJw0jkzkUdtnLj-91" style="edgeStyle=orthogonalEdgeStyle;rounded=0;orthogonalLoop=1;jettySize=auto;html=1;exitX=1;exitY=0.5;exitDx=0;exitDy=0;strokeColor=#000000;" parent="KaW1TfqJIeAFHNLuegCc-1" source="2GPcoaCJw0jkzkUdtnLj-90" target="2GPcoaCJw0jkzkUdtnLj-85" edge="1">
          <mxGeometry relative="1" as="geometry" />
        </mxCell>
        <mxCell id="2GPcoaCJw0jkzkUdtnLj-90" value="查詢" style="rounded=1;whiteSpace=wrap;html=1;fillColor=#e1d5e7;strokeColor=#9673a6;fontSize=18;" parent="KaW1TfqJIeAFHNLuegCc-1" vertex="1">
          <mxGeometry x="2540" y="790" width="80" height="60" as="geometry" />
        </mxCell>
        <mxCell id="2GPcoaCJw0jkzkUdtnLj-93" value="客服表單" style="rounded=1;whiteSpace=wrap;html=1;fillColor=#f5f5f5;fontColor=#333333;strokeColor=#666666;fontSize=18;verticalAlign=middle;" parent="KaW1TfqJIeAFHNLuegCc-1" vertex="1">
          <mxGeometry x="1990" y="868" width="200" height="80" as="geometry" />
        </mxCell>
        <mxCell id="2GPcoaCJw0jkzkUdtnLj-98" value="確定登出" style="rounded=1;whiteSpace=wrap;html=1;fillColor=#d5e8d4;strokeColor=#82b366;fontSize=18;verticalAlign=middle;" parent="KaW1TfqJIeAFHNLuegCc-1" vertex="1">
          <mxGeometry x="1990" y="957" width="120" height="66" as="geometry" />
        </mxCell>
      </root>
    </mxGraphModel>
  </diagram>
  <diagram name="sitemap-1117" id="Ze-ZjjI0Bvv2QOvtcoPa">
    <mxGraphModel dx="1673" dy="918" grid="1" gridSize="10" guides="1" tooltips="1" connect="1" arrows="1" fold="1" page="1" pageScale="1" pageWidth="827" pageHeight="1169" math="0" shadow="0">
      <root>
        <mxCell id="Ys5hY5i7SfUJTXYO6Fxr-0" />
        <mxCell id="Ys5hY5i7SfUJTXYO6Fxr-1" parent="Ys5hY5i7SfUJTXYO6Fxr-0" />
        <mxCell id="Ys5hY5i7SfUJTXYO6Fxr-2" value="圖例說明" style="rounded=0;whiteSpace=wrap;html=1;strokeColor=#000000;verticalAlign=top;fontSize=32;" parent="Ys5hY5i7SfUJTXYO6Fxr-1" vertex="1">
          <mxGeometry x="10" y="30" width="150" height="740" as="geometry" />
        </mxCell>
        <mxCell id="Ys5hY5i7SfUJTXYO6Fxr-6" value="頁面" style="rounded=1;whiteSpace=wrap;html=1;fillColor=#f5f5f5;fontColor=#333333;strokeColor=#666666;fontSize=18;" parent="Ys5hY5i7SfUJTXYO6Fxr-1" vertex="1">
          <mxGeometry x="25" y="130" width="120" height="60" as="geometry" />
        </mxCell>
        <mxCell id="Ys5hY5i7SfUJTXYO6Fxr-7" value="選單" style="rounded=1;whiteSpace=wrap;html=1;fillColor=#dae8fc;strokeColor=#6c8ebf;fontSize=18;" parent="Ys5hY5i7SfUJTXYO6Fxr-1" vertex="1">
          <mxGeometry x="840" y="30" width="120" height="60" as="geometry" />
        </mxCell>
        <mxCell id="Ys5hY5i7SfUJTXYO6Fxr-8" value="燈箱視窗" style="rounded=1;whiteSpace=wrap;html=1;fillColor=#d5e8d4;strokeColor=#82b366;fontSize=18;" parent="Ys5hY5i7SfUJTXYO6Fxr-1" vertex="1">
          <mxGeometry x="25" y="310" width="120" height="60" as="geometry" />
        </mxCell>
        <mxCell id="Ys5hY5i7SfUJTXYO6Fxr-9" value="頁籤" style="rounded=1;whiteSpace=wrap;html=1;fillColor=#ffe6cc;strokeColor=#d79b00;fontSize=18;" parent="Ys5hY5i7SfUJTXYO6Fxr-1" vertex="1">
          <mxGeometry x="25" y="400" width="120" height="60" as="geometry" />
        </mxCell>
        <mxCell id="Ys5hY5i7SfUJTXYO6Fxr-10" value="功能" style="rounded=1;whiteSpace=wrap;html=1;fillColor=#fff2cc;strokeColor=#d6b656;fontSize=18;" parent="Ys5hY5i7SfUJTXYO6Fxr-1" vertex="1">
          <mxGeometry x="25" y="500" width="120" height="60" as="geometry" />
        </mxCell>
        <mxCell id="Ys5hY5i7SfUJTXYO6Fxr-11" value="遊戲(首頁)" style="rounded=1;whiteSpace=wrap;html=1;fillColor=#f5f5f5;strokeColor=#666666;fontSize=18;fontColor=#333333;" parent="Ys5hY5i7SfUJTXYO6Fxr-1" vertex="1">
          <mxGeometry x="180" y="180" width="120" height="60" as="geometry" />
        </mxCell>
        <mxCell id="Ys5hY5i7SfUJTXYO6Fxr-12" style="edgeStyle=orthogonalEdgeStyle;rounded=0;orthogonalLoop=1;jettySize=auto;html=1;exitX=0.5;exitY=1;exitDx=0;exitDy=0;entryX=0;entryY=0.5;entryDx=0;entryDy=0;fontSize=18;" parent="Ys5hY5i7SfUJTXYO6Fxr-1" source="Ys5hY5i7SfUJTXYO6Fxr-14" target="Ys5hY5i7SfUJTXYO6Fxr-40" edge="1">
          <mxGeometry relative="1" as="geometry" />
        </mxCell>
        <mxCell id="Ys5hY5i7SfUJTXYO6Fxr-13" style="edgeStyle=orthogonalEdgeStyle;rounded=0;orthogonalLoop=1;jettySize=auto;html=1;exitX=0.5;exitY=1;exitDx=0;exitDy=0;entryX=0;entryY=0.5;entryDx=0;entryDy=0;fontSize=18;" parent="Ys5hY5i7SfUJTXYO6Fxr-1" source="Ys5hY5i7SfUJTXYO6Fxr-14" target="Ys5hY5i7SfUJTXYO6Fxr-42" edge="1">
          <mxGeometry relative="1" as="geometry">
            <Array as="points">
              <mxPoint x="680" y="260" />
              <mxPoint x="600" y="260" />
              <mxPoint x="600" y="480" />
            </Array>
          </mxGeometry>
        </mxCell>
        <mxCell id="Ys5hY5i7SfUJTXYO6Fxr-14" value="&lt;div&gt;知識&lt;/div&gt;&lt;div&gt;(第二階段)&lt;/div&gt;" style="rounded=1;whiteSpace=wrap;html=1;fillColor=#f5f5f5;strokeColor=#666666;fontSize=18;fontColor=#990000;" parent="Ys5hY5i7SfUJTXYO6Fxr-1" vertex="1">
          <mxGeometry x="620" y="180" width="120" height="60" as="geometry" />
        </mxCell>
        <mxCell id="Ys5hY5i7SfUJTXYO6Fxr-15" style="edgeStyle=orthogonalEdgeStyle;rounded=0;orthogonalLoop=1;jettySize=auto;html=1;exitX=0.5;exitY=1;exitDx=0;exitDy=0;entryX=0;entryY=0.5;entryDx=0;entryDy=0;fontSize=18;" parent="Ys5hY5i7SfUJTXYO6Fxr-1" source="Ys5hY5i7SfUJTXYO6Fxr-18" target="Ys5hY5i7SfUJTXYO6Fxr-80" edge="1">
          <mxGeometry relative="1" as="geometry" />
        </mxCell>
        <mxCell id="Ys5hY5i7SfUJTXYO6Fxr-16" style="edgeStyle=orthogonalEdgeStyle;rounded=0;orthogonalLoop=1;jettySize=auto;html=1;exitX=0.5;exitY=1;exitDx=0;exitDy=0;entryX=0;entryY=0.5;entryDx=0;entryDy=0;fontSize=18;" parent="Ys5hY5i7SfUJTXYO6Fxr-1" source="Ys5hY5i7SfUJTXYO6Fxr-18" target="Ys5hY5i7SfUJTXYO6Fxr-83" edge="1">
          <mxGeometry relative="1" as="geometry">
            <Array as="points">
              <mxPoint x="1026" y="260" />
              <mxPoint x="946" y="260" />
              <mxPoint x="946" y="480" />
            </Array>
          </mxGeometry>
        </mxCell>
        <mxCell id="Ys5hY5i7SfUJTXYO6Fxr-17" style="edgeStyle=orthogonalEdgeStyle;rounded=0;orthogonalLoop=1;jettySize=auto;html=1;exitX=0.5;exitY=1;exitDx=0;exitDy=0;entryX=-0.008;entryY=0.61;entryDx=0;entryDy=0;fontSize=18;entryPerimeter=0;" parent="Ys5hY5i7SfUJTXYO6Fxr-1" source="Ys5hY5i7SfUJTXYO6Fxr-18" target="Ys5hY5i7SfUJTXYO6Fxr-88" edge="1">
          <mxGeometry relative="1" as="geometry">
            <Array as="points">
              <mxPoint x="1026" y="260" />
              <mxPoint x="946" y="260" />
              <mxPoint x="946" y="750" />
              <mxPoint x="965" y="750" />
            </Array>
          </mxGeometry>
        </mxCell>
        <mxCell id="Ys5hY5i7SfUJTXYO6Fxr-18" value="&lt;div&gt;閱讀&lt;/div&gt;&lt;div&gt;(第二階段)&lt;/div&gt;" style="rounded=1;whiteSpace=wrap;html=1;fillColor=#f5f5f5;strokeColor=#666666;fontSize=18;fontColor=#990000;" parent="Ys5hY5i7SfUJTXYO6Fxr-1" vertex="1">
          <mxGeometry x="966" y="180" width="120" height="60" as="geometry" />
        </mxCell>
        <mxCell id="dvV7r0g6No6pwjhQ1p7Y-22" style="edgeStyle=orthogonalEdgeStyle;rounded=0;orthogonalLoop=1;jettySize=auto;html=1;exitX=0;exitY=0.5;exitDx=0;exitDy=0;entryX=0;entryY=0.5;entryDx=0;entryDy=0;" edge="1" parent="Ys5hY5i7SfUJTXYO6Fxr-1" source="Ys5hY5i7SfUJTXYO6Fxr-21" target="dvV7r0g6No6pwjhQ1p7Y-12">
          <mxGeometry relative="1" as="geometry" />
        </mxCell>
        <mxCell id="dvV7r0g6No6pwjhQ1p7Y-23" style="edgeStyle=orthogonalEdgeStyle;rounded=0;orthogonalLoop=1;jettySize=auto;html=1;exitX=0;exitY=0.5;exitDx=0;exitDy=0;entryX=0;entryY=0.5;entryDx=0;entryDy=0;" edge="1" parent="Ys5hY5i7SfUJTXYO6Fxr-1" source="Ys5hY5i7SfUJTXYO6Fxr-21" target="dvV7r0g6No6pwjhQ1p7Y-13">
          <mxGeometry relative="1" as="geometry" />
        </mxCell>
        <mxCell id="dvV7r0g6No6pwjhQ1p7Y-24" style="edgeStyle=orthogonalEdgeStyle;rounded=0;orthogonalLoop=1;jettySize=auto;html=1;exitX=0;exitY=0.5;exitDx=0;exitDy=0;entryX=0;entryY=0.5;entryDx=0;entryDy=0;" edge="1" parent="Ys5hY5i7SfUJTXYO6Fxr-1" source="Ys5hY5i7SfUJTXYO6Fxr-21" target="dvV7r0g6No6pwjhQ1p7Y-14">
          <mxGeometry relative="1" as="geometry" />
        </mxCell>
        <mxCell id="dvV7r0g6No6pwjhQ1p7Y-41" style="edgeStyle=orthogonalEdgeStyle;rounded=0;orthogonalLoop=1;jettySize=auto;html=1;exitX=0;exitY=0.5;exitDx=0;exitDy=0;entryX=0;entryY=0.5;entryDx=0;entryDy=0;fontSize=15;" edge="1" parent="Ys5hY5i7SfUJTXYO6Fxr-1" source="Ys5hY5i7SfUJTXYO6Fxr-21" target="dvV7r0g6No6pwjhQ1p7Y-28">
          <mxGeometry relative="1" as="geometry" />
        </mxCell>
        <mxCell id="Ys5hY5i7SfUJTXYO6Fxr-21" value="活動" style="rounded=1;whiteSpace=wrap;html=1;fillColor=#f5f5f5;strokeColor=#666666;fontSize=18;fontColor=#333333;" parent="Ys5hY5i7SfUJTXYO6Fxr-1" vertex="1">
          <mxGeometry x="1336" y="190" width="120" height="60" as="geometry" />
        </mxCell>
        <mxCell id="Ys5hY5i7SfUJTXYO6Fxr-22" style="edgeStyle=orthogonalEdgeStyle;rounded=0;orthogonalLoop=1;jettySize=auto;html=1;exitX=1;exitY=0.5;exitDx=0;exitDy=0;entryX=0;entryY=0.5;entryDx=0;entryDy=0;" parent="Ys5hY5i7SfUJTXYO6Fxr-1" source="Ys5hY5i7SfUJTXYO6Fxr-28" target="Ys5hY5i7SfUJTXYO6Fxr-166" edge="1">
          <mxGeometry relative="1" as="geometry" />
        </mxCell>
        <mxCell id="Ys5hY5i7SfUJTXYO6Fxr-23" style="edgeStyle=orthogonalEdgeStyle;rounded=0;orthogonalLoop=1;jettySize=auto;html=1;exitX=1;exitY=0.5;exitDx=0;exitDy=0;entryX=0;entryY=0.5;entryDx=0;entryDy=0;" parent="Ys5hY5i7SfUJTXYO6Fxr-1" source="Ys5hY5i7SfUJTXYO6Fxr-28" target="Ys5hY5i7SfUJTXYO6Fxr-168" edge="1">
          <mxGeometry relative="1" as="geometry">
            <Array as="points">
              <mxPoint x="1656" y="220" />
              <mxPoint x="1656" y="270" />
              <mxPoint x="1496" y="270" />
              <mxPoint x="1496" y="400" />
            </Array>
          </mxGeometry>
        </mxCell>
        <mxCell id="Ys5hY5i7SfUJTXYO6Fxr-24" style="edgeStyle=orthogonalEdgeStyle;rounded=0;orthogonalLoop=1;jettySize=auto;html=1;exitX=1;exitY=0.5;exitDx=0;exitDy=0;entryX=0;entryY=0.5;entryDx=0;entryDy=0;" parent="Ys5hY5i7SfUJTXYO6Fxr-1" source="Ys5hY5i7SfUJTXYO6Fxr-28" target="Ys5hY5i7SfUJTXYO6Fxr-170" edge="1">
          <mxGeometry relative="1" as="geometry">
            <Array as="points">
              <mxPoint x="1656" y="220" />
              <mxPoint x="1656" y="270" />
              <mxPoint x="1496" y="270" />
              <mxPoint x="1496" y="490" />
            </Array>
          </mxGeometry>
        </mxCell>
        <mxCell id="Ys5hY5i7SfUJTXYO6Fxr-25" style="edgeStyle=orthogonalEdgeStyle;rounded=0;orthogonalLoop=1;jettySize=auto;html=1;exitX=1;exitY=0.5;exitDx=0;exitDy=0;entryX=0;entryY=0.5;entryDx=0;entryDy=0;" parent="Ys5hY5i7SfUJTXYO6Fxr-1" source="Ys5hY5i7SfUJTXYO6Fxr-28" target="Ys5hY5i7SfUJTXYO6Fxr-172" edge="1">
          <mxGeometry relative="1" as="geometry">
            <Array as="points">
              <mxPoint x="1656" y="220" />
              <mxPoint x="1656" y="270" />
              <mxPoint x="1496" y="270" />
              <mxPoint x="1496" y="830" />
            </Array>
          </mxGeometry>
        </mxCell>
        <mxCell id="Ys5hY5i7SfUJTXYO6Fxr-26" style="edgeStyle=orthogonalEdgeStyle;rounded=0;orthogonalLoop=1;jettySize=auto;html=1;exitX=1;exitY=0.5;exitDx=0;exitDy=0;entryX=0;entryY=0.5;entryDx=0;entryDy=0;" parent="Ys5hY5i7SfUJTXYO6Fxr-1" source="Ys5hY5i7SfUJTXYO6Fxr-28" target="Ys5hY5i7SfUJTXYO6Fxr-174" edge="1">
          <mxGeometry relative="1" as="geometry">
            <Array as="points">
              <mxPoint x="1656" y="220" />
              <mxPoint x="1656" y="270" />
              <mxPoint x="1496" y="270" />
              <mxPoint x="1496" y="918" />
            </Array>
          </mxGeometry>
        </mxCell>
        <mxCell id="Ys5hY5i7SfUJTXYO6Fxr-27" style="edgeStyle=orthogonalEdgeStyle;rounded=0;orthogonalLoop=1;jettySize=auto;html=1;exitX=1;exitY=0.5;exitDx=0;exitDy=0;entryX=0;entryY=0.5;entryDx=0;entryDy=0;" parent="Ys5hY5i7SfUJTXYO6Fxr-1" source="Ys5hY5i7SfUJTXYO6Fxr-28" target="Ys5hY5i7SfUJTXYO6Fxr-176" edge="1">
          <mxGeometry relative="1" as="geometry">
            <Array as="points">
              <mxPoint x="1656" y="220" />
              <mxPoint x="1656" y="270" />
              <mxPoint x="1496" y="270" />
              <mxPoint x="1496" y="1000" />
            </Array>
          </mxGeometry>
        </mxCell>
        <mxCell id="Ys5hY5i7SfUJTXYO6Fxr-28" value="會員" style="rounded=1;whiteSpace=wrap;html=1;fillColor=#f5f5f5;strokeColor=#666666;fontSize=18;fontColor=#333333;" parent="Ys5hY5i7SfUJTXYO6Fxr-1" vertex="1">
          <mxGeometry x="1516" y="190" width="120" height="60" as="geometry" />
        </mxCell>
        <mxCell id="Ys5hY5i7SfUJTXYO6Fxr-29" style="edgeStyle=orthogonalEdgeStyle;rounded=0;orthogonalLoop=1;jettySize=auto;html=1;exitX=0.5;exitY=1;exitDx=0;exitDy=0;fontSize=18;" parent="Ys5hY5i7SfUJTXYO6Fxr-1" source="Ys5hY5i7SfUJTXYO6Fxr-36" target="Ys5hY5i7SfUJTXYO6Fxr-11" edge="1">
          <mxGeometry relative="1" as="geometry">
            <Array as="points">
              <mxPoint x="700" y="130" />
              <mxPoint x="240" y="130" />
            </Array>
          </mxGeometry>
        </mxCell>
        <mxCell id="Ys5hY5i7SfUJTXYO6Fxr-30" style="edgeStyle=orthogonalEdgeStyle;rounded=0;orthogonalLoop=1;jettySize=auto;html=1;exitX=0.5;exitY=1;exitDx=0;exitDy=0;fontSize=18;entryX=0.5;entryY=0;entryDx=0;entryDy=0;" parent="Ys5hY5i7SfUJTXYO6Fxr-1" source="Ys5hY5i7SfUJTXYO6Fxr-36" target="Ys5hY5i7SfUJTXYO6Fxr-14" edge="1">
          <mxGeometry relative="1" as="geometry">
            <Array as="points">
              <mxPoint x="700" y="130" />
              <mxPoint x="680" y="130" />
            </Array>
          </mxGeometry>
        </mxCell>
        <mxCell id="Ys5hY5i7SfUJTXYO6Fxr-31" style="edgeStyle=orthogonalEdgeStyle;rounded=0;orthogonalLoop=1;jettySize=auto;html=1;exitX=0.5;exitY=1;exitDx=0;exitDy=0;fontSize=18;" parent="Ys5hY5i7SfUJTXYO6Fxr-1" source="Ys5hY5i7SfUJTXYO6Fxr-36" target="Ys5hY5i7SfUJTXYO6Fxr-18" edge="1">
          <mxGeometry relative="1" as="geometry">
            <Array as="points">
              <mxPoint x="700" y="130" />
              <mxPoint x="1026" y="130" />
            </Array>
          </mxGeometry>
        </mxCell>
        <mxCell id="Ys5hY5i7SfUJTXYO6Fxr-33" style="edgeStyle=orthogonalEdgeStyle;rounded=0;orthogonalLoop=1;jettySize=auto;html=1;exitX=0.5;exitY=1;exitDx=0;exitDy=0;entryX=0.5;entryY=0;entryDx=0;entryDy=0;fontSize=18;" parent="Ys5hY5i7SfUJTXYO6Fxr-1" source="Ys5hY5i7SfUJTXYO6Fxr-36" target="Ys5hY5i7SfUJTXYO6Fxr-21" edge="1">
          <mxGeometry relative="1" as="geometry">
            <Array as="points">
              <mxPoint x="700" y="130" />
              <mxPoint x="1396" y="130" />
            </Array>
          </mxGeometry>
        </mxCell>
        <mxCell id="Ys5hY5i7SfUJTXYO6Fxr-34" style="edgeStyle=orthogonalEdgeStyle;rounded=0;orthogonalLoop=1;jettySize=auto;html=1;exitX=0.5;exitY=1;exitDx=0;exitDy=0;fontSize=18;" parent="Ys5hY5i7SfUJTXYO6Fxr-1" source="Ys5hY5i7SfUJTXYO6Fxr-36" target="Ys5hY5i7SfUJTXYO6Fxr-28" edge="1">
          <mxGeometry relative="1" as="geometry">
            <Array as="points">
              <mxPoint x="700" y="130" />
              <mxPoint x="1576" y="130" />
            </Array>
          </mxGeometry>
        </mxCell>
        <mxCell id="Ys5hY5i7SfUJTXYO6Fxr-35" style="edgeStyle=orthogonalEdgeStyle;rounded=0;orthogonalLoop=1;jettySize=auto;html=1;entryX=0;entryY=0.5;entryDx=0;entryDy=0;" parent="Ys5hY5i7SfUJTXYO6Fxr-1" source="Ys5hY5i7SfUJTXYO6Fxr-36" target="Ys5hY5i7SfUJTXYO6Fxr-7" edge="1">
          <mxGeometry relative="1" as="geometry" />
        </mxCell>
        <mxCell id="dvV7r0g6No6pwjhQ1p7Y-8" style="edgeStyle=orthogonalEdgeStyle;rounded=0;orthogonalLoop=1;jettySize=auto;html=1;exitX=0.5;exitY=1;exitDx=0;exitDy=0;entryX=0.5;entryY=0;entryDx=0;entryDy=0;" edge="1" parent="Ys5hY5i7SfUJTXYO6Fxr-1" source="Ys5hY5i7SfUJTXYO6Fxr-36" target="dvV7r0g6No6pwjhQ1p7Y-0">
          <mxGeometry relative="1" as="geometry">
            <Array as="points">
              <mxPoint x="700" y="130" />
              <mxPoint x="510" y="130" />
            </Array>
          </mxGeometry>
        </mxCell>
        <mxCell id="Ys5hY5i7SfUJTXYO6Fxr-36" value="Wakool" style="rounded=1;whiteSpace=wrap;html=1;fillColor=#d80073;fontColor=#ffffff;strokeColor=#A50040;fontSize=18;" parent="Ys5hY5i7SfUJTXYO6Fxr-1" vertex="1">
          <mxGeometry x="640" y="30" width="120" height="60" as="geometry" />
        </mxCell>
        <mxCell id="Ys5hY5i7SfUJTXYO6Fxr-37" value="內容" style="rounded=1;whiteSpace=wrap;html=1;fillColor=#f8cecc;strokeColor=#b85450;fontSize=18;" parent="Ys5hY5i7SfUJTXYO6Fxr-1" vertex="1">
          <mxGeometry x="25" y="590" width="120" height="60" as="geometry" />
        </mxCell>
        <mxCell id="Ys5hY5i7SfUJTXYO6Fxr-38" value="選項" style="rounded=1;whiteSpace=wrap;html=1;fillColor=#e1d5e7;strokeColor=#9673a6;fontSize=18;" parent="Ys5hY5i7SfUJTXYO6Fxr-1" vertex="1">
          <mxGeometry x="25" y="680" width="120" height="60" as="geometry" />
        </mxCell>
        <mxCell id="Ys5hY5i7SfUJTXYO6Fxr-39" value="" style="edgeStyle=orthogonalEdgeStyle;rounded=0;orthogonalLoop=1;jettySize=auto;html=1;fontSize=18;" parent="Ys5hY5i7SfUJTXYO6Fxr-1" source="Ys5hY5i7SfUJTXYO6Fxr-40" target="Ys5hY5i7SfUJTXYO6Fxr-48" edge="1">
          <mxGeometry relative="1" as="geometry" />
        </mxCell>
        <mxCell id="Ys5hY5i7SfUJTXYO6Fxr-40" value="玩英文" style="rounded=1;whiteSpace=wrap;html=1;fillColor=#ffe6cc;strokeColor=#d79b00;fontSize=18;" parent="Ys5hY5i7SfUJTXYO6Fxr-1" vertex="1">
          <mxGeometry x="620" y="270" width="120" height="60" as="geometry" />
        </mxCell>
        <mxCell id="Ys5hY5i7SfUJTXYO6Fxr-41" value="" style="edgeStyle=orthogonalEdgeStyle;rounded=0;orthogonalLoop=1;jettySize=auto;html=1;fontSize=18;" parent="Ys5hY5i7SfUJTXYO6Fxr-1" source="Ys5hY5i7SfUJTXYO6Fxr-42" target="Ys5hY5i7SfUJTXYO6Fxr-50" edge="1">
          <mxGeometry relative="1" as="geometry" />
        </mxCell>
        <mxCell id="Ys5hY5i7SfUJTXYO6Fxr-42" value="玩理財" style="rounded=1;whiteSpace=wrap;html=1;fillColor=#ffe6cc;strokeColor=#d79b00;fontSize=18;" parent="Ys5hY5i7SfUJTXYO6Fxr-1" vertex="1">
          <mxGeometry x="620" y="450" width="120" height="60" as="geometry" />
        </mxCell>
        <mxCell id="Ys5hY5i7SfUJTXYO6Fxr-43" value="" style="edgeStyle=orthogonalEdgeStyle;rounded=0;orthogonalLoop=1;jettySize=auto;html=1;fontSize=18;" parent="Ys5hY5i7SfUJTXYO6Fxr-1" source="Ys5hY5i7SfUJTXYO6Fxr-46" target="Ys5hY5i7SfUJTXYO6Fxr-67" edge="1">
          <mxGeometry relative="1" as="geometry" />
        </mxCell>
        <mxCell id="Ys5hY5i7SfUJTXYO6Fxr-44" style="edgeStyle=orthogonalEdgeStyle;rounded=0;orthogonalLoop=1;jettySize=auto;html=1;exitX=1;exitY=0.5;exitDx=0;exitDy=0;entryX=1;entryY=0.592;entryDx=0;entryDy=0;entryPerimeter=0;fontSize=18;" parent="Ys5hY5i7SfUJTXYO6Fxr-1" source="Ys5hY5i7SfUJTXYO6Fxr-46" target="Ys5hY5i7SfUJTXYO6Fxr-64" edge="1">
          <mxGeometry relative="1" as="geometry" />
        </mxCell>
        <mxCell id="Ys5hY5i7SfUJTXYO6Fxr-45" style="edgeStyle=orthogonalEdgeStyle;rounded=0;orthogonalLoop=1;jettySize=auto;html=1;exitX=1;exitY=0.5;exitDx=0;exitDy=0;entryX=1;entryY=0.5;entryDx=0;entryDy=0;fontSize=18;" parent="Ys5hY5i7SfUJTXYO6Fxr-1" source="Ys5hY5i7SfUJTXYO6Fxr-46" target="Ys5hY5i7SfUJTXYO6Fxr-65" edge="1">
          <mxGeometry relative="1" as="geometry" />
        </mxCell>
        <mxCell id="Ys5hY5i7SfUJTXYO6Fxr-46" value="&lt;div&gt;玩理財&lt;/div&gt;&lt;div&gt;單文頁&lt;/div&gt;" style="rounded=1;whiteSpace=wrap;html=1;fillColor=#f5f5f5;strokeColor=#666666;fontSize=18;fontColor=#333333;" parent="Ys5hY5i7SfUJTXYO6Fxr-1" vertex="1">
          <mxGeometry x="620" y="630" width="120" height="60" as="geometry" />
        </mxCell>
        <mxCell id="Ys5hY5i7SfUJTXYO6Fxr-47" value="" style="edgeStyle=orthogonalEdgeStyle;rounded=0;orthogonalLoop=1;jettySize=auto;html=1;fontSize=18;" parent="Ys5hY5i7SfUJTXYO6Fxr-1" source="Ys5hY5i7SfUJTXYO6Fxr-48" target="Ys5hY5i7SfUJTXYO6Fxr-54" edge="1">
          <mxGeometry relative="1" as="geometry" />
        </mxCell>
        <mxCell id="Ys5hY5i7SfUJTXYO6Fxr-48" value="&lt;div&gt;玩英文&lt;/div&gt;&lt;div&gt;課程清單&lt;br&gt;&lt;/div&gt;" style="rounded=1;whiteSpace=wrap;html=1;fillColor=#f8cecc;strokeColor=#b85450;fontSize=18;" parent="Ys5hY5i7SfUJTXYO6Fxr-1" vertex="1">
          <mxGeometry x="620" y="360" width="120" height="60" as="geometry" />
        </mxCell>
        <mxCell id="Ys5hY5i7SfUJTXYO6Fxr-49" value="" style="edgeStyle=orthogonalEdgeStyle;rounded=0;orthogonalLoop=1;jettySize=auto;html=1;fontSize=18;" parent="Ys5hY5i7SfUJTXYO6Fxr-1" source="Ys5hY5i7SfUJTXYO6Fxr-50" target="Ys5hY5i7SfUJTXYO6Fxr-46" edge="1">
          <mxGeometry relative="1" as="geometry" />
        </mxCell>
        <mxCell id="Ys5hY5i7SfUJTXYO6Fxr-50" value="&lt;div&gt;玩理財&lt;/div&gt;&lt;div&gt;課程清單&lt;br&gt;&lt;/div&gt;" style="rounded=1;whiteSpace=wrap;html=1;fillColor=#f8cecc;strokeColor=#b85450;fontSize=18;" parent="Ys5hY5i7SfUJTXYO6Fxr-1" vertex="1">
          <mxGeometry x="620" y="540" width="120" height="60" as="geometry" />
        </mxCell>
        <mxCell id="Ys5hY5i7SfUJTXYO6Fxr-51" value="" style="edgeStyle=orthogonalEdgeStyle;rounded=0;orthogonalLoop=1;jettySize=auto;html=1;fontSize=18;" parent="Ys5hY5i7SfUJTXYO6Fxr-1" source="Ys5hY5i7SfUJTXYO6Fxr-54" target="Ys5hY5i7SfUJTXYO6Fxr-58" edge="1">
          <mxGeometry relative="1" as="geometry" />
        </mxCell>
        <mxCell id="Ys5hY5i7SfUJTXYO6Fxr-52" style="edgeStyle=orthogonalEdgeStyle;rounded=0;orthogonalLoop=1;jettySize=auto;html=1;exitX=1;exitY=0.5;exitDx=0;exitDy=0;entryX=1;entryY=0.5;entryDx=0;entryDy=0;fontSize=18;" parent="Ys5hY5i7SfUJTXYO6Fxr-1" source="Ys5hY5i7SfUJTXYO6Fxr-54" target="Ys5hY5i7SfUJTXYO6Fxr-55" edge="1">
          <mxGeometry relative="1" as="geometry" />
        </mxCell>
        <mxCell id="Ys5hY5i7SfUJTXYO6Fxr-53" style="edgeStyle=orthogonalEdgeStyle;rounded=0;orthogonalLoop=1;jettySize=auto;html=1;exitX=1;exitY=0.5;exitDx=0;exitDy=0;entryX=1;entryY=0.5;entryDx=0;entryDy=0;fontSize=18;" parent="Ys5hY5i7SfUJTXYO6Fxr-1" source="Ys5hY5i7SfUJTXYO6Fxr-54" target="Ys5hY5i7SfUJTXYO6Fxr-56" edge="1">
          <mxGeometry relative="1" as="geometry" />
        </mxCell>
        <mxCell id="Ys5hY5i7SfUJTXYO6Fxr-54" value="&lt;div&gt;玩英文&lt;/div&gt;&lt;div&gt;單文頁&lt;br&gt;&lt;/div&gt;" style="rounded=1;whiteSpace=wrap;html=1;fillColor=#f5f5f5;strokeColor=#666666;fontSize=18;fontColor=#333333;" parent="Ys5hY5i7SfUJTXYO6Fxr-1" vertex="1">
          <mxGeometry x="786" y="360" width="120" height="60" as="geometry" />
        </mxCell>
        <mxCell id="Ys5hY5i7SfUJTXYO6Fxr-55" value="影片目錄" style="rounded=1;whiteSpace=wrap;html=1;fillColor=#ffe6cc;strokeColor=#d79b00;fontSize=18;verticalAlign=top;" parent="Ys5hY5i7SfUJTXYO6Fxr-1" vertex="1">
          <mxGeometry x="786" y="540" width="120" height="370" as="geometry" />
        </mxCell>
        <mxCell id="Ys5hY5i7SfUJTXYO6Fxr-56" value="品牌介紹" style="rounded=1;whiteSpace=wrap;html=1;fillColor=#ffe6cc;strokeColor=#d79b00;fontSize=18;verticalAlign=top;" parent="Ys5hY5i7SfUJTXYO6Fxr-1" vertex="1">
          <mxGeometry x="786" y="960" width="120" height="160" as="geometry" />
        </mxCell>
        <mxCell id="Ys5hY5i7SfUJTXYO6Fxr-57" value="品牌介紹內容" style="rounded=1;whiteSpace=wrap;html=1;fillColor=#f8cecc;strokeColor=#b85450;fontSize=18;" parent="Ys5hY5i7SfUJTXYO6Fxr-1" vertex="1">
          <mxGeometry x="796" y="1040" width="100" height="60" as="geometry" />
        </mxCell>
        <mxCell id="Ys5hY5i7SfUJTXYO6Fxr-58" value="名師簡介" style="rounded=1;whiteSpace=wrap;html=1;fillColor=#d5e8d4;strokeColor=#82b366;fontSize=18;" parent="Ys5hY5i7SfUJTXYO6Fxr-1" vertex="1">
          <mxGeometry x="786" y="450" width="120" height="60" as="geometry" />
        </mxCell>
        <mxCell id="Ys5hY5i7SfUJTXYO6Fxr-59" value="" style="group" parent="Ys5hY5i7SfUJTXYO6Fxr-1" vertex="1" connectable="0">
          <mxGeometry x="796" y="590" width="100" height="300" as="geometry" />
        </mxCell>
        <mxCell id="Ys5hY5i7SfUJTXYO6Fxr-60" value="課程目錄" style="rounded=1;whiteSpace=wrap;html=1;fillColor=#f8cecc;strokeColor=#b85450;fontSize=18;" parent="Ys5hY5i7SfUJTXYO6Fxr-59" vertex="1">
          <mxGeometry width="100" height="60" as="geometry" />
        </mxCell>
        <mxCell id="Ys5hY5i7SfUJTXYO6Fxr-61" value="整套購買" style="rounded=1;whiteSpace=wrap;html=1;fillColor=#e1d5e7;strokeColor=#9673a6;fontSize=18;" parent="Ys5hY5i7SfUJTXYO6Fxr-59" vertex="1">
          <mxGeometry y="80" width="100" height="60" as="geometry" />
        </mxCell>
        <mxCell id="Ys5hY5i7SfUJTXYO6Fxr-62" value="試看" style="rounded=1;whiteSpace=wrap;html=1;fillColor=#e1d5e7;strokeColor=#9673a6;fontSize=18;" parent="Ys5hY5i7SfUJTXYO6Fxr-59" vertex="1">
          <mxGeometry y="160" width="100" height="60" as="geometry" />
        </mxCell>
        <mxCell id="Ys5hY5i7SfUJTXYO6Fxr-63" value="單課程購買" style="rounded=1;whiteSpace=wrap;html=1;fillColor=#e1d5e7;strokeColor=#9673a6;fontSize=18;" parent="Ys5hY5i7SfUJTXYO6Fxr-59" vertex="1">
          <mxGeometry y="240" width="100" height="60" as="geometry" />
        </mxCell>
        <mxCell id="Ys5hY5i7SfUJTXYO6Fxr-64" value="影片目錄" style="rounded=1;whiteSpace=wrap;html=1;fillColor=#ffe6cc;strokeColor=#d79b00;fontSize=18;verticalAlign=top;" parent="Ys5hY5i7SfUJTXYO6Fxr-1" vertex="1">
          <mxGeometry x="620" y="810" width="120" height="370" as="geometry" />
        </mxCell>
        <mxCell id="Ys5hY5i7SfUJTXYO6Fxr-65" value="品牌介紹" style="rounded=1;whiteSpace=wrap;html=1;fillColor=#ffe6cc;strokeColor=#d79b00;fontSize=18;verticalAlign=top;" parent="Ys5hY5i7SfUJTXYO6Fxr-1" vertex="1">
          <mxGeometry x="620" y="1230" width="120" height="160" as="geometry" />
        </mxCell>
        <mxCell id="Ys5hY5i7SfUJTXYO6Fxr-66" value="品牌介紹內容" style="rounded=1;whiteSpace=wrap;html=1;fillColor=#f8cecc;strokeColor=#b85450;fontSize=18;" parent="Ys5hY5i7SfUJTXYO6Fxr-1" vertex="1">
          <mxGeometry x="630" y="1310" width="100" height="60" as="geometry" />
        </mxCell>
        <mxCell id="Ys5hY5i7SfUJTXYO6Fxr-67" value="名師簡介" style="rounded=1;whiteSpace=wrap;html=1;fillColor=#d5e8d4;strokeColor=#82b366;fontSize=18;" parent="Ys5hY5i7SfUJTXYO6Fxr-1" vertex="1">
          <mxGeometry x="620" y="720" width="120" height="60" as="geometry" />
        </mxCell>
        <mxCell id="Ys5hY5i7SfUJTXYO6Fxr-68" value="" style="group" parent="Ys5hY5i7SfUJTXYO6Fxr-1" vertex="1" connectable="0">
          <mxGeometry x="630" y="860" width="100" height="300" as="geometry" />
        </mxCell>
        <mxCell id="Ys5hY5i7SfUJTXYO6Fxr-69" value="課程目錄" style="rounded=1;whiteSpace=wrap;html=1;fillColor=#f8cecc;strokeColor=#b85450;fontSize=18;" parent="Ys5hY5i7SfUJTXYO6Fxr-68" vertex="1">
          <mxGeometry width="100" height="60" as="geometry" />
        </mxCell>
        <mxCell id="Ys5hY5i7SfUJTXYO6Fxr-70" value="整套購買" style="rounded=1;whiteSpace=wrap;html=1;fillColor=#e1d5e7;strokeColor=#9673a6;fontSize=18;" parent="Ys5hY5i7SfUJTXYO6Fxr-68" vertex="1">
          <mxGeometry y="80" width="100" height="60" as="geometry" />
        </mxCell>
        <mxCell id="Ys5hY5i7SfUJTXYO6Fxr-71" value="試看" style="rounded=1;whiteSpace=wrap;html=1;fillColor=#e1d5e7;strokeColor=#9673a6;fontSize=18;" parent="Ys5hY5i7SfUJTXYO6Fxr-68" vertex="1">
          <mxGeometry y="160" width="100" height="60" as="geometry" />
        </mxCell>
        <mxCell id="Ys5hY5i7SfUJTXYO6Fxr-72" value="單課程購買" style="rounded=1;whiteSpace=wrap;html=1;fillColor=#e1d5e7;strokeColor=#9673a6;fontSize=18;" parent="Ys5hY5i7SfUJTXYO6Fxr-68" vertex="1">
          <mxGeometry y="240" width="100" height="60" as="geometry" />
        </mxCell>
        <mxCell id="Ys5hY5i7SfUJTXYO6Fxr-73" value="" style="group" parent="Ys5hY5i7SfUJTXYO6Fxr-1" vertex="1" connectable="0">
          <mxGeometry x="180" y="270" width="120" height="330" as="geometry" />
        </mxCell>
        <mxCell id="Ys5hY5i7SfUJTXYO6Fxr-74" value="Banner" style="rounded=1;whiteSpace=wrap;html=1;fillColor=#f8cecc;strokeColor=#b85450;fontSize=18;" parent="Ys5hY5i7SfUJTXYO6Fxr-73" vertex="1">
          <mxGeometry width="120" height="60" as="geometry" />
        </mxCell>
        <mxCell id="Ys5hY5i7SfUJTXYO6Fxr-75" value="人氣排行" style="rounded=1;whiteSpace=wrap;html=1;fillColor=#f8cecc;strokeColor=#b85450;fontSize=18;" parent="Ys5hY5i7SfUJTXYO6Fxr-73" vertex="1">
          <mxGeometry y="90" width="120" height="60" as="geometry" />
        </mxCell>
        <mxCell id="Ys5hY5i7SfUJTXYO6Fxr-76" value="遊戲內容" style="rounded=1;whiteSpace=wrap;html=1;fillColor=#f8cecc;strokeColor=#b85450;fontSize=18;" parent="Ys5hY5i7SfUJTXYO6Fxr-73" vertex="1">
          <mxGeometry y="180" width="120" height="60" as="geometry" />
        </mxCell>
        <mxCell id="Ys5hY5i7SfUJTXYO6Fxr-77" value="分類遊戲內容" style="rounded=1;whiteSpace=wrap;html=1;fillColor=#f8cecc;strokeColor=#b85450;fontSize=18;" parent="Ys5hY5i7SfUJTXYO6Fxr-73" vertex="1">
          <mxGeometry y="270" width="120" height="60" as="geometry" />
        </mxCell>
        <mxCell id="Ys5hY5i7SfUJTXYO6Fxr-78" value="" style="edgeStyle=orthogonalEdgeStyle;rounded=0;orthogonalLoop=1;jettySize=auto;html=1;fontSize=18;" parent="Ys5hY5i7SfUJTXYO6Fxr-1" source="Ys5hY5i7SfUJTXYO6Fxr-80" target="Ys5hY5i7SfUJTXYO6Fxr-85" edge="1">
          <mxGeometry relative="1" as="geometry" />
        </mxCell>
        <mxCell id="Ys5hY5i7SfUJTXYO6Fxr-79" style="edgeStyle=orthogonalEdgeStyle;rounded=0;orthogonalLoop=1;jettySize=auto;html=1;exitX=1;exitY=0.5;exitDx=0;exitDy=0;entryX=0;entryY=0.5;entryDx=0;entryDy=0;fontSize=18;" parent="Ys5hY5i7SfUJTXYO6Fxr-1" source="Ys5hY5i7SfUJTXYO6Fxr-80" target="Ys5hY5i7SfUJTXYO6Fxr-105" edge="1">
          <mxGeometry relative="1" as="geometry" />
        </mxCell>
        <mxCell id="Ys5hY5i7SfUJTXYO6Fxr-80" value="期刊雜誌" style="rounded=1;whiteSpace=wrap;html=1;fillColor=#ffe6cc;strokeColor=#d79b00;fontSize=18;" parent="Ys5hY5i7SfUJTXYO6Fxr-1" vertex="1">
          <mxGeometry x="966" y="270" width="120" height="60" as="geometry" />
        </mxCell>
        <mxCell id="Ys5hY5i7SfUJTXYO6Fxr-81" value="" style="edgeStyle=orthogonalEdgeStyle;rounded=0;orthogonalLoop=1;jettySize=auto;html=1;fontSize=18;" parent="Ys5hY5i7SfUJTXYO6Fxr-1" source="Ys5hY5i7SfUJTXYO6Fxr-83" target="Ys5hY5i7SfUJTXYO6Fxr-87" edge="1">
          <mxGeometry relative="1" as="geometry" />
        </mxCell>
        <mxCell id="Ys5hY5i7SfUJTXYO6Fxr-82" style="edgeStyle=orthogonalEdgeStyle;rounded=0;orthogonalLoop=1;jettySize=auto;html=1;entryX=0;entryY=0.5;entryDx=0;entryDy=0;fontSize=18;" parent="Ys5hY5i7SfUJTXYO6Fxr-1" source="Ys5hY5i7SfUJTXYO6Fxr-83" target="Ys5hY5i7SfUJTXYO6Fxr-106" edge="1">
          <mxGeometry relative="1" as="geometry" />
        </mxCell>
        <mxCell id="Ys5hY5i7SfUJTXYO6Fxr-83" value="eBook" style="rounded=1;whiteSpace=wrap;html=1;fillColor=#ffe6cc;strokeColor=#d79b00;fontSize=18;" parent="Ys5hY5i7SfUJTXYO6Fxr-1" vertex="1">
          <mxGeometry x="966" y="450" width="120" height="60" as="geometry" />
        </mxCell>
        <mxCell id="Ys5hY5i7SfUJTXYO6Fxr-84" style="edgeStyle=orthogonalEdgeStyle;rounded=0;orthogonalLoop=1;jettySize=auto;html=1;exitX=1;exitY=0.5;exitDx=0;exitDy=0;fontSize=18;" parent="Ys5hY5i7SfUJTXYO6Fxr-1" source="Ys5hY5i7SfUJTXYO6Fxr-85" edge="1">
          <mxGeometry relative="1" as="geometry">
            <mxPoint x="1146" y="300" as="targetPoint" />
            <Array as="points">
              <mxPoint x="1106" y="390" />
              <mxPoint x="1106" y="300" />
            </Array>
          </mxGeometry>
        </mxCell>
        <mxCell id="Ys5hY5i7SfUJTXYO6Fxr-85" value="分類" style="rounded=1;whiteSpace=wrap;html=1;fillColor=#f8cecc;strokeColor=#b85450;fontSize=18;" parent="Ys5hY5i7SfUJTXYO6Fxr-1" vertex="1">
          <mxGeometry x="966" y="360" width="120" height="60" as="geometry" />
        </mxCell>
        <mxCell id="Ys5hY5i7SfUJTXYO6Fxr-86" style="edgeStyle=orthogonalEdgeStyle;rounded=0;orthogonalLoop=1;jettySize=auto;html=1;exitX=1;exitY=0.5;exitDx=0;exitDy=0;fontSize=18;" parent="Ys5hY5i7SfUJTXYO6Fxr-1" source="Ys5hY5i7SfUJTXYO6Fxr-87" edge="1">
          <mxGeometry relative="1" as="geometry">
            <mxPoint x="1146" y="480" as="targetPoint" />
            <Array as="points">
              <mxPoint x="1106" y="570" />
              <mxPoint x="1106" y="480" />
            </Array>
          </mxGeometry>
        </mxCell>
        <mxCell id="Ys5hY5i7SfUJTXYO6Fxr-87" value="分類" style="rounded=1;whiteSpace=wrap;html=1;fillColor=#f8cecc;strokeColor=#b85450;fontSize=18;" parent="Ys5hY5i7SfUJTXYO6Fxr-1" vertex="1">
          <mxGeometry x="966" y="540" width="120" height="60" as="geometry" />
        </mxCell>
        <mxCell id="Ys5hY5i7SfUJTXYO6Fxr-88" value="訂閱" style="rounded=1;whiteSpace=wrap;html=1;fillColor=#f5f5f5;strokeColor=#666666;fontSize=18;fontColor=#333333;verticalAlign=top;" parent="Ys5hY5i7SfUJTXYO6Fxr-1" vertex="1">
          <mxGeometry x="966" y="628" width="120" height="200" as="geometry" />
        </mxCell>
        <mxCell id="Ys5hY5i7SfUJTXYO6Fxr-89" value="票券資訊" style="rounded=1;whiteSpace=wrap;html=1;fillColor=#f8cecc;strokeColor=#b85450;fontSize=18;" parent="Ys5hY5i7SfUJTXYO6Fxr-1" vertex="1">
          <mxGeometry x="986" y="670" width="80" height="60" as="geometry" />
        </mxCell>
        <mxCell id="Ys5hY5i7SfUJTXYO6Fxr-90" style="edgeStyle=orthogonalEdgeStyle;rounded=0;orthogonalLoop=1;jettySize=auto;html=1;exitX=0.5;exitY=1;exitDx=0;exitDy=0;entryX=0.5;entryY=0;entryDx=0;entryDy=0;fontSize=18;" parent="Ys5hY5i7SfUJTXYO6Fxr-1" source="Ys5hY5i7SfUJTXYO6Fxr-91" target="Ys5hY5i7SfUJTXYO6Fxr-92" edge="1">
          <mxGeometry relative="1" as="geometry" />
        </mxCell>
        <mxCell id="Ys5hY5i7SfUJTXYO6Fxr-91" value="購買月票" style="rounded=1;whiteSpace=wrap;html=1;fillColor=#e1d5e7;strokeColor=#9673a6;fontSize=18;" parent="Ys5hY5i7SfUJTXYO6Fxr-1" vertex="1">
          <mxGeometry x="986" y="750" width="80" height="60" as="geometry" />
        </mxCell>
        <mxCell id="Ys5hY5i7SfUJTXYO6Fxr-92" value="訂閱視窗" style="rounded=1;whiteSpace=wrap;html=1;fillColor=#d5e8d4;strokeColor=#82b366;fontSize=18;verticalAlign=top;" parent="Ys5hY5i7SfUJTXYO6Fxr-1" vertex="1">
          <mxGeometry x="966" y="860" width="120" height="210" as="geometry" />
        </mxCell>
        <mxCell id="Ys5hY5i7SfUJTXYO6Fxr-93" style="edgeStyle=orthogonalEdgeStyle;rounded=0;orthogonalLoop=1;jettySize=auto;html=1;exitX=0.5;exitY=1;exitDx=0;exitDy=0;fontSize=18;" parent="Ys5hY5i7SfUJTXYO6Fxr-1" source="Ys5hY5i7SfUJTXYO6Fxr-94" target="Ys5hY5i7SfUJTXYO6Fxr-101" edge="1">
          <mxGeometry relative="1" as="geometry" />
        </mxCell>
        <mxCell id="Ys5hY5i7SfUJTXYO6Fxr-94" value="確定購買" style="rounded=1;whiteSpace=wrap;html=1;fillColor=#e1d5e7;strokeColor=#9673a6;fontSize=18;" parent="Ys5hY5i7SfUJTXYO6Fxr-1" vertex="1">
          <mxGeometry x="981" y="990" width="90" height="60" as="geometry" />
        </mxCell>
        <mxCell id="Ys5hY5i7SfUJTXYO6Fxr-95" value="票券資訊" style="rounded=1;whiteSpace=wrap;html=1;fillColor=#f8cecc;strokeColor=#b85450;fontSize=18;" parent="Ys5hY5i7SfUJTXYO6Fxr-1" vertex="1">
          <mxGeometry x="981" y="910" width="90" height="60" as="geometry" />
        </mxCell>
        <mxCell id="Ys5hY5i7SfUJTXYO6Fxr-96" value="訂閱狀態" style="rounded=1;whiteSpace=wrap;html=1;fillColor=#d5e8d4;strokeColor=#82b366;fontSize=18;verticalAlign=top;" parent="Ys5hY5i7SfUJTXYO6Fxr-1" vertex="1">
          <mxGeometry x="886" y="1200" width="120" height="210" as="geometry" />
        </mxCell>
        <mxCell id="Ys5hY5i7SfUJTXYO6Fxr-97" value="前往儲值" style="rounded=1;whiteSpace=wrap;html=1;fillColor=#e1d5e7;strokeColor=#9673a6;fontSize=18;" parent="Ys5hY5i7SfUJTXYO6Fxr-1" vertex="1">
          <mxGeometry x="901" y="1330" width="90" height="60" as="geometry" />
        </mxCell>
        <mxCell id="Ys5hY5i7SfUJTXYO6Fxr-98" value="點數資訊" style="rounded=1;whiteSpace=wrap;html=1;fillColor=#f8cecc;strokeColor=#b85450;fontSize=18;" parent="Ys5hY5i7SfUJTXYO6Fxr-1" vertex="1">
          <mxGeometry x="901" y="1250" width="90" height="60" as="geometry" />
        </mxCell>
        <mxCell id="Ys5hY5i7SfUJTXYO6Fxr-99" value="N" style="edgeStyle=orthogonalEdgeStyle;rounded=0;orthogonalLoop=1;jettySize=auto;html=1;exitX=0;exitY=0.5;exitDx=0;exitDy=0;entryX=0.5;entryY=0;entryDx=0;entryDy=0;fontSize=18;" parent="Ys5hY5i7SfUJTXYO6Fxr-1" source="Ys5hY5i7SfUJTXYO6Fxr-101" target="Ys5hY5i7SfUJTXYO6Fxr-96" edge="1">
          <mxGeometry relative="1" as="geometry">
            <Array as="points">
              <mxPoint x="946" y="1140" />
            </Array>
          </mxGeometry>
        </mxCell>
        <mxCell id="Ys5hY5i7SfUJTXYO6Fxr-100" value="Y" style="edgeStyle=orthogonalEdgeStyle;rounded=0;orthogonalLoop=1;jettySize=auto;html=1;exitX=1;exitY=0.5;exitDx=0;exitDy=0;entryX=0.5;entryY=0;entryDx=0;entryDy=0;fontSize=18;" parent="Ys5hY5i7SfUJTXYO6Fxr-1" source="Ys5hY5i7SfUJTXYO6Fxr-101" target="Ys5hY5i7SfUJTXYO6Fxr-102" edge="1">
          <mxGeometry relative="1" as="geometry" />
        </mxCell>
        <mxCell id="Ys5hY5i7SfUJTXYO6Fxr-101" value="點數餘額" style="rhombus;whiteSpace=wrap;html=1;fontSize=18;verticalAlign=middle;" parent="Ys5hY5i7SfUJTXYO6Fxr-1" vertex="1">
          <mxGeometry x="986" y="1100" width="80" height="80" as="geometry" />
        </mxCell>
        <mxCell id="Ys5hY5i7SfUJTXYO6Fxr-102" value="訂閱狀態" style="rounded=1;whiteSpace=wrap;html=1;fillColor=#d5e8d4;strokeColor=#82b366;fontSize=18;verticalAlign=top;" parent="Ys5hY5i7SfUJTXYO6Fxr-1" vertex="1">
          <mxGeometry x="1046" y="1200" width="120" height="210" as="geometry" />
        </mxCell>
        <mxCell id="Ys5hY5i7SfUJTXYO6Fxr-103" value="關閉視窗" style="rounded=1;whiteSpace=wrap;html=1;fillColor=#e1d5e7;strokeColor=#9673a6;fontSize=18;" parent="Ys5hY5i7SfUJTXYO6Fxr-1" vertex="1">
          <mxGeometry x="1061" y="1330" width="90" height="60" as="geometry" />
        </mxCell>
        <mxCell id="Ys5hY5i7SfUJTXYO6Fxr-104" value="票券資訊" style="rounded=1;whiteSpace=wrap;html=1;fillColor=#f8cecc;strokeColor=#b85450;fontSize=18;" parent="Ys5hY5i7SfUJTXYO6Fxr-1" vertex="1">
          <mxGeometry x="1061" y="1250" width="90" height="60" as="geometry" />
        </mxCell>
        <mxCell id="Ys5hY5i7SfUJTXYO6Fxr-105" value="雜誌單文頁" style="rounded=1;whiteSpace=wrap;html=1;fillColor=#f5f5f5;strokeColor=#666666;fontSize=18;fontColor=#333333;" parent="Ys5hY5i7SfUJTXYO6Fxr-1" vertex="1">
          <mxGeometry x="1151" y="270" width="120" height="60" as="geometry" />
        </mxCell>
        <mxCell id="Ys5hY5i7SfUJTXYO6Fxr-106" value="eBook單文頁" style="rounded=1;whiteSpace=wrap;html=1;fillColor=#f5f5f5;strokeColor=#666666;fontSize=18;fontColor=#333333;" parent="Ys5hY5i7SfUJTXYO6Fxr-1" vertex="1">
          <mxGeometry x="1151" y="450" width="120" height="60" as="geometry" />
        </mxCell>
        <mxCell id="Ys5hY5i7SfUJTXYO6Fxr-157" value="卡號綁定教學" style="rounded=1;whiteSpace=wrap;html=1;fillColor=#d5e8d4;strokeColor=#82b366;fontSize=18;verticalAlign=top;" parent="Ys5hY5i7SfUJTXYO6Fxr-1" vertex="1">
          <mxGeometry x="2336" y="180" width="120" height="160" as="geometry" />
        </mxCell>
        <mxCell id="Ys5hY5i7SfUJTXYO6Fxr-158" value="下次不再顯示" style="rounded=1;whiteSpace=wrap;html=1;fillColor=#e1d5e7;strokeColor=#9673a6;fontSize=18;" parent="Ys5hY5i7SfUJTXYO6Fxr-1" vertex="1">
          <mxGeometry x="2356" y="250" width="80" height="60" as="geometry" />
        </mxCell>
        <mxCell id="Ys5hY5i7SfUJTXYO6Fxr-159" value="帳號資訊" style="rounded=1;whiteSpace=wrap;html=1;fillColor=#f8cecc;strokeColor=#b85450;fontSize=18;" parent="Ys5hY5i7SfUJTXYO6Fxr-1" vertex="1">
          <mxGeometry x="1696" y="280" width="120" height="60" as="geometry" />
        </mxCell>
        <mxCell id="Ys5hY5i7SfUJTXYO6Fxr-160" value="平台點數" style="rounded=1;whiteSpace=wrap;html=1;fillColor=#f8cecc;strokeColor=#b85450;fontSize=18;" parent="Ys5hY5i7SfUJTXYO6Fxr-1" vertex="1">
          <mxGeometry x="1836" y="280" width="120" height="60" as="geometry" />
        </mxCell>
        <mxCell id="Ys5hY5i7SfUJTXYO6Fxr-161" value="中國信託紅利點數" style="rounded=1;whiteSpace=wrap;html=1;fillColor=#f8cecc;strokeColor=#b85450;fontSize=18;" parent="Ys5hY5i7SfUJTXYO6Fxr-1" vertex="1">
          <mxGeometry x="1976" y="280" width="120" height="60" as="geometry" />
        </mxCell>
        <mxCell id="Ys5hY5i7SfUJTXYO6Fxr-162" style="edgeStyle=orthogonalEdgeStyle;rounded=0;orthogonalLoop=1;jettySize=auto;html=1;exitX=1;exitY=0.5;exitDx=0;exitDy=0;entryX=0.5;entryY=1;entryDx=0;entryDy=0;strokeColor=#000000;" parent="Ys5hY5i7SfUJTXYO6Fxr-1" source="Ys5hY5i7SfUJTXYO6Fxr-163" target="Ys5hY5i7SfUJTXYO6Fxr-203" edge="1">
          <mxGeometry relative="1" as="geometry">
            <Array as="points">
              <mxPoint x="2316" y="310" />
              <mxPoint x="2316" y="360" />
              <mxPoint x="2496" y="360" />
              <mxPoint x="2496" y="450" />
              <mxPoint x="2776" y="450" />
            </Array>
          </mxGeometry>
        </mxCell>
        <mxCell id="Ys5hY5i7SfUJTXYO6Fxr-163" value="綁定" style="rounded=1;whiteSpace=wrap;html=1;fillColor=#e1d5e7;strokeColor=#9673a6;fontSize=18;" parent="Ys5hY5i7SfUJTXYO6Fxr-1" vertex="1">
          <mxGeometry x="2226" y="280" width="80" height="60" as="geometry" />
        </mxCell>
        <mxCell id="Ys5hY5i7SfUJTXYO6Fxr-164" value="選單" style="rounded=1;whiteSpace=wrap;html=1;fillColor=#dae8fc;strokeColor=#6c8ebf;fontSize=18;" parent="Ys5hY5i7SfUJTXYO6Fxr-1" vertex="1">
          <mxGeometry x="25" y="220" width="120" height="60" as="geometry" />
        </mxCell>
        <mxCell id="Ys5hY5i7SfUJTXYO6Fxr-165" style="edgeStyle=orthogonalEdgeStyle;rounded=0;orthogonalLoop=1;jettySize=auto;html=1;exitX=1;exitY=0.5;exitDx=0;exitDy=0;entryX=0;entryY=0.5;entryDx=0;entryDy=0;" parent="Ys5hY5i7SfUJTXYO6Fxr-1" source="Ys5hY5i7SfUJTXYO6Fxr-166" target="Ys5hY5i7SfUJTXYO6Fxr-159" edge="1">
          <mxGeometry relative="1" as="geometry" />
        </mxCell>
        <mxCell id="Ys5hY5i7SfUJTXYO6Fxr-166" value="帳號資訊" style="rounded=1;whiteSpace=wrap;html=1;fillColor=#ffe6cc;strokeColor=#d79b00;fontSize=18;" parent="Ys5hY5i7SfUJTXYO6Fxr-1" vertex="1">
          <mxGeometry x="1516" y="280" width="120" height="60" as="geometry" />
        </mxCell>
        <mxCell id="Ys5hY5i7SfUJTXYO6Fxr-167" value="" style="edgeStyle=orthogonalEdgeStyle;rounded=0;orthogonalLoop=1;jettySize=auto;html=1;strokeColor=#000000;" parent="Ys5hY5i7SfUJTXYO6Fxr-1" source="Ys5hY5i7SfUJTXYO6Fxr-168" target="Ys5hY5i7SfUJTXYO6Fxr-193" edge="1">
          <mxGeometry relative="1" as="geometry" />
        </mxCell>
        <mxCell id="Ys5hY5i7SfUJTXYO6Fxr-168" value="修改資料" style="rounded=1;whiteSpace=wrap;html=1;fillColor=#ffe6cc;strokeColor=#d79b00;fontSize=18;" parent="Ys5hY5i7SfUJTXYO6Fxr-1" vertex="1">
          <mxGeometry x="1516" y="370" width="120" height="60" as="geometry" />
        </mxCell>
        <mxCell id="Ys5hY5i7SfUJTXYO6Fxr-169" style="edgeStyle=orthogonalEdgeStyle;rounded=0;orthogonalLoop=1;jettySize=auto;html=1;exitX=1;exitY=0.5;exitDx=0;exitDy=0;entryX=0;entryY=0.25;entryDx=0;entryDy=0;strokeColor=#000000;" parent="Ys5hY5i7SfUJTXYO6Fxr-1" source="Ys5hY5i7SfUJTXYO6Fxr-170" target="Ys5hY5i7SfUJTXYO6Fxr-179" edge="1">
          <mxGeometry relative="1" as="geometry" />
        </mxCell>
        <mxCell id="Ys5hY5i7SfUJTXYO6Fxr-170" value="點數儲值" style="rounded=1;whiteSpace=wrap;html=1;fillColor=#ffe6cc;strokeColor=#d79b00;fontSize=18;" parent="Ys5hY5i7SfUJTXYO6Fxr-1" vertex="1">
          <mxGeometry x="1516" y="460" width="120" height="60" as="geometry" />
        </mxCell>
        <mxCell id="Ys5hY5i7SfUJTXYO6Fxr-171" style="edgeStyle=orthogonalEdgeStyle;rounded=0;orthogonalLoop=1;jettySize=auto;html=1;exitX=1;exitY=0.5;exitDx=0;exitDy=0;entryX=0;entryY=0.5;entryDx=0;entryDy=0;strokeColor=#000000;" parent="Ys5hY5i7SfUJTXYO6Fxr-1" source="Ys5hY5i7SfUJTXYO6Fxr-172" target="Ys5hY5i7SfUJTXYO6Fxr-208" edge="1">
          <mxGeometry relative="1" as="geometry" />
        </mxCell>
        <mxCell id="Ys5hY5i7SfUJTXYO6Fxr-172" value="點數紀錄" style="rounded=1;whiteSpace=wrap;html=1;fillColor=#ffe6cc;strokeColor=#d79b00;fontSize=18;" parent="Ys5hY5i7SfUJTXYO6Fxr-1" vertex="1">
          <mxGeometry x="1516" y="800" width="120" height="60" as="geometry" />
        </mxCell>
        <mxCell id="Ys5hY5i7SfUJTXYO6Fxr-173" style="edgeStyle=orthogonalEdgeStyle;rounded=0;orthogonalLoop=1;jettySize=auto;html=1;exitX=1;exitY=0.5;exitDx=0;exitDy=0;strokeColor=#000000;" parent="Ys5hY5i7SfUJTXYO6Fxr-1" source="Ys5hY5i7SfUJTXYO6Fxr-174" target="Ys5hY5i7SfUJTXYO6Fxr-219" edge="1">
          <mxGeometry relative="1" as="geometry" />
        </mxCell>
        <mxCell id="Ys5hY5i7SfUJTXYO6Fxr-174" value="聯絡客服" style="rounded=1;whiteSpace=wrap;html=1;fillColor=#ffe6cc;strokeColor=#d79b00;fontSize=18;" parent="Ys5hY5i7SfUJTXYO6Fxr-1" vertex="1">
          <mxGeometry x="1516" y="888" width="120" height="60" as="geometry" />
        </mxCell>
        <mxCell id="Ys5hY5i7SfUJTXYO6Fxr-175" value="" style="edgeStyle=orthogonalEdgeStyle;rounded=0;orthogonalLoop=1;jettySize=auto;html=1;strokeColor=#000000;" parent="Ys5hY5i7SfUJTXYO6Fxr-1" source="Ys5hY5i7SfUJTXYO6Fxr-176" target="Ys5hY5i7SfUJTXYO6Fxr-220" edge="1">
          <mxGeometry relative="1" as="geometry" />
        </mxCell>
        <mxCell id="Ys5hY5i7SfUJTXYO6Fxr-176" value="會員登出" style="rounded=1;whiteSpace=wrap;html=1;fillColor=#e1d5e7;strokeColor=#9673a6;fontSize=18;" parent="Ys5hY5i7SfUJTXYO6Fxr-1" vertex="1">
          <mxGeometry x="1516" y="970" width="120" height="60" as="geometry" />
        </mxCell>
        <mxCell id="Ys5hY5i7SfUJTXYO6Fxr-177" style="edgeStyle=orthogonalEdgeStyle;rounded=0;orthogonalLoop=1;jettySize=auto;html=1;exitX=0.5;exitY=1;exitDx=0;exitDy=0;entryX=1;entryY=0.5;entryDx=0;entryDy=0;" parent="Ys5hY5i7SfUJTXYO6Fxr-1" source="Ys5hY5i7SfUJTXYO6Fxr-178" target="Ys5hY5i7SfUJTXYO6Fxr-179" edge="1">
          <mxGeometry relative="1" as="geometry">
            <Array as="points">
              <mxPoint x="2166" y="350" />
              <mxPoint x="2106" y="350" />
              <mxPoint x="2106" y="610" />
            </Array>
          </mxGeometry>
        </mxCell>
        <mxCell id="Ys5hY5i7SfUJTXYO6Fxr-178" value="儲值" style="rounded=1;whiteSpace=wrap;html=1;fillColor=#e1d5e7;strokeColor=#9673a6;fontSize=18;" parent="Ys5hY5i7SfUJTXYO6Fxr-1" vertex="1">
          <mxGeometry x="2126" y="280" width="80" height="60" as="geometry" />
        </mxCell>
        <mxCell id="Ys5hY5i7SfUJTXYO6Fxr-179" value="儲值頁面" style="rounded=1;whiteSpace=wrap;html=1;fillColor=#f5f5f5;fontColor=#333333;strokeColor=#666666;fontSize=18;verticalAlign=top;" parent="Ys5hY5i7SfUJTXYO6Fxr-1" vertex="1">
          <mxGeometry x="1696" y="460" width="250" height="300" as="geometry" />
        </mxCell>
        <mxCell id="Ys5hY5i7SfUJTXYO6Fxr-180" value="" style="edgeStyle=orthogonalEdgeStyle;rounded=0;orthogonalLoop=1;jettySize=auto;html=1;strokeColor=#CC0000;" parent="Ys5hY5i7SfUJTXYO6Fxr-1" source="Ys5hY5i7SfUJTXYO6Fxr-181" target="Ys5hY5i7SfUJTXYO6Fxr-190" edge="1">
          <mxGeometry relative="1" as="geometry" />
        </mxCell>
        <mxCell id="Ys5hY5i7SfUJTXYO6Fxr-181" value="紅利點兌換" style="rounded=1;whiteSpace=wrap;html=1;fillColor=#e1d5e7;strokeColor=#9673a6;fontSize=18;" parent="Ys5hY5i7SfUJTXYO6Fxr-1" vertex="1">
          <mxGeometry x="1716" y="510" width="80" height="60" as="geometry" />
        </mxCell>
        <mxCell id="Ys5hY5i7SfUJTXYO6Fxr-182" value="" style="edgeStyle=orthogonalEdgeStyle;rounded=0;orthogonalLoop=1;jettySize=auto;html=1;strokeColor=#000000;" parent="Ys5hY5i7SfUJTXYO6Fxr-1" source="Ys5hY5i7SfUJTXYO6Fxr-183" target="Ys5hY5i7SfUJTXYO6Fxr-188" edge="1">
          <mxGeometry relative="1" as="geometry" />
        </mxCell>
        <mxCell id="Ys5hY5i7SfUJTXYO6Fxr-183" value="信用卡" style="rounded=1;whiteSpace=wrap;html=1;fillColor=#e1d5e7;strokeColor=#9673a6;fontSize=18;" parent="Ys5hY5i7SfUJTXYO6Fxr-1" vertex="1">
          <mxGeometry x="1716" y="590" width="80" height="60" as="geometry" />
        </mxCell>
        <mxCell id="Ys5hY5i7SfUJTXYO6Fxr-184" style="edgeStyle=orthogonalEdgeStyle;rounded=0;orthogonalLoop=1;jettySize=auto;html=1;exitX=1;exitY=0.5;exitDx=0;exitDy=0;entryX=0;entryY=0.5;entryDx=0;entryDy=0;strokeColor=#CC0000;" parent="Ys5hY5i7SfUJTXYO6Fxr-1" source="Ys5hY5i7SfUJTXYO6Fxr-186" target="Ys5hY5i7SfUJTXYO6Fxr-192" edge="1">
          <mxGeometry relative="1" as="geometry" />
        </mxCell>
        <mxCell id="Ys5hY5i7SfUJTXYO6Fxr-185" style="edgeStyle=orthogonalEdgeStyle;rounded=0;orthogonalLoop=1;jettySize=auto;html=1;exitX=0.5;exitY=1;exitDx=0;exitDy=0;entryX=0;entryY=0.5;entryDx=0;entryDy=0;strokeColor=#000000;" parent="Ys5hY5i7SfUJTXYO6Fxr-1" source="Ys5hY5i7SfUJTXYO6Fxr-186" target="Ys5hY5i7SfUJTXYO6Fxr-191" edge="1">
          <mxGeometry relative="1" as="geometry">
            <Array as="points">
              <mxPoint x="1866" y="760" />
              <mxPoint x="2216" y="760" />
              <mxPoint x="2216" y="690" />
            </Array>
          </mxGeometry>
        </mxCell>
        <mxCell id="Ys5hY5i7SfUJTXYO6Fxr-186" value="前往儲值" style="rounded=1;whiteSpace=wrap;html=1;fillColor=#e1d5e7;strokeColor=#9673a6;fontSize=18;" parent="Ys5hY5i7SfUJTXYO6Fxr-1" vertex="1">
          <mxGeometry x="1826" y="680" width="80" height="60" as="geometry" />
        </mxCell>
        <mxCell id="Ys5hY5i7SfUJTXYO6Fxr-187" style="edgeStyle=orthogonalEdgeStyle;rounded=0;orthogonalLoop=1;jettySize=auto;html=1;entryX=0.5;entryY=0;entryDx=0;entryDy=0;strokeColor=#000000;" parent="Ys5hY5i7SfUJTXYO6Fxr-1" source="Ys5hY5i7SfUJTXYO6Fxr-188" target="Ys5hY5i7SfUJTXYO6Fxr-186" edge="1">
          <mxGeometry relative="1" as="geometry" />
        </mxCell>
        <mxCell id="Ys5hY5i7SfUJTXYO6Fxr-188" value="儲值點數選擇" style="rounded=1;whiteSpace=wrap;html=1;fillColor=#fff2cc;strokeColor=#000000;fontSize=18;" parent="Ys5hY5i7SfUJTXYO6Fxr-1" vertex="1">
          <mxGeometry x="1826" y="590" width="80" height="60" as="geometry" />
        </mxCell>
        <mxCell id="Ys5hY5i7SfUJTXYO6Fxr-189" style="edgeStyle=orthogonalEdgeStyle;rounded=0;orthogonalLoop=1;jettySize=auto;html=1;exitX=0;exitY=0.75;exitDx=0;exitDy=0;entryX=0;entryY=0.5;entryDx=0;entryDy=0;strokeColor=#CC0000;" parent="Ys5hY5i7SfUJTXYO6Fxr-1" source="Ys5hY5i7SfUJTXYO6Fxr-190" target="Ys5hY5i7SfUJTXYO6Fxr-186" edge="1">
          <mxGeometry relative="1" as="geometry" />
        </mxCell>
        <mxCell id="Ys5hY5i7SfUJTXYO6Fxr-190" value="點數面額選擇" style="rounded=1;whiteSpace=wrap;html=1;fillColor=#fff2cc;strokeColor=#d6b656;fontSize=18;" parent="Ys5hY5i7SfUJTXYO6Fxr-1" vertex="1">
          <mxGeometry x="1826" y="510" width="80" height="60" as="geometry" />
        </mxCell>
        <mxCell id="Ys5hY5i7SfUJTXYO6Fxr-191" value="中國信託儲值頁面" style="rounded=1;whiteSpace=wrap;html=1;fillColor=#f5f5f5;fontColor=#333333;strokeColor=#666666;fontSize=18;verticalAlign=middle;" parent="Ys5hY5i7SfUJTXYO6Fxr-1" vertex="1">
          <mxGeometry x="2236" y="650" width="200" height="80" as="geometry" />
        </mxCell>
        <mxCell id="Ys5hY5i7SfUJTXYO6Fxr-192" value="點數交換頁面" style="rounded=1;whiteSpace=wrap;html=1;fillColor=#f5f5f5;fontColor=#333333;strokeColor=#666666;fontSize=18;verticalAlign=middle;" parent="Ys5hY5i7SfUJTXYO6Fxr-1" vertex="1">
          <mxGeometry x="2006" y="650" width="200" height="80" as="geometry" />
        </mxCell>
        <mxCell id="Ys5hY5i7SfUJTXYO6Fxr-193" value="&lt;div&gt;平台帳號&lt;/div&gt;&lt;div&gt;(平台名稱)&lt;br&gt;&lt;/div&gt;" style="rounded=1;whiteSpace=wrap;html=1;fillColor=#f8cecc;strokeColor=#b85450;fontSize=18;" parent="Ys5hY5i7SfUJTXYO6Fxr-1" vertex="1">
          <mxGeometry x="1696" y="370" width="120" height="60" as="geometry" />
        </mxCell>
        <mxCell id="Ys5hY5i7SfUJTXYO6Fxr-194" value="平台點數" style="rounded=1;whiteSpace=wrap;html=1;fillColor=#f8cecc;strokeColor=#b85450;fontSize=18;" parent="Ys5hY5i7SfUJTXYO6Fxr-1" vertex="1">
          <mxGeometry x="1836" y="370" width="120" height="60" as="geometry" />
        </mxCell>
        <mxCell id="Ys5hY5i7SfUJTXYO6Fxr-195" value="中國信託紅利點數" style="rounded=1;whiteSpace=wrap;html=1;fillColor=#f8cecc;strokeColor=#b85450;fontSize=18;" parent="Ys5hY5i7SfUJTXYO6Fxr-1" vertex="1">
          <mxGeometry x="1976" y="370" width="120" height="60" as="geometry" />
        </mxCell>
        <mxCell id="Ys5hY5i7SfUJTXYO6Fxr-196" value="會員名稱" style="rounded=1;whiteSpace=wrap;html=1;fillColor=#f8cecc;strokeColor=#b85450;fontSize=18;" parent="Ys5hY5i7SfUJTXYO6Fxr-1" vertex="1">
          <mxGeometry x="2116" y="370" width="120" height="60" as="geometry" />
        </mxCell>
        <mxCell id="Ys5hY5i7SfUJTXYO6Fxr-197" value="紅利綁定" style="rounded=1;whiteSpace=wrap;html=1;fillColor=#f8cecc;strokeColor=#b85450;fontSize=18;" parent="Ys5hY5i7SfUJTXYO6Fxr-1" vertex="1">
          <mxGeometry x="2256" y="370" width="120" height="60" as="geometry" />
        </mxCell>
        <mxCell id="Ys5hY5i7SfUJTXYO6Fxr-198" style="edgeStyle=orthogonalEdgeStyle;rounded=0;orthogonalLoop=1;jettySize=auto;html=1;exitX=0.5;exitY=1;exitDx=0;exitDy=0;entryX=0.5;entryY=1;entryDx=0;entryDy=0;strokeColor=#000000;" parent="Ys5hY5i7SfUJTXYO6Fxr-1" source="Ys5hY5i7SfUJTXYO6Fxr-199" target="Ys5hY5i7SfUJTXYO6Fxr-203" edge="1">
          <mxGeometry relative="1" as="geometry" />
        </mxCell>
        <mxCell id="Ys5hY5i7SfUJTXYO6Fxr-199" value="綁定" style="rounded=1;whiteSpace=wrap;html=1;fillColor=#e1d5e7;strokeColor=#9673a6;fontSize=18;" parent="Ys5hY5i7SfUJTXYO6Fxr-1" vertex="1">
          <mxGeometry x="2516" y="370" width="80" height="60" as="geometry" />
        </mxCell>
        <mxCell id="Ys5hY5i7SfUJTXYO6Fxr-200" style="edgeStyle=orthogonalEdgeStyle;rounded=0;orthogonalLoop=1;jettySize=auto;html=1;exitX=0.5;exitY=1;exitDx=0;exitDy=0;entryX=1;entryY=0.5;entryDx=0;entryDy=0;strokeColor=#000000;" parent="Ys5hY5i7SfUJTXYO6Fxr-1" source="Ys5hY5i7SfUJTXYO6Fxr-201" target="Ys5hY5i7SfUJTXYO6Fxr-179" edge="1">
          <mxGeometry relative="1" as="geometry" />
        </mxCell>
        <mxCell id="Ys5hY5i7SfUJTXYO6Fxr-201" value="儲值" style="rounded=1;whiteSpace=wrap;html=1;fillColor=#e1d5e7;strokeColor=#9673a6;fontSize=18;" parent="Ys5hY5i7SfUJTXYO6Fxr-1" vertex="1">
          <mxGeometry x="2406" y="370" width="80" height="60" as="geometry" />
        </mxCell>
        <mxCell id="Ys5hY5i7SfUJTXYO6Fxr-202" value="修改送出" style="rounded=1;whiteSpace=wrap;html=1;fillColor=#e1d5e7;strokeColor=#9673a6;fontSize=18;" parent="Ys5hY5i7SfUJTXYO6Fxr-1" vertex="1">
          <mxGeometry x="2626" y="370" width="80" height="60" as="geometry" />
        </mxCell>
        <mxCell id="Ys5hY5i7SfUJTXYO6Fxr-203" value="紅利綁定表單" style="rounded=1;whiteSpace=wrap;html=1;fillColor=#e1d5e7;strokeColor=#9673a6;fontSize=18;" parent="Ys5hY5i7SfUJTXYO6Fxr-1" vertex="1">
          <mxGeometry x="2736" y="370" width="80" height="60" as="geometry" />
        </mxCell>
        <mxCell id="Ys5hY5i7SfUJTXYO6Fxr-204" value="最近玩過的遊戲" style="rounded=1;whiteSpace=wrap;html=1;fillColor=#f8cecc;strokeColor=#b85450;fontSize=18;" parent="Ys5hY5i7SfUJTXYO6Fxr-1" vertex="1">
          <mxGeometry x="2486" y="280" width="120" height="60" as="geometry" />
        </mxCell>
        <mxCell id="Ys5hY5i7SfUJTXYO6Fxr-205" value="最近閱讀的小說" style="rounded=1;whiteSpace=wrap;html=1;fillColor=#f8cecc;strokeColor=#b85450;fontSize=18;" parent="Ys5hY5i7SfUJTXYO6Fxr-1" vertex="1">
          <mxGeometry x="2626" y="280" width="120" height="60" as="geometry" />
        </mxCell>
        <mxCell id="Ys5hY5i7SfUJTXYO6Fxr-206" value="最近閱讀的雜誌" style="rounded=1;whiteSpace=wrap;html=1;fillColor=#f8cecc;strokeColor=#b85450;fontSize=18;" parent="Ys5hY5i7SfUJTXYO6Fxr-1" vertex="1">
          <mxGeometry x="2766" y="280" width="120" height="60" as="geometry" />
        </mxCell>
        <mxCell id="Ys5hY5i7SfUJTXYO6Fxr-207" value="最近閱讀的電子書" style="rounded=1;whiteSpace=wrap;html=1;fillColor=#f8cecc;strokeColor=#b85450;fontSize=18;" parent="Ys5hY5i7SfUJTXYO6Fxr-1" vertex="1">
          <mxGeometry x="2906" y="280" width="120" height="60" as="geometry" />
        </mxCell>
        <mxCell id="Ys5hY5i7SfUJTXYO6Fxr-208" value="點數紀錄" style="rounded=1;whiteSpace=wrap;html=1;fillColor=#f8cecc;strokeColor=#b85450;fontSize=18;" parent="Ys5hY5i7SfUJTXYO6Fxr-1" vertex="1">
          <mxGeometry x="1696" y="800" width="120" height="60" as="geometry" />
        </mxCell>
        <mxCell id="Ys5hY5i7SfUJTXYO6Fxr-209" value="查詢紀錄類型" style="rounded=1;whiteSpace=wrap;html=1;fillColor=#f8cecc;strokeColor=#b85450;fontSize=18;" parent="Ys5hY5i7SfUJTXYO6Fxr-1" vertex="1">
          <mxGeometry x="1846" y="800" width="120" height="60" as="geometry" />
        </mxCell>
        <mxCell id="Ys5hY5i7SfUJTXYO6Fxr-210" value="查詢日期區間" style="rounded=1;whiteSpace=wrap;html=1;fillColor=#f8cecc;strokeColor=#b85450;fontSize=18;" parent="Ys5hY5i7SfUJTXYO6Fxr-1" vertex="1">
          <mxGeometry x="1996" y="800" width="120" height="60" as="geometry" />
        </mxCell>
        <mxCell id="Ys5hY5i7SfUJTXYO6Fxr-211" value="累計儲值/消費資料" style="rounded=1;whiteSpace=wrap;html=1;fillColor=#f8cecc;strokeColor=#b85450;fontSize=18;" parent="Ys5hY5i7SfUJTXYO6Fxr-1" vertex="1">
          <mxGeometry x="2356" y="800" width="120" height="60" as="geometry" />
        </mxCell>
        <mxCell id="Ys5hY5i7SfUJTXYO6Fxr-212" value="詳細資料" style="rounded=1;whiteSpace=wrap;html=1;fillColor=#d5e8d4;strokeColor=#82b366;fontSize=18;verticalAlign=middle;" parent="Ys5hY5i7SfUJTXYO6Fxr-1" vertex="1">
          <mxGeometry x="2636" y="797" width="120" height="66" as="geometry" />
        </mxCell>
        <mxCell id="Ys5hY5i7SfUJTXYO6Fxr-213" style="edgeStyle=orthogonalEdgeStyle;rounded=0;orthogonalLoop=1;jettySize=auto;html=1;exitX=1;exitY=0.5;exitDx=0;exitDy=0;entryX=0;entryY=0.5;entryDx=0;entryDy=0;strokeColor=#000000;" parent="Ys5hY5i7SfUJTXYO6Fxr-1" source="Ys5hY5i7SfUJTXYO6Fxr-214" target="Ys5hY5i7SfUJTXYO6Fxr-212" edge="1">
          <mxGeometry relative="1" as="geometry" />
        </mxCell>
        <mxCell id="Ys5hY5i7SfUJTXYO6Fxr-214" value="查看" style="rounded=1;whiteSpace=wrap;html=1;fillColor=#e1d5e7;strokeColor=#9673a6;fontSize=18;" parent="Ys5hY5i7SfUJTXYO6Fxr-1" vertex="1">
          <mxGeometry x="2496" y="800" width="80" height="60" as="geometry" />
        </mxCell>
        <mxCell id="Ys5hY5i7SfUJTXYO6Fxr-215" style="edgeStyle=orthogonalEdgeStyle;rounded=0;orthogonalLoop=1;jettySize=auto;html=1;exitX=0.5;exitY=0;exitDx=0;exitDy=0;entryX=0.5;entryY=0;entryDx=0;entryDy=0;strokeColor=#000000;" parent="Ys5hY5i7SfUJTXYO6Fxr-1" source="Ys5hY5i7SfUJTXYO6Fxr-216" target="Ys5hY5i7SfUJTXYO6Fxr-211" edge="1">
          <mxGeometry relative="1" as="geometry" />
        </mxCell>
        <mxCell id="Ys5hY5i7SfUJTXYO6Fxr-216" value="最近90天" style="rounded=1;whiteSpace=wrap;html=1;fillColor=#e1d5e7;strokeColor=#9673a6;fontSize=18;" parent="Ys5hY5i7SfUJTXYO6Fxr-1" vertex="1">
          <mxGeometry x="2146" y="800" width="80" height="60" as="geometry" />
        </mxCell>
        <mxCell id="Ys5hY5i7SfUJTXYO6Fxr-217" style="edgeStyle=orthogonalEdgeStyle;rounded=0;orthogonalLoop=1;jettySize=auto;html=1;exitX=1;exitY=0.5;exitDx=0;exitDy=0;strokeColor=#000000;" parent="Ys5hY5i7SfUJTXYO6Fxr-1" source="Ys5hY5i7SfUJTXYO6Fxr-218" target="Ys5hY5i7SfUJTXYO6Fxr-211" edge="1">
          <mxGeometry relative="1" as="geometry" />
        </mxCell>
        <mxCell id="Ys5hY5i7SfUJTXYO6Fxr-218" value="查詢" style="rounded=1;whiteSpace=wrap;html=1;fillColor=#e1d5e7;strokeColor=#9673a6;fontSize=18;" parent="Ys5hY5i7SfUJTXYO6Fxr-1" vertex="1">
          <mxGeometry x="2246" y="800" width="80" height="60" as="geometry" />
        </mxCell>
        <mxCell id="Ys5hY5i7SfUJTXYO6Fxr-219" value="客服表單" style="rounded=1;whiteSpace=wrap;html=1;fillColor=#f5f5f5;fontColor=#333333;strokeColor=#666666;fontSize=18;verticalAlign=middle;" parent="Ys5hY5i7SfUJTXYO6Fxr-1" vertex="1">
          <mxGeometry x="1696" y="878" width="200" height="80" as="geometry" />
        </mxCell>
        <mxCell id="Ys5hY5i7SfUJTXYO6Fxr-220" value="確定登出" style="rounded=1;whiteSpace=wrap;html=1;fillColor=#d5e8d4;strokeColor=#82b366;fontSize=18;verticalAlign=middle;" parent="Ys5hY5i7SfUJTXYO6Fxr-1" vertex="1">
          <mxGeometry x="1696" y="967" width="120" height="66" as="geometry" />
        </mxCell>
        <mxCell id="Lp5GWfLnk97LErhzs6FB-0" value="遊戲介紹頁面" style="rounded=1;whiteSpace=wrap;html=1;fillColor=#f5f5f5;strokeColor=#666666;fontSize=18;fontColor=#333333;" parent="Ys5hY5i7SfUJTXYO6Fxr-1" vertex="1">
          <mxGeometry x="180" y="630" width="120" height="60" as="geometry" />
        </mxCell>
        <mxCell id="Lp5GWfLnk97LErhzs6FB-1" value="遊戲" style="rounded=1;whiteSpace=wrap;html=1;fillColor=#f5f5f5;strokeColor=#666666;fontSize=18;fontColor=#333333;" parent="Ys5hY5i7SfUJTXYO6Fxr-1" vertex="1">
          <mxGeometry x="180" y="720" width="120" height="60" as="geometry" />
        </mxCell>
        <mxCell id="dvV7r0g6No6pwjhQ1p7Y-44" value="" style="edgeStyle=orthogonalEdgeStyle;rounded=0;orthogonalLoop=1;jettySize=auto;html=1;fontSize=15;" edge="1" parent="Ys5hY5i7SfUJTXYO6Fxr-1" source="dvV7r0g6No6pwjhQ1p7Y-0">
          <mxGeometry relative="1" as="geometry">
            <mxPoint x="510.0588235294117" y="270" as="targetPoint" />
          </mxGeometry>
        </mxCell>
        <mxCell id="dvV7r0g6No6pwjhQ1p7Y-0" value="休閒遊戲" style="rounded=1;whiteSpace=wrap;html=1;fillColor=#f5f5f5;strokeColor=#666666;fontSize=18;fontColor=#333333;" vertex="1" parent="Ys5hY5i7SfUJTXYO6Fxr-1">
          <mxGeometry x="450" y="180" width="120" height="60" as="geometry" />
        </mxCell>
        <mxCell id="dvV7r0g6No6pwjhQ1p7Y-7" value="遊戲" style="rounded=1;whiteSpace=wrap;html=1;fillColor=#f5f5f5;strokeColor=#666666;fontSize=18;fontColor=#333333;" vertex="1" parent="Ys5hY5i7SfUJTXYO6Fxr-1">
          <mxGeometry x="450" y="370" width="120" height="60" as="geometry" />
        </mxCell>
        <mxCell id="dvV7r0g6No6pwjhQ1p7Y-18" value="" style="edgeStyle=orthogonalEdgeStyle;rounded=0;orthogonalLoop=1;jettySize=auto;html=1;" edge="1" parent="Ys5hY5i7SfUJTXYO6Fxr-1" source="dvV7r0g6No6pwjhQ1p7Y-12" target="dvV7r0g6No6pwjhQ1p7Y-16">
          <mxGeometry relative="1" as="geometry" />
        </mxCell>
        <mxCell id="dvV7r0g6No6pwjhQ1p7Y-12" value="每日簽到" style="rounded=1;whiteSpace=wrap;html=1;fillColor=#ffe6cc;strokeColor=#d79b00;fontSize=18;" vertex="1" parent="Ys5hY5i7SfUJTXYO6Fxr-1">
          <mxGeometry x="1336" y="270" width="120" height="60" as="geometry" />
        </mxCell>
        <mxCell id="dvV7r0g6No6pwjhQ1p7Y-19" value="" style="edgeStyle=orthogonalEdgeStyle;rounded=0;orthogonalLoop=1;jettySize=auto;html=1;" edge="1" parent="Ys5hY5i7SfUJTXYO6Fxr-1" source="dvV7r0g6No6pwjhQ1p7Y-13" target="dvV7r0g6No6pwjhQ1p7Y-17">
          <mxGeometry relative="1" as="geometry" />
        </mxCell>
        <mxCell id="dvV7r0g6No6pwjhQ1p7Y-13" value="任務中心" style="rounded=1;whiteSpace=wrap;html=1;fillColor=#ffe6cc;strokeColor=#d79b00;fontSize=18;" vertex="1" parent="Ys5hY5i7SfUJTXYO6Fxr-1">
          <mxGeometry x="1336" y="460" width="120" height="60" as="geometry" />
        </mxCell>
        <mxCell id="dvV7r0g6No6pwjhQ1p7Y-31" value="" style="edgeStyle=orthogonalEdgeStyle;rounded=0;orthogonalLoop=1;jettySize=auto;html=1;" edge="1" parent="Ys5hY5i7SfUJTXYO6Fxr-1" source="dvV7r0g6No6pwjhQ1p7Y-14" target="dvV7r0g6No6pwjhQ1p7Y-30">
          <mxGeometry relative="1" as="geometry" />
        </mxCell>
        <mxCell id="dvV7r0g6No6pwjhQ1p7Y-14" value="積分商城" style="rounded=1;whiteSpace=wrap;html=1;fillColor=#ffe6cc;strokeColor=#d79b00;fontSize=18;" vertex="1" parent="Ys5hY5i7SfUJTXYO6Fxr-1">
          <mxGeometry x="1336" y="660" width="120" height="60" as="geometry" />
        </mxCell>
        <mxCell id="dvV7r0g6No6pwjhQ1p7Y-16" value="簽到積分" style="rounded=1;whiteSpace=wrap;html=1;fillColor=#f8cecc;strokeColor=#b85450;fontSize=18;" vertex="1" parent="Ys5hY5i7SfUJTXYO6Fxr-1">
          <mxGeometry x="1336" y="370" width="120" height="60" as="geometry" />
        </mxCell>
        <mxCell id="dvV7r0g6No6pwjhQ1p7Y-17" value="問答拿積分" style="rounded=1;whiteSpace=wrap;html=1;fillColor=#f8cecc;strokeColor=#b85450;fontSize=18;" vertex="1" parent="Ys5hY5i7SfUJTXYO6Fxr-1">
          <mxGeometry x="1336" y="555" width="120" height="60" as="geometry" />
        </mxCell>
        <mxCell id="dvV7r0g6No6pwjhQ1p7Y-40" style="edgeStyle=orthogonalEdgeStyle;rounded=0;orthogonalLoop=1;jettySize=auto;html=1;exitX=0.5;exitY=1;exitDx=0;exitDy=0;entryX=0.5;entryY=0;entryDx=0;entryDy=0;fontSize=15;" edge="1" parent="Ys5hY5i7SfUJTXYO6Fxr-1" source="dvV7r0g6No6pwjhQ1p7Y-28" target="dvV7r0g6No6pwjhQ1p7Y-32">
          <mxGeometry relative="1" as="geometry" />
        </mxCell>
        <mxCell id="dvV7r0g6No6pwjhQ1p7Y-28" value="紀錄查詢" style="rounded=1;whiteSpace=wrap;html=1;fillColor=#ffe6cc;strokeColor=#d79b00;fontSize=18;" vertex="1" parent="Ys5hY5i7SfUJTXYO6Fxr-1">
          <mxGeometry x="1336" y="890" width="120" height="60" as="geometry" />
        </mxCell>
        <mxCell id="dvV7r0g6No6pwjhQ1p7Y-30" value="積分兌換商品" style="rounded=1;whiteSpace=wrap;html=1;fillColor=#f8cecc;strokeColor=#b85450;fontSize=18;" vertex="1" parent="Ys5hY5i7SfUJTXYO6Fxr-1">
          <mxGeometry x="1336" y="770" width="120" height="60" as="geometry" />
        </mxCell>
        <mxCell id="dvV7r0g6No6pwjhQ1p7Y-32" value="紀錄查詢" style="swimlane;fontSize=15;" vertex="1" parent="Ys5hY5i7SfUJTXYO6Fxr-1">
          <mxGeometry x="1200" y="990" width="280" height="320" as="geometry">
            <mxRectangle x="1706" y="1210" width="90" height="23" as="alternateBounds" />
          </mxGeometry>
        </mxCell>
        <mxCell id="dvV7r0g6No6pwjhQ1p7Y-37" value="" style="edgeStyle=orthogonalEdgeStyle;rounded=0;orthogonalLoop=1;jettySize=auto;html=1;fontSize=15;" edge="1" parent="dvV7r0g6No6pwjhQ1p7Y-32" source="dvV7r0g6No6pwjhQ1p7Y-29" target="dvV7r0g6No6pwjhQ1p7Y-33">
          <mxGeometry relative="1" as="geometry" />
        </mxCell>
        <mxCell id="dvV7r0g6No6pwjhQ1p7Y-29" value="任務紀錄" style="rounded=1;whiteSpace=wrap;html=1;fillColor=#ffe6cc;strokeColor=#d79b00;fontSize=18;" vertex="1" parent="dvV7r0g6No6pwjhQ1p7Y-32">
          <mxGeometry x="10" y="40" width="120" height="60" as="geometry" />
        </mxCell>
        <mxCell id="dvV7r0g6No6pwjhQ1p7Y-33" value="&lt;div&gt;獲得積分紀錄&lt;/div&gt;&lt;div&gt;簽到與問答&lt;br&gt;&lt;/div&gt;" style="rounded=1;whiteSpace=wrap;html=1;fillColor=#f8cecc;strokeColor=#b85450;fontSize=18;" vertex="1" parent="dvV7r0g6No6pwjhQ1p7Y-32">
          <mxGeometry x="150" y="40" width="120" height="60" as="geometry" />
        </mxCell>
        <mxCell id="dvV7r0g6No6pwjhQ1p7Y-38" value="" style="edgeStyle=orthogonalEdgeStyle;rounded=0;orthogonalLoop=1;jettySize=auto;html=1;fontSize=15;" edge="1" parent="dvV7r0g6No6pwjhQ1p7Y-32" source="dvV7r0g6No6pwjhQ1p7Y-20" target="dvV7r0g6No6pwjhQ1p7Y-34">
          <mxGeometry relative="1" as="geometry" />
        </mxCell>
        <mxCell id="dvV7r0g6No6pwjhQ1p7Y-20" value="兌換紀錄" style="rounded=1;whiteSpace=wrap;html=1;fillColor=#ffe6cc;strokeColor=#d79b00;fontSize=18;" vertex="1" parent="dvV7r0g6No6pwjhQ1p7Y-32">
          <mxGeometry x="10" y="140" width="120" height="60" as="geometry" />
        </mxCell>
        <mxCell id="dvV7r0g6No6pwjhQ1p7Y-39" value="" style="edgeStyle=orthogonalEdgeStyle;rounded=0;orthogonalLoop=1;jettySize=auto;html=1;fontSize=15;" edge="1" parent="dvV7r0g6No6pwjhQ1p7Y-32" source="dvV7r0g6No6pwjhQ1p7Y-15" target="dvV7r0g6No6pwjhQ1p7Y-35">
          <mxGeometry relative="1" as="geometry" />
        </mxCell>
        <mxCell id="dvV7r0g6No6pwjhQ1p7Y-15" value="新手禮包" style="rounded=1;whiteSpace=wrap;html=1;fillColor=#ffe6cc;strokeColor=#d79b00;fontSize=18;" vertex="1" parent="dvV7r0g6No6pwjhQ1p7Y-32">
          <mxGeometry x="10" y="240" width="120" height="60" as="geometry" />
        </mxCell>
        <mxCell id="dvV7r0g6No6pwjhQ1p7Y-34" value="&lt;div&gt;積分兌換商品&lt;/div&gt;" style="rounded=1;whiteSpace=wrap;html=1;fillColor=#f8cecc;strokeColor=#b85450;fontSize=18;" vertex="1" parent="dvV7r0g6No6pwjhQ1p7Y-32">
          <mxGeometry x="150" y="140" width="120" height="60" as="geometry" />
        </mxCell>
        <mxCell id="dvV7r0g6No6pwjhQ1p7Y-35" value="新手禮包使用紀錄" style="rounded=1;whiteSpace=wrap;html=1;fillColor=#f8cecc;strokeColor=#b85450;fontSize=18;" vertex="1" parent="dvV7r0g6No6pwjhQ1p7Y-32">
          <mxGeometry x="150" y="240" width="120" height="60" as="geometry" />
        </mxCell>
        <mxCell id="dvV7r0g6No6pwjhQ1p7Y-36" value="新手禮包" style="rounded=1;whiteSpace=wrap;html=1;fillColor=#f5f5f5;strokeColor=#666666;fontSize=18;fontColor=#333333;" vertex="1" parent="Ys5hY5i7SfUJTXYO6Fxr-1">
          <mxGeometry x="180" y="818" width="120" height="60" as="geometry" />
        </mxCell>
        <mxCell id="dvV7r0g6No6pwjhQ1p7Y-46" value="" style="edgeStyle=orthogonalEdgeStyle;rounded=0;orthogonalLoop=1;jettySize=auto;html=1;fontSize=15;" edge="1" parent="Ys5hY5i7SfUJTXYO6Fxr-1" source="dvV7r0g6No6pwjhQ1p7Y-45" target="dvV7r0g6No6pwjhQ1p7Y-7">
          <mxGeometry relative="1" as="geometry" />
        </mxCell>
        <mxCell id="dvV7r0g6No6pwjhQ1p7Y-45" value="遊戲列表" style="rounded=1;whiteSpace=wrap;html=1;fillColor=#f8cecc;strokeColor=#b85450;fontSize=18;" vertex="1" parent="Ys5hY5i7SfUJTXYO6Fxr-1">
          <mxGeometry x="450" y="270" width="120" height="60" as="geometry" />
        </mxCell>
        <mxCell id="dvV7r0g6No6pwjhQ1p7Y-47" value="遊戲(首頁)" style="rounded=1;whiteSpace=wrap;html=1;fillColor=#f5f5f5;strokeColor=#666666;fontSize=18;fontColor=#333333;" vertex="1" parent="Ys5hY5i7SfUJTXYO6Fxr-1">
          <mxGeometry x="320" y="180" width="120" height="60" as="geometry" />
        </mxCell>
        <mxCell id="dvV7r0g6No6pwjhQ1p7Y-48" value="遊戲" style="rounded=1;whiteSpace=wrap;html=1;fillColor=#f5f5f5;strokeColor=#666666;fontSize=18;fontColor=#333333;" vertex="1" parent="Ys5hY5i7SfUJTXYO6Fxr-1">
          <mxGeometry x="320" y="370" width="120" height="60" as="geometry" />
        </mxCell>
        <mxCell id="dvV7r0g6No6pwjhQ1p7Y-49" value="遊戲列表" style="rounded=1;whiteSpace=wrap;html=1;fillColor=#f8cecc;strokeColor=#b85450;fontSize=18;" vertex="1" parent="Ys5hY5i7SfUJTXYO6Fxr-1">
          <mxGeometry x="320" y="270" width="120" height="60" as="geometry" />
        </mxCell>
      </root>
    </mxGraphModel>
  </diagram>
</mxfile>
